<svg width="14" height="14" viewBox="0 0 14 14" fill="none" xmlns="http://www.w3.org/2000/svg">
<path d="M9.43579 3.44577V1.89396C9.43579 1.65076 9.23865 1.45361 8.99545 1.45361H5.00486C4.76166 1.45361 4.56451 1.65076 4.56451 1.89396V3.44577H3.31592V12.5462H10.6844V3.44577H9.43579ZM8.55511 3.44227H5.4452V2.3343H8.55508V3.44227H8.55511Z" fill="#4DC74B"/>
<path d="M1.49682 3.4458C0.671479 3.4458 0 4.11725 0 4.94259V11.0495C0 11.8748 0.671479 12.5462 1.49682 12.5462H2.43507V3.4458H1.49682Z" fill="#4DC74B"/>
<path d="M12.5032 3.4458H11.5649V12.5463H12.5032C13.3285 12.5463 14 11.8748 14 11.0495V4.94259C14 4.11725 13.3285 3.4458 12.5032 3.4458Z" fill="#4DC74B"/>
</svg>
