<svg width="14" height="14" viewBox="0 0 14 14" fill="none" xmlns="http://www.w3.org/2000/svg">
<path d="M6.97837 0C3.32693 0 0.332203 2.79617 0.0102539 6.3636H5.70572V4.45451C5.70572 4.19746 5.86092 3.96523 6.09828 3.86654C6.33633 3.76796 6.60992 3.82261 6.79193 4.00462L9.33735 6.55015C9.58624 6.79892 9.58624 7.20104 9.33735 7.44993L6.79193 9.99534C6.60992 10.1774 6.33633 10.2321 6.09828 10.1334C5.86092 10.0348 5.70572 9.8025 5.70572 9.54545V7.63636H0.0102539C0.332203 11.2038 3.32693 14 6.97837 14C10.8443 14 13.9784 10.8659 13.9784 7.00004C13.9784 3.13408 10.8443 0 6.97837 0V0Z" fill="#4DC74B"/>
</svg>
