<svg xmlns="http://www.w3.org/2000/svg" viewBox="0 0 317.12 308.16"><defs><style>.cls-1{fill:#364c73;}</style></defs><title>Filters</title><g id="Слой_2" data-name="Слой 2"><g id="Слой_1-2" data-name="Слой 1"><path class="cls-1" d="M308.4,34.27H85a42.83,42.83,0,1,0,0,17.12H308.4a8.56,8.56,0,1,0,0-17.12ZM43,68.53A25.71,25.71,0,1,1,68.71,42.83,25.74,25.74,0,0,1,43,68.53Z"/><path class="cls-1" d="M274.21,222.51a42.84,42.84,0,0,0-42,34.27H8.72a8.56,8.56,0,0,0,0,17.12H232.24a42.83,42.83,0,1,0,42-51.39Zm0,68.53a25.71,25.71,0,1,1,25.71-25.71A25.74,25.74,0,0,1,274.21,291Z"/><path class="cls-1" d="M308.56,145.52H200.48a42.84,42.84,0,0,0-83.94,0H8.56a8.56,8.56,0,0,0,0,17.12h108a42.84,42.84,0,0,0,83.94,0H308.56a8.56,8.56,0,0,0,0-17.12Zm-150,34.27a25.71,25.71,0,1,1,25.71-25.71A25.74,25.74,0,0,1,158.51,179.79Z"/></g></g></svg>