<svg xmlns="http://www.w3.org/2000/svg" viewBox="0 0 442.21 560"><defs><style>.cls-1{fill:#ff7c1d;}</style></defs><title>notification</title><g id="Слой_2" data-name="Слой 2"><g id="Capa_1" data-name="Capa 1"><path class="cls-1" d="M425.5,413.49a57.22,57.22,0,0,1-18.63-42.1V262.5a10.94,10.94,0,0,0-21.88,0V371.39a79.14,79.14,0,0,0,25.75,58.25,28.43,28.43,0,0,1-19.18,49.42H50.31a28.43,28.43,0,0,1-19.18-49.42,79.14,79.14,0,0,0,25.75-58.25V245c0-90.46,73.6-164.06,164.06-164.06a164.2,164.2,0,0,1,71.58,16.42,81,81,0,1,0,14.37-17.25A185.47,185.47,0,0,0,255,62.23a40.47,40.47,0,1,0-68.2,0C100.54,78.27,35,154.12,35,245V371.39a57.21,57.21,0,0,1-18.63,42.1,50.31,50.31,0,0,0,33.94,87.44H151.8a70,70,0,0,0,138.28,0H391.56a50.31,50.31,0,0,0,33.94-87.44ZM361.27,80.94A59.06,59.06,0,1,1,302.21,140,59.13,59.13,0,0,1,361.27,80.94ZM220.94,21.87a18.59,18.59,0,1,1-18.59,18.59A18.61,18.61,0,0,1,220.94,21.87Zm0,516.25a48.2,48.2,0,0,1-46.86-37.19h93.71A48.2,48.2,0,0,1,220.94,538.12Z"/><path class="cls-1" d="M98.44,233.83A10.94,10.94,0,0,0,87.5,244.77V245a10.94,10.94,0,0,0,21.88,0v-.23A10.94,10.94,0,0,0,98.44,233.83Z"/><path class="cls-1" d="M220.94,111.56A133.27,133.27,0,0,0,98.06,192.89a10.94,10.94,0,1,0,20.14,8.55,111.44,111.44,0,0,1,102.74-68,10.94,10.94,0,1,0,0-21.87Z"/><path class="cls-1" d="M365.12,104.55a11,11,0,0,0-11.92,2.37L340.63,119.5A10.94,10.94,0,0,0,350,138.05v19.81a10.94,10.94,0,0,0,21.88,0v-43.2A10.94,10.94,0,0,0,365.12,104.55Z"/></g></g></svg>