<svg width="50" height="50" viewBox="0 0 50 50" fill="none" xmlns="http://www.w3.org/2000/svg">
<circle cx="25" cy="25" r="24.5" stroke="#A5A7B2"/>
<path d="M24.6194 14.1708C24.7392 13.8023 25.2605 13.8023 25.3803 14.1708L27.6042 21.0154C27.6578 21.1802 27.8113 21.2918 27.9846 21.2918H35.1815C35.5689 21.2918 35.7301 21.7877 35.4166 22.0154L29.5942 26.2456C29.454 26.3475 29.3954 26.528 29.4489 26.6928L31.6729 33.5374C31.7926 33.9059 31.3708 34.2124 31.0573 33.9846L25.235 29.7544C25.0948 29.6526 24.9049 29.6526 24.7647 29.7544L18.9424 33.9846C18.6289 34.2124 18.2071 33.9059 18.3269 33.5374L20.5508 26.6928C20.6043 26.528 20.5457 26.3475 20.4055 26.2456L14.5831 22.0154C14.2696 21.7877 14.4308 21.2918 14.8182 21.2918H22.0151C22.1884 21.2918 22.3419 21.1802 22.3955 21.0154L24.6194 14.1708Z" fill="#A5A7B2"/>
</svg>
