<svg width="50" height="50" viewBox="0 0 50 50" fill="none" xmlns="http://www.w3.org/2000/svg">
<circle cx="25" cy="25" r="24.5" stroke="#A5A7B2"/>
<g clip-path="url(#clip0)">
<path d="M15.4175 18.717C18.1624 21.0417 22.9789 25.1314 24.3945 26.4066C24.5845 26.5788 24.7884 26.6663 25 26.6663C25.2111 26.6663 25.4146 26.5796 25.6042 26.4083C27.021 25.1318 31.8375 21.0417 34.5825 18.717C34.7534 18.5726 34.7794 18.3187 34.6411 18.1421C34.3212 17.734 33.8444 17.5 33.3333 17.5H16.6666C16.1556 17.5 15.6787 17.734 15.3589 18.1421C15.2205 18.3187 15.2466 18.5726 15.4175 18.717Z" fill="#A5A7B2"/>
<path d="M34.7586 19.9767C34.6109 19.908 34.4371 19.9319 34.3142 20.0369C32.5166 21.5608 30.148 23.5741 28.3617 25.1106C28.2677 25.1912 28.2148 25.3096 28.2169 25.4337C28.2189 25.5574 28.2763 25.6741 28.3731 25.7514C30.0329 27.0808 32.5341 28.9094 34.3403 30.2091C34.4123 30.2611 34.4978 30.2876 34.5836 30.2876C34.6487 30.2876 34.7138 30.2725 34.7737 30.2416C34.9128 30.1704 35.0003 30.0271 35.0003 29.8709V20.3547C35.0003 20.1924 34.9059 20.0447 34.7586 19.9767Z" fill="#A5A7B2"/>
<path d="M15.66 30.2092C17.4666 28.9096 19.9683 27.081 21.6276 25.7516C21.7245 25.6743 21.7818 25.5575 21.7839 25.4339C21.7859 25.3098 21.733 25.1914 21.639 25.1108C19.8527 23.5743 17.4837 21.561 15.6861 20.0371C15.5623 19.9321 15.3882 19.909 15.2417 19.9769C15.0944 20.0449 15 20.1926 15 20.3549V29.8711C15 30.0274 15.0875 30.1706 15.2266 30.2418C15.2864 30.2728 15.3516 30.2878 15.4167 30.2878C15.5025 30.2878 15.588 30.2614 15.66 30.2092Z" fill="#A5A7B2"/>
<path d="M34.4894 31.3427C32.745 30.0947 29.5317 27.768 27.6136 26.2112C27.4573 26.0839 27.2311 26.0879 27.0773 26.2206C26.7009 26.5489 26.386 26.8257 26.1626 27.0266C25.4765 27.6459 24.5244 27.6459 23.8367 27.0258C23.6141 26.8252 23.2992 26.5477 22.9228 26.2205C22.7702 26.0871 22.5436 26.083 22.3869 26.2112C20.4753 27.7627 17.2583 30.0922 15.5111 31.3426C15.4138 31.4126 15.3512 31.5204 15.339 31.6397C15.3272 31.7589 15.3666 31.8773 15.4484 31.9652C15.7638 32.305 16.2081 32.4999 16.6667 32.4999H33.3334C33.792 32.4999 34.2359 32.305 34.5521 31.9652C34.6335 31.8777 34.6733 31.7593 34.6615 31.6401C34.6493 31.5209 34.5867 31.4127 34.4894 31.3427Z" fill="#A5A7B2"/>
</g>
<defs>
<clipPath id="clip0">
<rect x="15" y="15" width="20" height="20" fill="white"/>
</clipPath>
</defs>
</svg>
