<svg width="60" height="60" viewBox="0 0 60 60" fill="none" xmlns="http://www.w3.org/2000/svg">
<path d="M56.3569 4.6875H47.7301C47.6073 2.08207 45.4495 0 42.8142 0C40.1789 0 38.0211 2.08207 37.8983 4.6875H23.3933C23.2705 2.08207 21.1127 0 18.4774 0C15.8421 0 13.6843 2.08207 13.5615 4.6875H7.60688C5.59805 4.6875 3.96363 6.3218 3.96363 8.33062V47.3413H1.17188C0.524648 47.3413 0 47.8659 0 48.5132C0 51.1668 1.6425 53.4425 3.96363 54.3813V58.8281C3.96363 59.4754 4.48828 60 5.13551 60H58.8281C59.4754 60 60 59.4754 60 58.8281V8.33062C60 6.3218 58.3657 4.6875 56.3569 4.6875ZM42.8142 2.34375C44.1567 2.34375 45.2624 3.37535 45.3812 4.6875H40.2472C40.3661 3.37535 41.4716 2.34375 42.8142 2.34375ZM18.4774 2.34375C19.8199 2.34375 20.9256 3.37535 21.0444 4.6875H15.9104C16.0293 3.37535 17.1349 2.34375 18.4774 2.34375ZM6.30738 17.2266H48.2812C48.9285 17.2266 49.4531 16.7019 49.4531 16.0547C49.4531 15.4075 48.9285 14.8828 48.2812 14.8828H6.30738V8.33062C6.30738 7.61414 6.89027 7.03125 7.60688 7.03125H13.5615C13.6843 9.63668 15.8421 11.7188 18.4774 11.7188C19.1246 11.7188 19.6493 11.1941 19.6493 10.5469C19.6493 9.89965 19.1246 9.375 18.4774 9.375C17.1349 9.375 16.0293 8.3434 15.9104 7.03125H37.8983C38.0211 9.63668 40.1789 11.7188 42.8142 11.7188C43.4614 11.7188 43.9861 11.1941 43.9861 10.5469C43.9861 9.89965 43.4614 9.375 42.8142 9.375C41.4717 9.375 40.3661 8.3434 40.2472 7.03125H56.3569C57.0734 7.03125 57.6562 7.61414 57.6562 8.33062V48.9819C57.6562 50.918 56.0831 52.4933 54.1479 52.4973C51.9543 52.4933 50.1708 50.7076 50.1708 48.5132C50.1708 47.8659 49.6461 47.3413 48.9989 47.3413H6.30738V17.2266ZM2.51953 49.685H47.9359C48.1337 50.7368 48.5926 51.6979 49.2423 52.4975H6.32812C4.53879 52.4975 3.02109 51.312 2.51953 49.685ZM6.30738 57.6562V54.8408C6.3143 54.8408 6.32109 54.8413 6.32812 54.8413H53.9507C53.9713 54.8413 53.9919 54.8408 54.0122 54.8396C54.0534 54.8406 54.0949 54.8409 54.1364 54.8411C54.1378 54.8411 54.1392 54.8413 54.1406 54.8413C54.1421 54.8413 54.1436 54.8412 54.1451 54.8412C54.1485 54.8412 54.1519 54.8413 54.1553 54.8413C54.1603 54.8413 54.1651 54.8406 54.17 54.8406C55.4767 54.8341 56.6836 54.3981 57.6562 53.6662V57.6562H6.30738Z" fill="#4A4F64"/>
<path d="M53.5547 17.2266C53.8629 17.2266 54.1652 17.1012 54.3832 16.8832C54.6012 16.6652 54.7266 16.3629 54.7266 16.0547C54.7266 15.7465 54.6012 15.4441 54.3832 15.2262C54.1652 15.0082 53.8629 14.8828 53.5547 14.8828C53.2465 14.8828 52.9441 15.0082 52.7262 15.2262C52.5082 15.4441 52.3828 15.7465 52.3828 16.0547C52.3828 16.3629 52.5082 16.6652 52.7262 16.8832C52.9441 17.1012 53.2465 17.2266 53.5547 17.2266Z" fill="#4A4F64"/>
<path d="M31.9817 26.8934C29.0093 26.8934 26.5911 29.3117 26.5911 32.284C26.5911 35.2564 29.0093 37.6747 31.9817 37.6747C34.954 37.6747 37.3723 35.2564 37.3723 32.284C37.3723 29.3117 34.954 26.8934 31.9817 26.8934ZM31.9817 35.3309C30.3017 35.3309 28.9348 33.964 28.9348 32.284C28.9348 30.6041 30.3017 29.2372 31.9817 29.2372C33.6617 29.2372 35.0286 30.6041 35.0286 32.284C35.0286 33.964 33.6617 35.3309 31.9817 35.3309Z" fill="#4A4F64"/>
<path d="M31.9817 24.5496C32.6289 24.5496 33.1536 24.025 33.1536 23.3777V20.7422C33.1536 20.095 32.6289 19.5703 31.9817 19.5703C31.3345 19.5703 30.8098 20.095 30.8098 20.7422V23.3777C30.8098 24.025 31.3345 24.5496 31.9817 24.5496Z" fill="#4A4F64"/>
<path d="M31.9817 40.0183C31.3345 40.0183 30.8098 40.543 30.8098 41.1902V43.8256C30.8098 44.4728 31.3345 44.9975 31.9817 44.9975C32.6289 44.9975 33.1536 44.4728 33.1536 43.8256V41.1902C33.1536 40.543 32.6289 40.0183 31.9817 40.0183Z" fill="#4A4F64"/>
<path d="M43.5235 31.1121H40.8879C40.2407 31.1121 39.7161 31.6367 39.7161 32.2839C39.7161 32.9312 40.2407 33.4558 40.8879 33.4558H43.5235C44.1707 33.4558 44.6954 32.9312 44.6954 32.2839C44.6954 31.6367 44.1707 31.1121 43.5235 31.1121Z" fill="#4A4F64"/>
<path d="M24.2476 32.2839C24.2476 31.6367 23.723 31.1121 23.0757 31.1121H20.4402C19.793 31.1121 19.2683 31.6367 19.2683 32.2839C19.2683 32.9312 19.793 33.4558 20.4402 33.4558H23.0757C23.723 33.4558 24.2476 32.9312 24.2476 32.2839Z" fill="#4A4F64"/>
<path d="M38.2794 27.1582C38.5793 27.1582 38.8793 27.0438 39.108 26.8149L40.9715 24.9514C41.4291 24.4938 41.4291 23.7518 40.9715 23.294C40.5139 22.8364 39.7719 22.8364 39.3141 23.294L37.4506 25.1575C36.993 25.6152 36.993 26.3572 37.4506 26.8149C37.6795 27.0437 37.9795 27.1582 38.2794 27.1582Z" fill="#4A4F64"/>
<path d="M24.8554 37.753L22.9919 39.6167C22.5343 40.0743 22.5343 40.8163 22.9919 41.2739C23.2208 41.5028 23.5206 41.6172 23.8205 41.6172C24.1204 41.6172 24.4204 41.5027 24.6492 41.2739L26.5127 39.4103C26.9703 38.9527 26.9703 38.2107 26.5127 37.753C26.0551 37.2954 25.313 37.2953 24.8554 37.753Z" fill="#4A4F64"/>
<path d="M39.1082 37.753C38.6506 37.2954 37.9085 37.2954 37.4509 37.753C36.9933 38.2106 36.9932 38.9527 37.4509 39.4103L39.3144 41.2739C39.5433 41.5028 39.8432 41.6172 40.1431 41.6172C40.443 41.6172 40.743 41.5027 40.9717 41.2739C41.4293 40.8163 41.4294 40.0743 40.9717 39.6166L39.1082 37.753Z" fill="#4A4F64"/>
<path d="M24.8555 26.8149C25.0844 27.0438 25.3843 27.1582 25.6842 27.1582C25.984 27.1582 26.284 27.0438 26.5128 26.8149C26.9704 26.3573 26.9704 25.6153 26.5128 25.1575L24.6493 23.294C24.1917 22.8364 23.4496 22.8364 22.9919 23.294C22.5343 23.7516 22.5343 24.4937 22.9919 24.9514L24.8555 26.8149Z" fill="#4A4F64"/>
</svg>
