<svg width="40" height="40" viewBox="0 0 40 40" fill="none" xmlns="http://www.w3.org/2000/svg">
<path d="M23.3309 13.3208H25.1567V10.1408C24.8417 10.0975 23.7584 9.99999 22.4967 9.99999C19.8642 9.99999 18.0609 11.6558 18.0609 14.6992V17.5H15.1559V21.055H18.0609V30H21.6226V21.0558H24.4101L24.8526 17.5008H21.6217V15.0517C21.6226 14.0242 21.8992 13.3208 23.3309 13.3208Z" fill="#242735"/>
<path d="M40 20C40 31.0457 31.0457 40 20 40C8.9543 40 0 31.0457 0 20C0 8.9543 8.9543 0 20 0C31.0457 0 40 8.9543 40 20ZM1 20C1 30.4934 9.50659 39 20 39C30.4934 39 39 30.4934 39 20C39 9.50659 30.4934 1 20 1C9.50659 1 1 9.50659 1 20Z" fill="#242735"/>
</svg>
