<svg width="26" height="26" viewBox="0 0 26 26" fill="none" xmlns="http://www.w3.org/2000/svg">
<g clip-path="url(#clip0)">
<path d="M6.10057 8.47627C8.07691 10.15 11.5448 13.0946 12.564 14.0128C12.7009 14.1367 12.8476 14.1997 13 14.1997C13.152 14.1997 13.2985 14.1373 13.435 14.014C14.4552 13.0949 17.923 10.15 19.8994 8.47627C20.0224 8.37226 20.0412 8.18945 19.9416 8.0623C19.7113 7.76847 19.3679 7.60001 19 7.60001H6.99998C6.63202 7.60001 6.28864 7.76847 6.05838 8.06232C5.95876 8.18945 5.97752 8.37226 6.10057 8.47627Z" fill="#4A4F64"/>
<path d="M20.026 9.38327C19.9196 9.33377 19.7945 9.35104 19.7061 9.42664C18.4117 10.5238 16.7063 11.9734 15.4202 13.0797C15.3525 13.1377 15.3145 13.2229 15.3159 13.3123C15.3174 13.4013 15.3587 13.4854 15.4284 13.5411C16.6235 14.4982 18.4243 15.8148 19.7248 16.7506C19.7767 16.788 19.8382 16.8071 19.9 16.8071C19.9469 16.8071 19.9937 16.7963 20.0368 16.774C20.137 16.7227 20.2 16.6196 20.2 16.5071V9.65544C20.2 9.53855 20.132 9.43221 20.026 9.38327Z" fill="#4A4F64"/>
<path d="M6.27519 16.7505C7.57597 15.8148 9.37715 14.4982 10.5719 13.541C10.6416 13.4854 10.6829 13.4013 10.6844 13.3122C10.6858 13.2229 10.6478 13.1376 10.5801 13.0796C9.29393 11.9734 7.58826 10.5237 6.29395 9.42658C6.20488 9.35098 6.07949 9.3343 5.97403 9.38321C5.86797 9.43215 5.79999 9.53849 5.79999 9.65537V16.507C5.79999 16.6195 5.86299 16.7227 5.96317 16.774C6.00623 16.7962 6.05311 16.8071 6.1 16.8071C6.16182 16.8071 6.22333 16.788 6.27519 16.7505Z" fill="#4A4F64"/>
<path d="M19.8323 17.5666C18.5763 16.6681 16.2628 14.9929 14.8817 13.872C14.7692 13.7803 14.6063 13.7832 14.4956 13.8787C14.2246 14.1151 13.9978 14.3144 13.837 14.4591C13.343 14.905 12.6575 14.905 12.1624 14.4585C12.0021 14.3141 11.7754 14.1142 11.5043 13.8787C11.3945 13.7826 11.2313 13.7797 11.1185 13.8719C9.74212 14.989 7.42591 16.6663 6.16791 17.5666C6.09787 17.617 6.05276 17.6946 6.04399 17.7805C6.03549 17.8663 6.0639 17.9515 6.12279 18.0148C6.34987 18.2595 6.6698 18.3998 6.99998 18.3998H19C19.3302 18.3998 19.6498 18.2595 19.8774 18.0149C19.936 17.9519 19.9647 17.8666 19.9562 17.7808C19.9474 17.695 19.9023 17.617 19.8323 17.5666Z" fill="#4A4F64"/>
</g>
<circle cx="13" cy="13" r="12" stroke="#4A4F64"/>
<defs>
<clipPath id="clip0">
<rect x="5.79999" y="5.8" width="14.4" height="14.4" fill="white"/>
</clipPath>
</defs>
</svg>
