<svg width="20" height="20" viewBox="0 0 20 20" fill="none" xmlns="http://www.w3.org/2000/svg">
<path d="M15.4121 5.30801L14.3726 7.78959C14.1761 8.24158 13.6922 8.59294 13.2225 8.59294H11.4844V8.90446C11.4844 9.16286 11.4286 9.37405 11.1702 9.37405H8.98251C8.72412 9.37405 8.35964 9.16302 8.35964 8.90446V8.59294H6.91117C6.44109 8.59294 5.91934 8.24158 5.72318 7.78959L4.65023 5.31761C4.33951 5.57553 4.14111 5.96625 4.14111 6.40096V17.8104C4.14111 18.5338 4.69039 19.1308 5.39342 19.2077C5.46446 19.6557 5.8523 19.9999 6.31998 19.9999C6.78429 19.9999 7.17037 19.6861 7.24525 19.2175H12.9105C12.9852 19.6861 13.3711 19.9999 13.8354 19.9999C14.3033 19.9999 14.6151 19.6557 14.6858 19.2076C15.3876 19.1292 15.8591 18.5327 15.8591 17.8106V6.40112C15.8593 5.95985 15.7306 5.56593 15.4121 5.30801ZM14.2916 17.1861H5.8579C5.59934 17.1861 5.3891 16.9746 5.3891 16.7175C5.3891 16.4604 5.59934 16.2489 5.8579 16.2489H14.2916C14.55 16.2489 14.7604 16.4604 14.7604 16.7175C14.7604 16.9746 14.5502 17.1861 14.2916 17.1861ZM14.2916 14.3738H5.8579C5.59934 14.3738 5.3891 14.1622 5.3891 13.905C5.3891 13.6479 5.59934 13.4364 5.8579 13.4364H14.2916C14.55 13.4364 14.7604 13.6479 14.7604 13.905C14.7604 14.1622 14.5502 14.3738 14.2916 14.3738ZM14.2916 11.5616H5.8579C5.59934 11.5616 5.3891 11.3499 5.3891 11.0929C5.3891 10.8358 5.59934 10.6241 5.8579 10.6241H14.2916C14.55 10.6241 14.7604 10.8356 14.7604 11.0929C14.7604 11.3499 14.5502 11.5616 14.2916 11.5616Z" fill="#FA6464"/>
<path d="M14.605 4.99964H11.7969V0.467836C11.7969 0.209278 11.7361 0 11.4775 0H8.67721C8.41881 0 8.20345 0.209438 8.20345 0.467836V4.99964H5.54763C5.43099 4.99964 5.3182 5.01308 5.20972 5.03996L6.29675 7.54234C6.39419 7.76714 6.68714 7.96826 6.9113 7.96826H13.2226C13.4465 7.96826 13.7394 7.76602 13.8372 7.54106L14.9261 5.0342C14.8228 5.00972 14.7157 4.99964 14.605 4.99964ZM10.8596 4.99964H9.14089V0.937433H10.8596V4.99964Z" fill="#FA6464"/>
</svg>
