<svg width="20" height="20" viewBox="0 0 20 20" fill="none" xmlns="http://www.w3.org/2000/svg">
<path d="M15.4167 17.5767V14.4292C15.4167 13.3484 14.95 12.3192 14.1359 11.6067L12.2992 10L14.1359 8.39332C14.95 7.68082 15.4167 6.65164 15.4167 5.57082V2.42332C15.9008 2.25082 16.25 1.7925 16.25 1.25C16.25 0.56082 15.6892 0 15 0H5C4.31082 0 3.75 0.56082 3.75 1.25C3.75 1.7925 4.09918 2.25082 4.58332 2.42332V5.57082C4.58332 6.65164 5.05 7.68082 5.86414 8.39332L7.70082 10L5.86414 11.6067C5.04996 12.3192 4.58332 13.3484 4.58332 14.4292V17.5767C4.09918 17.7492 3.75 18.2075 3.75 18.75C3.75 19.4392 4.31082 20 5 20H15C15.6892 20 16.25 19.4392 16.25 18.75C16.25 18.2075 15.9008 17.7492 15.4167 17.5767ZM14.5833 17.5H5.41668V14.4292C5.41668 13.5884 5.78 12.7884 6.4125 12.2342L8.6075 10.3134C8.69832 10.2342 8.75 10.12 8.75 10C8.75 9.88004 8.69832 9.76586 8.6075 9.68672L6.4125 7.7659C5.78 7.21172 5.41668 6.41172 5.41668 5.5709V2.5H14.5834V5.57082C14.5834 6.41164 14.22 7.21164 13.5875 7.76582L11.3925 9.68664C11.3017 9.76582 11.25 9.88 11.25 10C11.25 10.12 11.3017 10.2342 11.3925 10.3133L13.5875 12.2341C14.2208 12.7883 14.5833 13.5883 14.5833 14.4291V17.5Z" fill="#FA6464"/>
<path d="M13.6593 15.99L10.3259 11.8233C10.1676 11.6258 9.83345 11.6258 9.67513 11.8233L6.34182 15.99C6.24182 16.115 6.22264 16.2867 6.29182 16.4308C6.361 16.575 6.50682 16.6666 6.66682 16.6666H13.3335C13.4935 16.6666 13.6393 16.575 13.7093 16.4308C13.7784 16.2867 13.7593 16.115 13.6593 15.99Z" fill="#FA6464"/>
<path d="M12.0517 6.9242C11.9876 6.76838 11.8351 6.6667 11.6667 6.6667H8.33342C8.1651 6.6667 8.0126 6.76838 7.94842 6.9242C7.88342 7.08002 7.91924 7.25838 8.03842 7.37838L9.7051 9.04506C9.78678 9.12588 9.89342 9.16674 10.0001 9.16674C10.1068 9.16674 10.2134 9.12592 10.2951 9.04506L11.9618 7.37838C12.0809 7.2592 12.1167 7.08002 12.0517 6.9242Z" fill="#FA6464"/>
</svg>
