<svg width="40" height="40" viewBox="0 0 40 40" fill="none" xmlns="http://www.w3.org/2000/svg">
<path d="M17.8476 22.6508L17.5168 27.3042C17.9901 27.3042 18.1951 27.1008 18.4409 26.8567L20.6601 24.7358L25.2584 28.1033C26.1018 28.5733 26.6959 28.3258 26.9234 27.3275L29.9418 13.1842L29.9426 13.1833C30.2101 11.9367 29.4918 11.4492 28.6701 11.755L10.9284 18.5475C9.7176 19.0175 9.73593 19.6925 10.7226 19.9983L15.2584 21.4092L25.7943 14.8167C26.2901 14.4883 26.7409 14.67 26.3701 14.9983L17.8476 22.6508Z" fill="#242735"/>
<path d="M40 20C40 31.0457 31.0457 40 20 40C8.9543 40 0 31.0457 0 20C0 8.9543 8.9543 0 20 0C31.0457 0 40 8.9543 40 20ZM1 20C1 30.4934 9.50659 39 20 39C30.4934 39 39 30.4934 39 20C39 9.50659 30.4934 1 20 1C9.50659 1 1 9.50659 1 20Z" fill="#242735"/>
</svg>
