<svg width="22" height="16" viewBox="0 0 22 16" fill="none" xmlns="http://www.w3.org/2000/svg">
<path d="M0 2.28577H22M0 8.381H22M0 13.7143H22" stroke="#242735" stroke-width="1.6"/>
<path d="M17.9667 2.28571C17.9667 3.54808 16.9817 4.57143 15.7667 4.57143C14.5516 4.57143 13.5667 3.54808 13.5667 2.28571C13.5667 1.02335 14.5516 0 15.7667 0C16.9817 0 17.9667 1.02335 17.9667 2.28571Z" fill="#242735"/>
<path d="M8.43333 8.38095C8.43333 9.64332 7.44835 10.6667 6.23333 10.6667C5.0183 10.6667 4.03333 9.64332 4.03333 8.38095C4.03333 7.11859 5.0183 6.09524 6.23333 6.09524C7.44835 6.09524 8.43333 7.11859 8.43333 8.38095Z" fill="#242735"/>
<path d="M15.7667 13.7143C15.7667 14.9767 14.7817 16 13.5667 16C12.3516 16 11.3667 14.9767 11.3667 13.7143C11.3667 12.4519 12.3516 11.4286 13.5667 11.4286C14.7817 11.4286 15.7667 12.4519 15.7667 13.7143Z" fill="#242735"/>
</svg>
