<svg width="130" height="130" viewBox="0 0 130 130" fill="none" xmlns="http://www.w3.org/2000/svg">
<path d="M130 65C130 78.7267 125.654 92.1009 117.586 103.206C109.518 114.311 98.1409 122.577 85.0861 126.819C72.0313 131.06 57.9687 131.06 44.9139 126.819C31.8591 122.577 20.4822 114.311 12.4139 103.206C4.34557 92.1009 -1.20002e-06 78.7266 0 65C1.20002e-06 51.2733 4.34557 37.899 12.4139 26.794C20.4822 15.6889 31.8591 7.42309 44.9139 3.18132C57.9687 -1.06044 72.0313 -1.06044 85.0861 3.18133L84.4835 5.03589C71.8204 0.921369 58.1797 0.921367 45.5165 5.03588C32.8533 9.1504 21.8178 17.1682 13.9915 27.9401C6.1652 38.7121 1.95 51.6851 1.95 65C1.95 78.3148 6.1652 91.2879 13.9915 102.06C21.8177 112.832 32.8533 120.85 45.5165 124.964C58.1797 129.079 71.8203 129.079 84.4835 124.964C97.1467 120.85 108.182 112.832 116.009 102.06C123.835 91.2879 128.05 78.3148 128.05 65H130Z" fill="#67A6E0"/>
</svg>

