<svg width="12" height="26" viewBox="0 0 12 26" fill="none" xmlns="http://www.w3.org/2000/svg">
<path d="M11.495 6.49497C11.7683 6.22161 11.7683 5.77839 11.495 5.50503L7.0402 1.05025C6.76684 0.776886 6.32362 0.776886 6.05025 1.05025C5.77689 1.32362 5.77689 1.76684 6.05025 2.0402L10.0101 6L6.05025 9.9598C5.77689 10.2332 5.77689 10.6764 6.05025 10.9497C6.32362 11.2231 6.76684 11.2231 7.0402 10.9497L11.495 6.49497ZM1 6.7H11V5.3H1V6.7Z" fill="white"/>
<path d="M0.505025 19.505C0.231658 19.7784 0.231658 20.2216 0.505025 20.495L4.9598 24.9497C5.23316 25.2231 5.67638 25.2231 5.94975 24.9497C6.22311 24.6764 6.22311 24.2332 5.94975 23.9598L1.98995 20L5.94975 16.0402C6.22311 15.7668 6.22311 15.3236 5.94975 15.0503C5.67638 14.7769 5.23317 14.7769 4.9598 15.0503L0.505025 19.505ZM11 19.3L1 19.3L1 20.7L11 20.7L11 19.3Z" fill="white"/>
</svg>
