<svg width="60" height="60" viewBox="0 0 60 60" fill="none" xmlns="http://www.w3.org/2000/svg">
<path d="M30.7951 37.1727C30.5709 36.7002 30.0057 36.4986 29.5331 36.723C28.7641 37.088 27.9579 37.3896 27.1369 37.6193C26.7934 37.7154 26.5331 37.9961 26.4633 38.3459L25.4611 43.3566C25.3622 43.8513 24.9241 44.2105 24.4195 44.2105H21.6857C21.1811 44.2105 20.7431 43.8514 20.6441 43.3566L19.6419 38.3459C19.572 37.9961 19.3116 37.7154 18.9683 37.6193C17.8084 37.2947 16.689 36.8309 15.6412 36.2407C15.3304 36.0656 14.9475 36.08 14.6508 36.2779L10.3985 39.1126C9.97875 39.3925 9.41508 39.3366 9.05812 38.9798L7.125 37.0466C6.76816 36.6898 6.7125 36.1261 6.99223 35.7062L9.82699 31.4539C10.0249 31.1571 10.0393 30.7744 9.86414 30.4635C9.27387 29.4156 8.81004 28.2961 8.48555 27.1364C8.38945 26.7929 8.10879 26.5327 7.75898 26.4628L2.74828 25.4606C2.25352 25.3617 1.89434 24.9237 1.89434 24.4191V21.6852C1.89434 21.1806 2.2534 20.7427 2.74828 20.6436L7.75898 19.6414C8.10879 19.5715 8.38945 19.3111 8.48555 18.9679C8.81016 17.8079 9.27398 16.6886 9.86414 15.6408C10.0392 15.33 10.0248 14.9471 9.82699 14.6503L6.99246 10.3985C6.71262 9.97863 6.7684 9.41508 7.12523 9.05812L9.05836 7.125C9.41519 6.76816 9.97898 6.7125 10.3988 6.99223L14.651 9.82699C14.9477 10.0249 15.3307 10.0392 15.6415 9.86414C16.6893 9.27398 17.8086 8.81016 18.9686 8.48555C19.312 8.38945 19.5723 8.10879 19.6421 7.75898L20.6443 2.74828C20.7432 2.25352 21.1813 1.89434 21.6859 1.89434H24.4198C24.9244 1.89434 25.3623 2.2534 25.4613 2.74828L26.4635 7.75898C26.5335 8.10879 26.7939 8.38945 27.1371 8.48555C28.297 8.81016 29.4164 9.27398 30.4642 9.86414C30.7751 10.0392 31.1579 10.0248 31.4546 9.82699L35.7069 6.99223C36.1267 6.71238 36.6902 6.76828 37.0473 7.125L38.9804 9.05812C39.3373 9.41496 39.3929 9.97863 39.1132 10.3985L36.2784 14.6508C36.0805 14.9476 36.0661 15.3304 36.2413 15.6412C36.8314 16.689 37.2953 17.8084 37.6199 18.9683C37.716 19.3118 37.9966 19.5721 38.3464 19.6419L43.3571 20.6441C43.8519 20.743 44.2111 21.1811 44.2111 21.6857V24.4195C44.2111 24.9241 43.852 25.3621 43.3571 25.4611L38.3464 26.4633C37.9966 26.5332 37.716 26.7936 37.6199 27.1371C37.3845 27.9785 37.0738 28.8039 36.6964 29.5903C36.47 30.062 36.669 30.6279 37.1407 30.8542C37.6124 31.0807 38.1784 30.8816 38.4046 30.4099C38.7451 29.7001 39.0375 28.9622 39.2767 28.2095L43.7288 27.3191C45.1056 27.0435 46.1052 25.824 46.1052 24.4194V21.6855C46.1052 20.2809 45.1056 19.0616 43.7282 18.786L39.2762 17.8956C38.9842 16.9764 38.6141 16.0827 38.1707 15.2273L40.6893 11.4493C41.4683 10.2806 41.313 8.71148 40.3198 7.7182L38.3866 5.78508C37.3932 4.7918 35.8241 4.63664 34.6555 5.41559L30.8775 7.93418C30.0222 7.49086 29.1285 7.12066 28.2093 6.82863L27.3189 2.37668C27.0436 0.999609 25.8241 0 24.4195 0H21.6857C20.2811 0 19.0617 0.999609 18.7861 2.37703L17.8957 6.82898C16.9765 7.12102 16.0828 7.49109 15.2275 7.93453L11.4497 5.41594C10.2811 4.63688 8.71184 4.79203 7.71855 5.78543L5.78543 7.71855C4.79227 8.71184 4.63688 10.2809 5.41594 11.4497L7.93453 15.2277C7.49121 16.083 7.12102 16.9766 6.82898 17.8959L2.37691 18.7863C0.999609 19.0617 0 20.2812 0 21.6858V24.4196C0 25.8243 0.999609 27.0436 2.37703 27.3192L6.82898 28.2096C7.1209 29.1287 7.49109 30.0224 7.93453 30.8779L5.41594 34.6559C4.63688 35.8246 4.79215 37.3937 5.78543 38.387L7.71855 40.3201C8.71184 41.3134 10.281 41.4686 11.4497 40.6896L15.2277 38.171C16.083 38.6143 16.9766 38.9845 17.8959 39.2766L18.7863 43.7288C19.0617 45.1057 20.2812 46.1054 21.6858 46.1054H24.4196C25.8243 46.1054 27.0436 45.1058 27.3192 43.7284L28.2096 39.2764C28.9396 39.0445 29.6561 38.7625 30.3457 38.435C30.8183 38.2105 31.0196 37.6454 30.7951 37.1727Z" fill="#4A4F64"/>
<path d="M31.2585 28.3167C31.3967 28.3877 31.5444 28.4213 31.6899 28.4213C32.034 28.4213 32.366 28.2333 32.5337 27.9061C33.2977 26.416 33.7017 24.7378 33.7017 23.0527C33.7017 17.1808 28.9245 12.4036 23.0525 12.4036C20.259 12.4036 17.6192 13.4772 15.6193 15.4271C15.2447 15.7923 15.237 16.3922 15.6022 16.7667C15.9674 17.1412 16.5671 17.1491 16.9418 16.7838C18.5858 15.1811 20.7559 14.2984 23.0523 14.2984C27.8795 14.2984 31.8068 18.2256 31.8068 23.0529C31.8068 24.4584 31.484 25.8004 30.8476 27.0417C30.609 27.5069 30.7929 28.0779 31.2585 28.3167Z" fill="#4A4F64"/>
<path d="M14.1848 18.9991C13.6899 18.8288 13.151 19.0919 12.9808 19.5867C12.5979 20.6997 12.4037 21.866 12.4037 23.0527C12.4037 28.9248 17.181 33.7019 23.0529 33.7019C25.3112 33.7019 27.4689 33.0039 29.2928 31.6831C29.7166 31.3762 29.8114 30.7838 29.5046 30.3601C29.1978 29.9363 28.6053 29.8415 28.1815 30.1483C26.6829 31.2334 24.9095 31.807 23.0528 31.807C18.2255 31.807 14.2983 27.8797 14.2983 23.0525C14.2983 22.0758 14.4577 21.1169 14.7722 20.2027C14.9424 19.7081 14.6794 19.1691 14.1848 18.9991Z" fill="#4A4F64"/>
<path d="M58.1768 41.4042L55.4373 40.8563C55.2704 40.3598 55.0694 39.875 54.8364 39.4064L56.3864 37.0816C56.9839 36.1851 56.8648 34.9816 56.103 34.2199L54.8327 32.9496C54.0709 32.1879 52.8673 32.0687 51.971 32.6662L49.6462 34.2161C49.1776 33.9832 48.6928 33.7822 48.1962 33.6154L47.6484 30.8759C47.4371 29.8195 46.5018 29.0527 45.4245 29.0527H43.6279C42.5507 29.0527 41.6154 29.8195 41.4041 30.8759L40.8562 33.6154C40.3597 33.7823 39.8749 33.9833 39.4062 34.2161L37.0815 32.6662C36.185 32.0688 34.9815 32.1877 34.2198 32.9496L32.9495 34.2199C32.1876 34.9817 32.0686 36.1852 32.6661 37.0816L34.216 39.4064C33.8956 40.0507 33.6361 40.7254 33.442 41.4193C33.301 41.9232 33.5953 42.4459 34.0991 42.587C34.603 42.7279 35.1256 42.4338 35.2667 41.9299C35.473 41.1925 35.7678 40.4812 36.1428 39.8155C36.3179 39.5046 36.3035 39.1217 36.1057 38.825L34.2427 36.0307C34.1444 35.8831 34.164 35.6851 34.2894 35.5597L35.5597 34.2894C35.6851 34.1641 35.8831 34.1446 36.0307 34.2427L38.825 36.1057C39.1217 36.3036 39.5046 36.3179 39.8155 36.1428C40.4813 35.7678 41.1925 35.473 41.9299 35.2667C42.2734 35.1706 42.5336 34.89 42.6035 34.5402L43.262 31.2475C43.2966 31.0737 43.4506 30.9475 43.6279 30.9475H45.4245C45.6017 30.9475 45.7557 31.0737 45.7905 31.2475L46.449 34.5404C46.5189 34.8902 46.7793 35.1709 47.1226 35.267C47.8599 35.4732 48.5712 35.768 49.237 36.143C49.5478 36.3181 49.9307 36.3037 50.2275 36.1059L53.0218 34.243C53.1693 34.1446 53.3674 34.1641 53.4928 34.2896L54.7631 35.5599C54.8884 35.6853 54.9079 35.8834 54.8097 36.0309L52.9468 38.8252C52.7489 39.1221 52.7345 39.5048 52.9096 39.8157C53.2846 40.4816 53.5795 41.1928 53.7857 41.9301C53.8818 42.2736 54.1625 42.5339 54.5123 42.6037L57.8049 43.2622C57.9787 43.2969 58.1049 43.4509 58.1049 43.6282V45.4248C58.1049 45.602 57.9787 45.7559 57.8049 45.7907L54.5121 46.4492C54.1623 46.5192 53.8816 46.7796 53.7855 47.1228C53.5793 47.8602 53.2844 48.5715 52.9094 49.2372C52.7343 49.5481 52.7487 49.931 52.9466 50.2277L54.8095 53.022C54.9078 53.1696 54.8882 53.3676 54.7628 53.493L53.4925 54.7633C53.3673 54.8887 53.1692 54.9082 53.0216 54.81L50.2272 52.947C49.9305 52.7492 49.5475 52.7348 49.2368 52.9099C48.5709 53.2849 47.8597 53.5797 47.1223 53.786C46.7789 53.8821 46.5186 54.1627 46.4487 54.5125L45.7903 57.8052C45.7556 57.9789 45.6016 58.1052 45.4243 58.1052H43.6277C43.4505 58.1052 43.2965 57.9789 43.2617 57.8052L42.6032 54.5123C42.5333 54.1625 42.2729 53.8818 41.9296 53.7857C41.1923 53.5795 40.481 53.2846 39.8152 52.9096C39.5043 52.7346 39.1214 52.749 38.8248 52.9468L36.0304 54.8097C35.8829 54.908 35.6848 54.8886 35.5595 54.7631L34.2891 53.4928C34.1639 53.3674 34.1443 53.1693 34.2425 53.0218L36.1054 50.2275C36.3034 49.9306 36.3178 49.5479 36.1426 49.237C35.7676 48.5711 35.4727 47.8599 35.2665 47.1226C35.1704 46.7791 34.8897 46.5188 34.5399 46.449L31.2473 45.7905C31.0735 45.7558 30.9473 45.6018 30.9473 45.4245V43.6279C30.9473 43.4507 31.0735 43.2968 31.2473 43.262L31.4489 43.2216C31.9619 43.119 32.2947 42.6199 32.192 42.1068C32.0893 41.5938 31.5908 41.2616 31.077 41.3638L30.8755 41.4041C29.8193 41.6155 29.0525 42.5507 29.0525 43.628V45.4246C29.0525 46.5018 29.8193 47.4372 30.8757 47.6485L33.6152 48.1964C33.7821 48.6929 33.983 49.1777 34.2159 49.6463L32.666 51.9711C32.0683 52.8676 32.1875 54.0711 32.9493 54.8328L34.2196 56.1031C34.9815 56.865 36.185 56.984 37.0814 56.3865L39.4061 54.8366C39.8748 55.0695 40.3596 55.2705 40.8561 55.4373L41.4039 58.1768C41.6155 59.2332 42.5507 60 43.628 60H45.4246C46.5018 60 47.4372 59.2332 47.6485 58.1768L48.1964 55.4373C48.6929 55.2704 49.1777 55.0694 49.6463 54.8364L51.9711 56.3864C52.8676 56.9839 54.0711 56.8648 54.8328 56.103L56.1031 54.8327C56.865 54.0709 56.984 52.8673 56.3865 51.971L54.8366 49.6462C55.0695 49.1776 55.2705 48.6928 55.4373 48.1962L58.1768 47.6484C59.2331 47.4371 59.9998 46.5018 59.9998 45.4245V43.6279C60 42.5507 59.2332 41.6155 58.1768 41.4042Z" fill="#4A4F64"/>
<path d="M44.5263 41.1158C46.4069 41.1158 47.9368 42.6456 47.9368 44.5263C47.9368 45.0495 48.361 45.4736 48.8841 45.4736C49.4073 45.4736 49.8315 45.0494 49.8315 44.5263C49.8315 41.6009 47.4515 39.2209 44.5262 39.2209C41.6008 39.2209 39.2208 41.6009 39.2208 44.5263C39.2208 47.4516 41.6008 49.8316 44.5262 49.8316C45.711 49.8316 46.8318 49.4494 47.7674 48.7266C48.1815 48.4067 48.2578 47.8117 47.938 47.3976C47.618 46.9836 47.023 46.9072 46.6089 47.2271C46.008 47.6913 45.2878 47.9368 44.5262 47.9368C42.6455 47.9368 41.1156 46.4069 41.1156 44.5263C41.1158 42.6455 42.6457 41.1158 44.5263 41.1158Z" fill="#4A4F64"/>
<path d="M28.8246 23.0526C28.8246 19.87 26.2352 17.2808 23.0528 17.2808C19.8702 17.2808 17.2809 19.8701 17.2809 23.0526C17.2809 26.2352 19.8702 28.8244 23.0528 28.8244C26.2353 28.8244 28.8246 26.2351 28.8246 23.0526ZM19.1756 23.0526C19.1756 20.9149 20.915 19.1754 23.0528 19.1754C25.1905 19.1754 26.9299 20.9149 26.9299 23.0526C26.9299 25.1903 25.1906 26.9297 23.0528 26.9297C20.9148 26.9297 19.1756 25.1903 19.1756 23.0526Z" fill="#4A4F64"/>
</svg>
