<svg width="40" height="40" viewBox="0 0 40 40" fill="none" xmlns="http://www.w3.org/2000/svg">
<path d="M30 13.7987C29.2563 14.125 28.4637 14.3413 27.6375 14.4462C28.4875 13.9388 29.1362 13.1413 29.4412 12.18C28.6488 12.6525 27.7738 12.9863 26.8412 13.1725C26.0887 12.3713 25.0162 11.875 23.8462 11.875C21.5762 11.875 19.7487 13.7175 19.7487 15.9762C19.7487 16.3013 19.7763 16.6137 19.8438 16.9112C16.435 16.745 13.4187 15.1112 11.3925 12.6225C11.0387 13.2362 10.8313 13.9387 10.8313 14.695C10.8313 16.115 11.5625 17.3737 12.6525 18.1025C11.9938 18.09 11.3475 17.8988 10.8 17.5975C10.8 17.61 10.8 17.6262 10.8 17.6425C10.8 19.635 12.2212 21.29 14.085 21.6712C13.7513 21.7625 13.3875 21.8062 13.01 21.8062C12.7475 21.8062 12.4825 21.7913 12.2338 21.7362C12.765 23.36 14.2725 24.5537 16.065 24.5925C14.67 25.6837 12.8988 26.3412 10.9812 26.3412C10.645 26.3412 10.3225 26.3263 10 26.285C11.8162 27.4562 13.9688 28.125 16.29 28.125C23.835 28.125 27.96 21.875 27.96 16.4575C27.96 16.2763 27.9538 16.1012 27.945 15.9275C28.7587 15.35 29.4425 14.6287 30 13.7987Z" fill="#242735"/>
<path d="M40 20C40 31.0457 31.0457 40 20 40C8.9543 40 0 31.0457 0 20C0 8.9543 8.9543 0 20 0C31.0457 0 40 8.9543 40 20ZM1 20C1 30.4934 9.50659 39 20 39C30.4934 39 39 30.4934 39 20C39 9.50659 30.4934 1 20 1C9.50659 1 1 9.50659 1 20Z" fill="#242735"/>
</svg>
