<svg xmlns="http://www.w3.org/2000/svg" viewBox="0 0 409.66 409.66"><defs><style>.cls-1{fill:#364c73;}</style></defs><title>Ресурс 2</title><g id="Слой_2" data-name="Слой 2"><g id="Слой_1-2" data-name="Слой 1"><g id="Слой_2-2" data-name="Слой 2"><g id="Слой_1-2-2" data-name="Слой 1-2"><g id="Слой_2-2-2" data-name="Слой 2-2"><g id="Слой_1-2-2-2" data-name="Слой 1-2-2"><path class="cls-1" d="M95.93,209.5c1.34-3,2.39-6.19,4.09-9,2.28-3.71,6-6,9.78-8q86-45.14,172.11-90.24C287,99.6,292.29,98,298.06,99c10.34,1.83,17,11.21,15.42,22.15-.86,5.78-2.59,11.45-4.13,17.11Q291.18,205.16,272.91,272a52.08,52.08,0,0,1-2.91,8.5c-3.64,7.75-11.67,10.17-19.53,6.78-13.64-5.88-27.47-11.34-41.22-17a1.06,1.06,0,0,0-.41-.06c-4.09,12.84-12.2,23.25-19.71,34-7.64,10.93-22.18,7.36-26.5-3.22-4.89-12-10.56-23.65-15.44-35.64-3-7.4-2.94-15,1.88-22.12a55.28,55.28,0,0,1-6.73-.53,64.59,64.59,0,0,1-10.24-2.63c-7.94-3-15.85-6.1-23.61-9.55-6.48-2.88-10.83-7.84-12.27-15,0-.18-.23-.34-.34-.51Zm161.15,64.44c.24-.72.44-1.24.58-1.77l40.69-149.34a16.93,16.93,0,0,0,.51-5.65,3.86,3.86,0,0,0-4.94-3.65,21.15,21.15,0,0,0-5.36,1.9q-86,45-171.94,90.15a18.8,18.8,0,0,0-4.44,3.21,4.43,4.43,0,0,0,.37,7,18.5,18.5,0,0,0,4.57,2.62c6.94,2.84,13.85,5.79,20.93,8.27,9.46,3.32,18.56,2.13,26.52-4.06,19-14.8,37.86-29.82,56.79-44.73l40.79-32.05a27.36,27.36,0,0,1,2.71-1.67l.38.5c-1.57,1.81-3.07,3.67-4.71,5.42q-37.08,39.73-74.17,79.43a26.25,26.25,0,0,0-2.19,2.6c-3.5,4.89-2.18,10.51,3.12,13.26,1.69.88,3.42,1.72,5.18,2.43,10.44,4.2,20.91,8.33,31.34,12.54,11,4.48,22,9,33.28,13.59ZM176.71,296.3a28.64,28.64,0,0,0,1.83-2.24q7-10.88,14-21.79a12,12,0,0,0,.9-1.91,4.26,4.26,0,0,0-1.36-5.32,17.64,17.64,0,0,0-2.8-1.91c-4.1-2.22-8.21-4.43-12.36-6.56-3.71-1.9-7.38-3.93-11.24-5.46-3.35-1.32-5.54.45-5.6,4.06a10.06,10.06,0,0,0,.44,3.55c1.18,3.25,2.48,6.46,3.87,9.62C168.38,277.55,172.46,286.72,176.71,296.3Z"/><path class="cls-1" d="M204.83,19c102.63,0,185.83,83.2,185.83,185.83a185.83,185.83,0,0,1-54.43,131.4c-72.21,72.93-189.87,73.53-262.8,1.32S-.1,147.68,72.11,74.75l1.32-1.32A184.61,184.61,0,0,1,204.83,19m0-19C91.7,0,0,91.7,0,204.83S91.7,409.66,204.83,409.66,409.66,318,409.66,204.83,318,0,205,0Z"/></g></g></g></g></g></g></svg>