<!DOCTYPE svg PUBLIC "-//W3C//DTD SVG 20010904//EN" "http://www.w3.org/TR/2001/REC-SVG-20010904/DTD/svg10.dtd">
<svg version="1.0" xmlns="http://www.w3.org/2000/svg" width="512px" height="512px" viewBox="0 0 5120 5120" preserveAspectRatio="xMidYMid meet">
<g id="layer101" fill="#022670" stroke="none">
 <path d="M1340 4740 c-31 -15 -113 -89 -267 -243 -123 -122 -223 -226 -223 -232 0 -6 18 -29 41 -50 130 -126 112 -314 -38 -402 -40 -23 -59 -28 -118 -28 -83 0 -123 17 -196 83 l-51 45 -219 -219 c-250 -249 -269 -277 -269 -385 0 -38 7 -83 16 -105 11 -29 359 -382 1332 -1357 724 -725 1336 -1330 1359 -1344 59 -34 143 -41 214 -18 45 15 73 37 164 126 l111 108 159 -160 c88 -88 178 -170 200 -182 58 -31 173 -30 235 2 44 23 480 445 480 464 0 6 -21 32 -46 59 -56 60 -83 119 -84 179 0 141 112 254 251 253 70 -1 125 -28 192 -92 l48 -47 224 226 c156 157 231 240 245 270 27 60 27 168 0 223 -13 28 -444 465 -1352 1372 -1457 1455 -1348 1354 -1469 1354 -83 -1 -131 -28 -246 -143 l-103 -101 -162 160 c-90 89 -179 169 -198 179 -55 29 -174 31 -230 5z m302 -317 l158 -157 -60 -61 -60 -61 45 -44 c94 -92 116 -206 60 -308 -46 -85 -123 -131 -220 -131 -65 -1 -122 26 -185 85 l-51 48 -225 -225 c-136 -136 -232 -240 -244 -264 -30 -62 -35 -123 -15 -191 l16 -59 1102 -1103 1102 -1102 -101 -100 c-81 -80 -107 -100 -130 -100 -25 0 -202 174 -1343 1314 -1192 1192 -1314 1317 -1314 1346 0 27 20 52 160 192 l161 161 43 -21 c71 -34 133 -45 217 -39 101 7 139 19 214 70 111 74 175 185 185 322 6 77 -14 176 -46 231 l-19 32 162 161 c145 144 166 161 196 161 30 0 51 -17 192 -157z m1980 -1260 c714 -714 1304 -1311 1312 -1327 10 -20 11 -37 5 -55 -5 -15 -78 -95 -162 -179 l-153 -153 -59 28 c-55 26 -70 28 -176 28 -113 0 -117 -1 -191 -37 -184 -91 -275 -292 -222 -493 8 -33 23 -74 34 -91 l18 -32 -162 -161 c-146 -145 -166 -161 -197 -161 -32 0 -115 81 -1332 1297 -714 714 -1305 1311 -1313 1327 -9 15 -13 38 -10 50 3 11 76 92 163 178 l158 158 65 -28 c57 -24 78 -27 170 -27 97 0 110 2 173 32 217 103 312 354 214 566 l-25 52 162 163 c147 148 164 162 196 162 33 0 104 -69 1332 -1297z"/>
 <path d="M2682 3360 c-31 -13 -92 -60 -92 -72 0 -9 -117 -269 -125 -276 -8 -9 -180 -42 -235 -46 -70 -6 -98 -17 -132 -52 -77 -82 -75 -187 4 -259 18 -17 72 -66 121 -110 58 -52 86 -84 82 -94 -2 -9 -7 -37 -10 -63 -3 -27 -7 -69 -10 -94 -3 -26 -10 -66 -16 -90 -14 -55 -7 -92 27 -144 65 -97 155 -93 329 15 28 17 71 41 97 54 l47 24 133 -66 c160 -78 197 -90 241 -75 50 17 95 66 114 125 16 52 16 54 -16 193 -18 77 -31 146 -29 154 2 8 53 66 113 130 139 148 156 190 115 281 -22 49 -68 82 -126 90 -21 3 -50 8 -64 10 -28 6 -111 15 -179 20 -53 4 -54 5 -123 140 -28 55 -64 119 -79 141 -42 61 -124 89 -187 64z m83 -273 c11 -18 27 -48 35 -67 7 -19 22 -47 32 -62 10 -14 18 -29 18 -33 0 -16 44 -66 69 -80 35 -18 68 -24 156 -30 96 -6 147 -15 143 -25 -2 -5 -44 -51 -95 -103 -119 -122 -125 -139 -95 -280 12 -56 23 -119 26 -139 l5 -38 -37 19 c-213 108 -266 122 -327 89 -16 -10 -67 -35 -112 -58 -45 -22 -85 -45 -88 -50 -13 -21 -26 -9 -21 18 6 26 9 48 21 162 4 30 8 57 10 60 2 3 -1 26 -7 50 -12 45 -67 107 -177 199 -29 24 -50 45 -47 48 3 3 20 7 38 9 18 2 53 8 78 14 25 5 64 12 88 15 80 9 146 58 166 123 14 44 86 192 93 192 5 -1 17 -15 28 -33z"/>
 <path d="M4037 2402 c-31 -32 -57 -62 -57 -68 0 -5 27 -36 60 -69 l60 -59 60 59 c33 33 60 64 60 70 0 10 -111 125 -121 125 -2 0 -30 -26 -62 -58z"/>
 <path d="M3797 2162 c-31 -32 -57 -62 -57 -68 0 -5 27 -36 60 -69 l60 -59 60 59 c33 33 60 64 60 70 0 10 -111 125 -121 125 -2 0 -30 -26 -62 -58z"/>
 <path d="M3557 1922 c-31 -32 -57 -62 -57 -68 0 -5 27 -36 60 -69 l60 -59 65 64 65 64 -62 63 c-34 35 -65 63 -68 63 -3 0 -31 -26 -63 -58z"/>
 <path d="M3317 1682 c-31 -32 -57 -62 -57 -68 0 -5 27 -36 60 -69 l60 -59 65 64 65 64 -62 63 c-34 35 -65 63 -68 63 -3 0 -31 -26 -63 -58z"/>
 <path d="M3077 1442 c-31 -32 -57 -62 -57 -68 0 -5 27 -36 60 -69 l60 -59 65 64 65 64 -62 63 c-34 35 -65 63 -68 63 -3 0 -31 -26 -63 -58z"/>
 </g>
<g id="layer102" fill="#dd6d00" stroke="none">
 <path d="M2682 3360 c-31 -13 -92 -60 -92 -72 0 -9 -117 -269 -125 -276 -8 -9 -180 -42 -235 -46 -70 -6 -98 -17 -132 -52 -77 -82 -75 -187 4 -259 18 -17 72 -66 121 -110 58 -52 86 -84 82 -94 -2 -9 -7 -37 -10 -63 -3 -27 -7 -69 -10 -94 -3 -26 -10 -66 -16 -90 -14 -55 -7 -92 27 -144 65 -97 155 -93 329 15 28 17 71 41 97 54 l47 24 133 -66 c160 -78 197 -90 241 -75 50 17 95 66 114 125 16 52 16 54 -16 193 -18 77 -31 146 -29 154 2 8 53 66 113 130 139 148 156 190 115 281 -22 49 -68 82 -126 90 -21 3 -50 8 -64 10 -28 6 -111 15 -179 20 -53 4 -54 5 -123 140 -28 55 -64 119 -79 141 -42 61 -124 89 -187 64z m83 -273 c11 -18 27 -48 35 -67 7 -19 22 -47 32 -62 10 -14 18 -29 18 -33 0 -16 44 -66 69 -80 35 -18 68 -24 156 -30 96 -6 147 -15 143 -25 -2 -5 -44 -51 -95 -103 -119 -122 -125 -139 -95 -280 12 -56 23 -119 26 -139 l5 -38 -37 19 c-213 108 -266 122 -327 89 -16 -10 -67 -35 -112 -58 -45 -22 -85 -45 -88 -50 -13 -21 -26 -9 -21 18 6 26 9 48 21 162 4 30 8 57 10 60 2 3 -1 26 -7 50 -12 45 -67 107 -177 199 -29 24 -50 45 -47 48 3 3 20 7 38 9 18 2 53 8 78 14 25 5 64 12 88 15 80 9 146 58 166 123 14 44 86 192 93 192 5 -1 17 -15 28 -33z"/>
 </g>

</svg>