<svg id="darkblue_pink" data-name="darkblue\pink" xmlns="http://www.w3.org/2000/svg" xmlns:xlink="http://www.w3.org/1999/xlink" viewBox="0 0 11347.55 2000">
  <defs>
    <style>
      .cls-1 {
        fill: #e31c79;
      }

      .cls-2 {
        fill: #fff;
      }

      .cls-3 {
        fill: none;
      }

      .cls-4 {
        fill: #01215a;
      }

      .cls-5 {
        fill: #031c3a;
      }

      .cls-6 {
        fill: url(#Безымянный_градиент_56);
      }

      .cls-7 {
        fill: #bf196d;
      }

      .cls-8 {
        fill: url(#Безымянный_градиент_54);
      }

      .cls-9 {
        fill: url(#Безымянный_градиент_48);
      }
    </style>
    <linearGradient id="Безымянный_градиент_56" data-name="Безымянный градиент 56" x1="6277.17" y1="282.18" x2="6294.87" y2="1444.12" gradientUnits="userSpaceOnUse">
      <stop offset="0" stop-opacity="0"/>
      <stop offset="0.31" stop-color="#202020" stop-opacity="0.02"/>
      <stop offset="0.67" stop-color="#7d7d7d" stop-opacity="0.07"/>
      <stop offset="1" stop-color="#fff" stop-opacity="0.15"/>
    </linearGradient>
    <linearGradient id="Безымянный_градиент_54" data-name="Безымянный градиент 54" x1="7868.17" y1="-8769.25" x2="7877.58" y2="-8151.16" gradientTransform="translate(8311.48 -10282.57) rotate(132.01)" gradientUnits="userSpaceOnUse">
      <stop offset="0" stop-opacity="0"/>
      <stop offset="1" stop-color="#fff" stop-opacity="0.2"/>
    </linearGradient>
    <linearGradient id="Безымянный_градиент_48" data-name="Безымянный градиент 48" x1="2095.96" y1="-6862.85" x2="2103.56" y2="-6363.3" gradientTransform="translate(9502.17 3144.31) rotate(-89.57)" gradientUnits="userSpaceOnUse">
      <stop offset="0" stop-opacity="0"/>
      <stop offset="0.15" stop-color="#434343" stop-opacity="0.05"/>
      <stop offset="0.44" stop-color="#ababab" stop-opacity="0.13"/>
      <stop offset="0.73" stop-color="#eaeaea" stop-opacity="0.18"/>
      <stop offset="1" stop-color="#fff" stop-opacity="0.2"/>
    </linearGradient>
  </defs>
  <title>flyingo_logo_text_dark_blue</title>
  <g>
    <g>
      <path class="cls-1" d="M386.62,724.28C411,761.7,451.53,788.05,499,791.92a147.23,147.23,0,0,0,82.78-17.66c41.6-22.72,71.82-64.8,77.09-114.9l.4-3.53a148.67,148.67,0,0,0-296.36-24.18c-.09,1.12-.15,2.23-.17,3.35A147.42,147.42,0,0,0,386.62,724.28Z"/>
      <g>
        <path class="cls-2" d="M1436.09,547.46c-20.15-6.5-40.69-29.59-62.66-31.11-4.71-.33-8.34,4.23-7.59,8.89,1.39,8.69,3.15,10,10.17,17.89,5.08,5.73,9.16,12.35,13.52,19a8.07,8.07,0,0,0,9.53,3.21c13.82-5.29,25.21-4.58,37.65-12.27A3.13,3.13,0,0,0,1436.09,547.46Z"/>
        <path class="cls-2" d="M1460.48,654.4c-3.59,4.38-.07,12.31.18,17.23.28,5.68-8.53,2.36-8.25,8-7-1.92-13.11,2.92-21.24.69a3.93,3.93,0,0,0-4.89,4.46c1.21,6.38,2.21,10.25,1.69,13.9-.55,3.94-2.79,7.65-5.24,12.6a3.93,3.93,0,0,0,1.69,5.1l20.27,11.16a3.89,3.89,0,0,0,5.09-1.34c4-6,5.83-1.37,12.64-11.55.77,3.36,5.46,2,4.16,4.26-2.62,4.51-2.38,10.13-4.16,15-1.91,5.25-4,10.5-5,16-.64,3.23-1.82,7.51-.4,10.69a3.87,3.87,0,0,0,1.44,1.79c2.5,1.59,6.5-.88,9.6-.78,3.41.11,5.89,3.47,8.92,5s6.15.76,9.41.47a57,57,0,0,0,13.85-3.68c5.57-2.7,10.23-7.22,11-10.81,2.15-10.25-9.43-12-14.43-20.75-9.8-17.22-14.62-32.3-10.2-51.91,1.19-5.28.19-10.57-1.13-15.72-.65-2.54-1.39-5-1.92-7.62-.42-2,.44-5.35-1.22-6.91-3-2.75-7.81.75-10.94,1.41C1467.66,651.93,1463.17,651.12,1460.48,654.4Z"/>
        <path class="cls-2" d="M1076,352.46c18.67-1.41,25,7.8,47.76,1.05,3.71-1.09,6,1.29,12.55-4.66,4.57-5.88,3.52-11.74,2.08-16.88,0-2.6-3.2-16.81-5-26.9a13.78,13.78,0,0,0-10.9-11.09c-4.84-.94-9.69-1.85-14.56-2.69-8.12-1.42-20.63,11.84-22,14.32-6,10.75-10.61,23-16.42,35.56C1067.09,346.31,1070.87,352.84,1076,352.46Z"/>
        <path class="cls-2" d="M1559.81,569a15.45,15.45,0,0,0-10.24-6.1c-4.81-.68-11.17-.63-15.67,3-11.73,6.11-5.05,21.78,0,35.58,1.13,3.09,10.44,19.7,11.25,22.55,6.31,22.13-5.44,31.4-20.9,49.15a4.48,4.48,0,0,0,1,6.74c10,6.56,11.69,22.07,10.56,35.81a6.4,6.4,0,0,0,5.54,6.79l13,1.82a6.77,6.77,0,0,1,5.91,6.11c2.56,39.67-31.9,78.4-71.52,80.76-3.46.21-6.59-1.44-9.71-2.94-6.29-3-16.59,3.41-17.53,11.57-1.13,9.8,5.06,18.7,9,27.72a31.19,31.19,0,0,1,2.74,15.92c-.5,4.22-2.32,8.61-4,12.54a49.17,49.17,0,0,1-2.63,5.23c-.81,1.43-1.58,2.88-2.4,4.31a4.29,4.29,0,0,1-2.84,2.36c-3.07.65-4.27-1.44-5.49-2.73a144.7,144.7,0,0,0-11.34-10.08q-6.32-5.4-12.64-10.79c-.58-.5-4-3.38-7.37-6.2a8.35,8.35,0,0,0-12.16,1.55c-9.26,12.8-17.87,26.21-21.68,41.45-4.08,16.36-1.27,35.53,10.3,47.34a12.08,12.08,0,0,1,2.1,13.51c-3.71,7.64-11.78,13.6-20,16.95-3.58,1.47-7.28,2.66-11,3.8-8.16,2.52-16.38,4.83-23.44,9.52-5.89,3.91-10.65,9.27-16.07,13.81-7.84,6.57-17,11.35-26,16.09l-85.84,44.82a14.16,14.16,0,0,0-5.15,20.52l10,14.67c-29.23,16.53-47.6,48.7-52.46,81.92-5,33.9,2.88,68.68,16.38,100.13a68.46,68.46,0,0,0,12.12,19.08c1.55,1.71,3.31,3.72,5.18,5.84,5.7,6.44,12.51,13.82,18.15,16.35,29.54,13.28,37.13,19.4,86.4,29.88-7.3,15.52,2,36.48,18.47,41.43a301.47,301.47,0,0,1-28.39,30.43c-12.12,11.32-22,24.92-27.33,40.63-8.91,26.32-23.54,50.71-44.28,69-10.57,9.34-22.51,17-34,25.15-46.84,33.32-90.32,73.83-153.51,107.09-10.86,5.72-9.75,16.39-.08,19.22h-.1a94.88,94.88,0,0,0,27.06,8.63,118.17,118.17,0,0,0,39.31-.36C1444.49,1639.16,1701,1346,1701,994A708.16,708.16,0,0,0,1559.81,569Zm29.07,215.36q3.48-20.21,6.94-40.42c.68-4,5.88-5.38,8.27-2.12,9.46,12.95,15.75,32,11.15,56.92A12.91,12.91,0,0,1,1602,809.28l-12.53-.62a9.84,9.84,0,0,1-8.26-5.25C1577.37,796.09,1569.3,786.88,1588.88,784.39Zm64.89,356.42q-2.12,8.81-4.28,17.61c-1.08,4.44-1.87,8.95-3,13.38-.7,2.67-1.8,6.65-5.32,6.67-3,0-6-1.59-8.68-2.67a58.38,58.38,0,0,1-17.77-11.23c-7.35-6.71-12.84-15.08-18.28-23.33-2.82-4.28-5.74-8.48-8.72-12.65-2-2.74-4.74-8.33-8.86-7.55-3.14.6-5.3,4.56-7.12,6.85-3.51,4.44-6.93,14.31-13.52,14.95-3.59.35-5.75-4.14-6.87-6.92-2.57-6.34-2.76-13.16-4.53-19.69-3.07-11.32-9.57-21.65-20.48-26.73-5.2-2.42-6.14-18.66-5.37-28.24,1.19-14.83,5.54-29.41,7.72-40-7.41-23.36-31.22-1.7-38.86-22.24s-27.62-4.13-41.77-7.48c-14.39-3.41-23.79-10.56-36.73-17.8a4.69,4.69,0,0,1-.08-8c18.54-11.35,34.87-2.8,50.81-3-8-29.65,23.58-22.51,31.23-34,15.37-23.12,29.73,5.25,43.73-2.4,2.48-1.35,5.59-.4,6.21,2.35,3.8,17,5.33,33.5,13.4,45.76,3,4.51,6.19,9,8.47,13.89a27.94,27.94,0,0,1,2.55,13.57,47.57,47.57,0,0,1-1,6.83c-.28,1.33-.59,2.65-.94,4a18.39,18.39,0,0,1-1,3.65,5.94,5.94,0,0,1-3.31,2.44,8.57,8.57,0,0,1-5.08.9,19.29,19.29,0,0,1-3.77-1.48c-2.38-1.08-5.52-2.62-8-1-3.66,2.3.84,6.56,1.91,9.06l3.78,8.78,3.9,9c1,2.31,1,5.6,2.87,7.55,2.83,3,4.77-1.14,6.2-3.36,1.6-2.46,3-5,4.69-7.45l8.68-12.9,8.91-13.24,4.91-7.3c.84-1.25,1.64-3.09,2.95-3.93,4.9-3.14,2.66,5.94,2.54,7.54-.3,4.1-1.06,8.17-1.17,12.28-.17,5.88-.25,11.76.14,17.63.39,5.68,1.24,11.31,2.18,16.91.87,5.18,1.17,10.44,2.21,15.59.29,1.43.66,4.54,2.33,5.12,5.72,2,18.45-21.69,23.54-13,2,3.38,1.12,7.44,1.4,11.15.47,6.07,2,12.22,3,18.2,1.29,7.16,1.66,15.18,4,22.09,1,3.48,3,2.59,6.06,2.19,2.82-.38,5.71-.47,8.55-.7,2.61-.22,8.75-2.51,10.3.45,1.17,2.23-.85,5.78-1.36,8C1656,1131.46,1654.89,1136.14,1653.77,1140.81Z"/>
        <path class="cls-2" d="M1195.55,503a12.3,12.3,0,0,0,14.84,2.6c5.65-3,11.49-6.09,17.37-9.1,18.78-9.6,35.39-30.82,58.8-16.1a13.11,13.11,0,0,0,11.37,1.46c17.39-6.42,33-1.42,49.17,9,4,2.55,5.67-.14,13.48-2.43,4.76-1.39-.35-9.76.28-14.69l6.28-.27a49.25,49.25,0,0,1,15.61,1.8c2.74.77,6,1.71,9.49,2.76,11.59,3.5,25.54,8.21,30.12,11.79,8.29,6.49,52.4-3.33,35.77-26.61-12.32-17.24-52.33-46.15-72.26-60-7-4.84-11.5-7.84-11.5-7.84a709.59,709.59,0,0,0-155.54-75.77c-17.4-4-7.63,4.43-10.91,11.18h0c-.84,1.56,1,9.61,2.43,10.6,5.09,4.29,8.09,2.26,12.87,6.3a12.3,12.3,0,0,1-.34,19.07l-.22.17a12.23,12.23,0,0,0-1.61,17.76l6.81,7.67c.19.22.19.28.17.44a.66.66,0,0,1-.53.08l-10.8-1.71c-5.65-.89-11.7,1.82-13.71,7.18-5,13.33-28.56,17.75-22.37,39,2.36,8.08-3.81,18.62-8.6,28a12.32,12.32,0,0,0,1.87,13.94Z"/>
      </g>
      <path class="cls-3" d="M1106.41,1728.29l3.34-.54Z"/>
      <path class="cls-3" d="M1140.21,1722.06l3.12-.66Z"/>
      <path class="cls-3" d="M1126.75,1724.73l3.22-.62Z"/>
      <path class="cls-3" d="M1113.22,1727.16l3.28-.56Z"/>
      <path class="cls-3" d="M1120,1726l3.24-.59Z"/>
      <path class="cls-3" d="M1146.91,1720.64l3.07-.67Z"/>
      <path class="cls-3" d="M1153.59,1719.16l3-.69Z"/>
      <path class="cls-3" d="M1180.08,1712.68l2.71-.73Z"/>
      <path class="cls-3" d="M1173.5,1714.38l2.78-.72Z"/>
      <path class="cls-3" d="M1160.24,1717.62l3-.7Z"/>
      <path class="cls-3" d="M1166.87,1716l2.88-.71Z"/>
      <path class="cls-3" d="M1099.59,1729.36l3.37-.52Z"/>
      <path class="cls-3" d="M1043.94,1735.82l4.1-.33Z"/>
      <path class="cls-3" d="M1186.64,1710.91l2.59-.71Z"/>
      <path class="cls-3" d="M1036.5,1736.38l4.59-.33Z"/>
      <path class="cls-3" d="M1058.12,1734.56l3.76-.38Z"/>
      <path class="cls-3" d="M1027.15,1737c2.33-.14,4.66-.28,7-.44C1031.81,1736.71,1029.48,1736.85,1027.15,1737Z"/>
      <path class="cls-3" d="M1051.06,1735.22l3.91-.35Z"/>
      <path class="cls-3" d="M1092.75,1730.38l3.41-.5Z"/>
      <path class="cls-3" d="M1085.87,1731.33l3.47-.47Z"/>
      <path class="cls-3" d="M1079,1732.23l3.53-.45Z"/>
      <path class="cls-3" d="M1072,1733.06c1.21-.14,2.41-.27,3.61-.42C1074.45,1732.79,1073.25,1732.92,1072,1733.06Z"/>
      <path class="cls-3" d="M1065.1,1733.84l3.67-.4Z"/>
      <path class="cls-3" d="M1133.49,1723.42l3.17-.63Z"/>
      <path class="cls-3" d="M1449.78,726.24c4-6,5.83-1.37,12.64-11.55.77,3.36,5.46,2,4.16,4.26-2.62,4.51-2.38,10.13-4.16,15-1.91,5.25-4,10.5-5,16-.64,3.23-1.82,7.51-.4,10.69a3.87,3.87,0,0,0,1.44,1.79c2.5,1.59,6.5-.88,9.6-.78,3.41.11,5.89,3.47,8.92,5s6.15.76,9.41.47a57,57,0,0,0,13.85-3.68c5.57-2.7,10.23-7.22,11-10.81,2.15-10.25-9.43-12-14.43-20.75-9.8-17.22-14.62-32.3-10.2-51.91,1.19-5.28.19-10.57-1.13-15.72-.65-2.54-1.39-5-1.92-7.62-.42-2,.44-5.35-1.22-6.91-3-2.75-7.81.75-10.94,1.41-3.68.78-8.17,0-10.86,3.25-3.59,4.38-.07,12.31.18,17.23.28,5.68-8.53,2.36-8.25,8-7-1.92-13.11,2.92-21.24.69a3.93,3.93,0,0,0-4.89,4.46c1.21,6.38,2.21,10.25,1.69,13.9-.55,3.94-2.79,7.65-5.24,12.6a3.93,3.93,0,0,0,1.69,5.1l20.27,11.16A3.89,3.89,0,0,0,1449.78,726.24Z"/>
      <path class="cls-3" d="M1206.19,1705.29l1.85-.57Z"/>
      <path class="cls-3" d="M1238,1694.94h0l-.22.08Z"/>
      <path class="cls-3" d="M1212.66,1703.31l1.1-.35Z"/>
      <path class="cls-3" d="M1199.7,1707.22l2.21-.65Z"/>
      <path class="cls-3" d="M1533.9,565.88c-11.73,6.11-5.05,21.78,0,35.58,1.13,3.09,10.44,19.7,11.25,22.55,6.31,22.13-5.44,31.4-20.9,49.15a4.48,4.48,0,0,0,1,6.74c10,6.56,11.69,22.07,10.56,35.81a6.4,6.4,0,0,0,5.54,6.79l13,1.82a6.77,6.77,0,0,1,5.91,6.11c2.56,39.67-31.9,78.4-71.52,80.76-3.46.21-6.59-1.44-9.71-2.94-6.29-3-16.59,3.41-17.53,11.57-1.13,9.8,5.06,18.7,9,27.72a31.19,31.19,0,0,1,2.74,15.92c-.5,4.22-2.32,8.61-4,12.54a49.17,49.17,0,0,1-2.63,5.23c-.81,1.43-1.58,2.88-2.4,4.31a4.29,4.29,0,0,1-2.84,2.36c-3.07.65-4.27-1.44-5.49-2.73a144.7,144.7,0,0,0-11.34-10.08q-6.32-5.4-12.64-10.79c-.58-.5-4-3.38-7.37-6.2a8.35,8.35,0,0,0-12.16,1.55c-9.26,12.8-17.87,26.21-21.68,41.45-4.08,16.36-1.27,35.53,10.3,47.34a12.08,12.08,0,0,1,2.1,13.51c-3.71,7.64-11.78,13.6-20,16.95-3.58,1.47-7.28,2.66-11,3.8-8.16,2.52-16.38,4.83-23.44,9.52-5.89,3.91-10.65,9.27-16.07,13.81-7.84,6.57-17,11.35-26,16.09l-85.84,44.82a14.16,14.16,0,0,0-5.15,20.52l10,14.67c-29.23,16.53-47.6,48.7-52.46,81.92-5,33.9,2.88,68.68,16.38,100.13a68.46,68.46,0,0,0,12.12,19.08c1.55,1.71,3.31,3.72,5.18,5.84,5.7,6.44,12.51,13.82,18.15,16.35,29.54,13.28,37.13,19.4,86.4,29.88-7.3,15.52,2,36.48,18.47,41.43a301.47,301.47,0,0,1-28.39,30.43c-12.12,11.32-22,24.92-27.33,40.63-8.91,26.32-23.54,50.71-44.28,69-10.57,9.34-22.51,17-34,25.15-46.84,33.32-90.32,73.83-153.51,107.09-10.86,5.72-9.75,16.39-.08,19.22h-.1a94.88,94.88,0,0,0,27.06,8.63,118.17,118.17,0,0,0,39.31-.36C1444.49,1639.16,1701,1346,1701,994a708.16,708.16,0,0,0-141.15-425,15.45,15.45,0,0,0-10.24-6.1C1544.76,562.25,1538.4,562.3,1533.9,565.88Z"/>
      <path class="cls-3" d="M1193.18,1709.1l2.44-.7Z"/>
      <g>
        <path class="cls-4" d="M1245.57,1390.3c-.36-2.25-18.35-14.32-21.21-14.55-12.65-1-20.35-3.34-27.85-12.89-15.12-1.65-26.5-21-34.49-27.06a383.25,383.25,0,0,1-61.49,24.65l-3.52.22-5.89,2.5a382.78,382.78,0,0,1-470.49-264,180.38,180.38,0,0,0-223-123.83c-95.64,27.36-151.19,127.42-123.83,223,49.38,172.79,157,318.87,305.84,416.63q23.28,15.29,47.9,29c113.91,63.37,239.51,95.13,366.37,94.12a16.54,16.54,0,0,1-2.16-.61L982,1734c-5.61-1.8-8-4.3-12.26-7.62-12.14-10.64-13.58-24-15.43-37.1-1.87-13.26,5.26-21.79,15-30.94,3.72-3.48,16-11.48,27.09-18.35,14.79-9.18,33.36-21.43,44.62-29.65,25.45-18.59,36.93-28,60.69-43,31.34-19.74,43.49-33.3,68.7-46.67,5-2.65,10.08-5.35,15.16-8.19,5-10.09,11.28-19.06,17-27.27,11.65-16.69,18.75-27.57,18-40.52a35.78,35.78,0,0,1,11.67-28.71c4.48-4.06,19.06-9.51,22.48-13.26C1248.89,1401.94,1246.71,1397.56,1245.57,1390.3Z"/>
        <path class="cls-4" d="M1493.52,448.25c.09.38,8.77,41.05-27.08,62.14-4.71,2.77-26,1.63-26,1.63,14.66,6.25,27.58,16.29,26.41,32.18l1.45,6.33a23.88,23.88,0,0,1-8.94,24.6c-6.65,4.89-15.1,8.62-21.67,11.36l-3.43,1.44c-6.44,4.45-14.24,7.91-20.4,10.48L1388.67,609l-4,1.65a35.76,35.76,0,0,1-42.51-11.71c-2.12-2.86-4.14-5.75-6.13-8.61a107.37,107.37,0,0,0-9-11.91l-1.65-1.72c-13.86-14.46-16.85-22.68-19.94-43.45a35.74,35.74,0,0,1,.89-14.06c-5.24-2.67-8.39-3.34-10.09-3.28-.52,0-2.11.07-5.15,1.75a35.75,35.75,0,0,1-31.44,1.49l-8.45.77h0c-5.87,3.26-11.68,6.61-17.3,9.84l-7.62,4.37a35.44,35.44,0,0,1-9.64,3.77l-6.57,3.78-7.62,4.37a35.77,35.77,0,0,1-43.31-6.07L1143.59,524l-19.28-19.75a35.21,35.21,0,0,1-8.8-34.83,120.25,120.25,0,0,1,6.79-16.28c.83-1.74,1.94-4.05,2.75-5.93-6.28-29.69,12.48-48.34,21.37-56.47a19.13,19.13,0,0,1,.8-8.39c-1.72,3.33-4.09,5.87-7.61,6.07-15.57,3.9-47.88,10.67-63.86,9-5.72-.61-11.79-.71-17.43-1.87-16.2-3.32-34.5-15.58-43.37-29.53-7.52-11.83-8-40.44,1.42-60.14,0,0,19-34.1,24.39-43.24,3.5-5.92,15.43-9.19,20.18-9.22q-31.57-3.09-63.71-3.47c-18.27-.19-33.46.1-47.8.9L938.79,252c-58.86,10.23-89.2,43.83-110.95,75.58l-2.46,3.48c-53.67,81.69-28.47,197.05,55,251.91a175.72,175.72,0,0,0,37.8,18.82c18.13,6.44,38.41,9.33,61.91,8.82,4.39-.09,8.78-.11,13.23-.06,158.29,1.59,300.3,102.92,355.05,249.81,4.72-9,10.53-18.72,17.66-30.12a36,36,0,0,1,25-16.47,36.74,36.74,0,0,1,5.52-.42,35.6,35.6,0,0,1,5.47.42,35.73,35.73,0,0,1,7.21-19.83,64.06,64.06,0,0,1-1-8.91l-17.64-8.24c-16.78-7.84-25-28.38-18.38-45.69.81-2.11,1.62-4.06,2.4-5.88-.71-2.69-3.71-6-2.32-9.49,9.28-23.57-6.24-33.58-6.24-45.74,0-24.72,5.38-29.51,16.64-24.51a23.65,23.65,0,0,0,10.83,1.79c2.35-3.73,5.87-4.32,10.59-2.73a21.29,21.29,0,0,0,6.16-4.42c7.23-7.65,15-15.61,25.07-18.35l18.84-4.44c1.71-.46,9.79-.37,15.87,1.87l8-1.87c1.76-.48,10.19-.37,16.32,2,0-.23.09-.45.13-.66-11.37-15.67-29-57,1.85-85.63,0,0,13.12-52.2,32.11-50.48Q1511.56,464.85,1493.52,448.25Z"/>
      </g>
      <g>
        <path class="cls-4" d="M1589.44,808.66l12.53.62a12.91,12.91,0,0,0,13.27-10.51c4.6-24.88-1.69-44-11.15-56.92-2.39-3.26-7.59-1.86-8.27,2.12q-3.46,20.22-6.94,40.42c-19.58,2.49-11.51,11.7-7.7,19A9.84,9.84,0,0,0,1589.44,808.66Z"/>
        <path class="cls-4" d="M1543.21,928.6c-.62-2.75-3.73-3.7-6.21-2.35-14,7.65-28.36-20.72-43.73,2.4-7.65,11.5-39.26,4.36-31.23,34-15.94.23-32.27-8.32-50.81,3a4.69,4.69,0,0,0,.08,8c12.94,7.24,22.34,14.39,36.73,17.8,14.15,3.35,34.1-13.15,41.77,7.48s31.45-1.12,38.86,22.24c-2.18,10.59-6.53,25.17-7.72,40-.77,9.58.17,25.82,5.37,28.24,10.91,5.08,17.41,15.41,20.48,26.73,1.77,6.53,2,13.35,4.53,19.69,1.12,2.78,3.28,7.27,6.87,6.92,6.59-.64,10-10.51,13.52-14.95,1.82-2.29,4-6.25,7.12-6.85,4.12-.78,6.91,4.81,8.86,7.55,3,4.17,5.9,8.37,8.72,12.65,5.44,8.25,10.93,16.62,18.28,23.33a58.38,58.38,0,0,0,17.77,11.23c2.73,1.08,5.67,2.68,8.68,2.67,3.52,0,4.62-4,5.32-6.67,1.15-4.43,1.94-8.94,3-13.38q2.16-8.81,4.28-17.61c1.12-4.67,2.24-9.35,3.31-14,.51-2.19,2.53-5.74,1.36-8-1.55-3-7.69-.67-10.3-.45-2.84.23-5.73.32-8.55.7-3,.4-5.08,1.29-6.06-2.19-2.3-6.91-2.67-14.93-4-22.09-1.06-6-2.56-12.13-3-18.2-.28-3.71.57-7.77-1.4-11.15-5.09-8.7-17.82,15-23.54,13-1.67-.58-2-3.69-2.33-5.12-1-5.15-1.34-10.41-2.21-15.59-.94-5.6-1.79-11.23-2.18-16.91-.39-5.87-.31-11.75-.14-17.63.11-4.11.87-8.18,1.17-12.28.12-1.6,2.36-10.68-2.54-7.54-1.31.84-2.11,2.68-2.95,3.93l-4.91,7.3-8.91,13.24-8.68,12.9c-1.64,2.43-3.09,5-4.69,7.45-1.43,2.22-3.37,6.31-6.2,3.36-1.86-2-1.88-5.24-2.87-7.55l-3.9-9-3.78-8.78c-1.07-2.5-5.57-6.76-1.91-9.06,2.5-1.58,5.64,0,8,1a19.29,19.29,0,0,0,3.77,1.48,8.57,8.57,0,0,0,5.08-.9,5.94,5.94,0,0,0,3.31-2.44,18.39,18.39,0,0,0,1-3.65c.35-1.32.66-2.64.94-4a47.57,47.57,0,0,0,1-6.83,27.94,27.94,0,0,0-2.55-13.57c-2.28-4.92-5.5-9.38-8.47-13.89C1548.54,962.1,1547,945.56,1543.21,928.6Z"/>
        <path class="cls-4" d="M1178.54,310.1l-.87,1.65a35.76,35.76,0,0,0,4.7,40.11,36.4,36.4,0,0,0-2.14,5.35c-.5.51-1,1.05-1.47,1.6a35.81,35.81,0,0,0-8.51,20c-8.88,8.14-27.65,26.79-21.36,56.47-.82,1.88-1.92,4.19-2.76,5.94a120.46,120.46,0,0,0-6.79,16.28,35.26,35.26,0,0,0,8.8,34.83l19.28,19.74L1183,528a35.8,35.8,0,0,0,43.31,6.07l7.62-4.37c5.62-3.23,11.43-6.58,17.3-9.84h0a159.74,159.74,0,0,0,17-11.3l15.3-1.38a35.8,35.8,0,0,0,31.44-1.5c3-1.67,4.63-1.73,5.15-1.75,1.71-.05,4.85.62,10.1,3.29a35.49,35.49,0,0,0-.89,14c3.08,20.77,6.07,29,19.93,43.45l1.65,1.73c2.74,2.87,5.65,7.06,9,11.9,2,2.86,4,5.75,6.13,8.61a35.71,35.71,0,0,0,42.51,11.71l4-1.65,21.81-9.11,3.43-1.44c6.57-2.74,15-6.47,21.67-11.36a23.88,23.88,0,0,0,8.94-24.6l-1.45-6.33c1.17-15.89-11.75-25.93-26.41-32.18,0,0,21.24,1.14,26-1.63,35.85-21.09,27.17-61.76,27.08-62.14l-3.45-3.17c-17.07-15.67-35-30.39-53.5-44.34-26.2-20.18-39.9-28.13-39.9-28.13l-1.09-.72-1.18-.76q-30.68-20-63.23-37c-.3-.15-.59-.31-.88-.47-33.9-17.81-69.67-32.83-105.68-45.52a36.23,36.23,0,0,0-5.94-1.52l-.29-.05a35.21,35.21,0,0,0-6.85-.44,35.77,35.77,0,0,0-30.46,19.13Zm258.17,243c-12.44,7.69-23.83,7-37.65,12.27a8.07,8.07,0,0,1-9.53-3.21c-4.36-6.69-8.44-13.31-13.52-19-7-7.9-8.78-9.2-10.17-17.89-.75-4.66,2.88-9.22,7.59-8.89,22,1.52,42.51,24.61,62.66,31.11A3.13,3.13,0,0,1,1436.71,553.11ZM1203,398.43c2-5.36,8.06-8.07,13.71-7.18l10.8,1.71a.66.66,0,0,0,.53-.08c0-.16,0-.22-.17-.44l-6.81-7.67a12.23,12.23,0,0,1,1.61-17.76l.22-.17a12.3,12.3,0,0,0,.34-19.07c-4.78-4-7.78-2-12.87-6.3-1.47-1-3.27-9-2.43-10.6h0c3.28-6.75-6.49-15.16,10.91-11.18a709.59,709.59,0,0,1,155.54,75.77s4.52,3,11.5,7.84c19.93,13.83,59.94,42.74,72.26,60,16.63,23.28-27.48,33.1-35.77,26.61-4.58-3.58-18.53-8.29-30.12-11.79-3.48-1-6.75-2-9.49-2.76a49.25,49.25,0,0,0-15.61-1.8l-6.28.27c-.63,4.93,4.48,13.3-.28,14.69-7.81,2.29-9.53,5-13.48,2.43-16.21-10.45-31.78-15.45-49.17-9a13.11,13.11,0,0,1-11.37-1.46c-23.41-14.72-40,6.5-58.8,16.1-5.88,3-11.72,6.1-17.37,9.1a12.3,12.3,0,0,1-14.84-2.6l-21.64-23.74a12.32,12.32,0,0,1-1.87-13.94c4.79-9.33,11-19.87,8.6-28C1174.45,416.18,1198,411.76,1203,398.43Z"/>
        <path class="cls-4" d="M1082.15,383.62c5.64,1.15,11.71,1.25,17.43,1.86,16,1.71,32-3.67,47.6-7.57a6.62,6.62,0,0,0,1.64-.3l.41-.14c6.68-2.58,7.77-15.61,9.87-21,4.64-11.92,12.08-18.88,11.35-32.88l-.07-1.37a66.49,66.49,0,0,0-2.39-16.06c-.7-2.39-1.46-4.78-2.29-7.15,5.72-11.87,12.82-23.71,20.59-22.17l.11,0q-26.3-7.32-53.24-12.73c-.72-.17-1.44-.31-2.19-.44l-.63-.12q-8.21-1.6-16.47-3l-.8-.15-.91-.15-10.68-1.73-.72-.12-.57-.08a36.77,36.77,0,0,0-32.34,11.16,36.16,36.16,0,0,0-5,6.79l-13.47,23.64-5.82,10.21c-6.76,11.86-12.27,32.12-4.76,43.95C1047.65,368,1066,380.3,1082.15,383.62Zm-12.69-42.45c5.81-12.58,10.44-24.81,16.42-35.56,1.37-2.48,13.88-15.74,22-14.32,4.87.84,9.72,1.75,14.56,2.69a13.78,13.78,0,0,1,10.9,11.09c1.84,10.09,5,24.3,5,26.9,1.44,5.14,2.49,11-2.08,16.88-6.55,5.95-8.84,3.57-12.55,4.66-22.8,6.75-29.09-2.46-47.76-1.05C1070.87,352.84,1067.09,346.31,1069.46,341.17Z"/>
        <path class="cls-4" d="M1705.78,793.79l-1.45-5.22A733.88,733.88,0,0,0,1609,583.09q-11.68-17.91-24.46-35.3a169,169,0,0,0-14.18-17.39l-.21-.25c-1.54-1.91-3.08-3.82-4.64-5.72l-.23-.28c-1-1.31-2.16-2.64-3.46-4.19l-1.54-1.82-1.11-1.34c-3.61-4.35-5.51-6.5-7.9-9.34-.25-.3-1.34-1.5-2.18-2.37a7.94,7.94,0,0,0-.71-.81h0c-.63-.38-2,.6-3,.92-2,.57-4,1.1-5.65,1.45a27.41,27.41,0,0,1-2.82.42,4.54,4.54,0,0,0-.66.05c-9.53,1.11-16,26-16,26-30.81,28.67-13.21,70-1.85,85.63a28.87,28.87,0,0,1-2.61,7.58c-2.91,5.87-6.33,11.83-9.89,17.93-.11-.07-.2-.17-.31-.24-5.67-3.42-7.82-7.9-5.29-13.9,2.32-5.53-1.06-8.83-5.86-10.71-6.13-2.41-14.56-2.52-16.32-2l-8,1.87-10.88,2.57c-10.08,2.74-17.83,10.7-25.07,18.35-6.47,6.85-19,9.18-27.57,5.36-.84-.37-1.64-.68-2.42-.94-4.72-1.59-8.24-1-10.59,2.73S1390,658.38,1390,670c0,12.16,15.52,22.17,6.24,45.74-1.38,3.52,1.62,6.8,2.33,9.49-.78,1.82-1.6,3.77-2.4,5.88-6.59,17.31,1.6,37.85,18.37,45.69l17.64,8.24a65.62,65.62,0,0,0,1,8.91,35.64,35.64,0,0,0-7.2,19.83,35.7,35.7,0,0,0-5.47-.42,36.64,36.64,0,0,0-5.52.42,36,36,0,0,0-25,16.47c-16.44,26.28-25.94,43.89-30.92,63-3.12,12-4.48,24.51-4.65,40.14a35.67,35.67,0,0,0,2.7,14c-27.67,3.29-40.32,24.16-46,33.5-.42.7-.9,1.49-1.37,2.24-30.87,6.15-55.74,21.81-79.82,37-12.51,7.88-24.32,15.32-36.57,21.17a35.78,35.78,0,0,0-13.91,52.89l1.59,2.26c-1.57,1.62-3.13,3.1-4.67,4.41-26.34,22.27-39.37,51.7-38.73,87.48.08,4.45.06,8.91,0,13.38,0,11.3-.07,23,1.18,35.3,1.45,14.2,7.43,25.26,11.79,33.33,1.07,2,2.42,4.47,3.2,6.19-2.8,11.23-.38,23.76,6.7,34,.4.57.77,1.19,1.15,1.8,2.64,4.26,6.71,10.79,13.65,16.43a46.43,46.43,0,0,0,6,4.19c1.12.65,2.23,1.32,3.33,2,8,4.86,19.8,26.16,35.71,27.9,7.49,9.55,15.19,11.87,27.85,12.89,2.85.23,20.84,12.3,21.2,14.55,1.15,7.26,3.33,11.64,9.15,12.47-3.42,3.75-18,9.2-22.48,13.26a35.79,35.79,0,0,0-11.68,28.71c.8,13-6.3,23.83-18,40.52-5.73,8.21-12,17.18-17,27.27-5.08,2.84-10.17,5.54-15.16,8.19-25.21,13.37-37.36,26.93-68.7,46.67-23.75,15-35.23,24.37-60.69,43-11.26,8.22-29.83,20.47-44.62,29.65-11.07,6.87-23.37,14.87-27.09,18.35-9.78,9.15-16.91,17.68-15,30.94,1.84,13.08,3.29,26.46,15.42,37.1,6.28,4.88,8.51,8,22.92,9.71l6.32,1.2a749.18,749.18,0,0,0,162.15-25.75l10.25-2.59,2-.87q20.67-6,40.71-13.15l-.22.07.22-.08q3.42-1.2,6.83-2.43c2-.72,4-1.45,6-2.19l.46-.18C1413,1630,1549.66,1516.25,1637,1363.46c64.9-113.59,96.71-240.3,96.26-367.23A740.76,740.76,0,0,0,1705.78,793.79Zm-281.36-77.37a3.93,3.93,0,0,1-1.69-5.1c2.45-5,4.69-8.66,5.24-12.6.52-3.65-.48-7.52-1.69-13.9a3.93,3.93,0,0,1,4.89-4.46c8.13,2.23,14.24-2.61,21.24-.69-.28-5.68,8.53-2.36,8.25-8-.25-4.92-3.77-12.85-.18-17.23,2.69-3.28,7.18-2.47,10.86-3.25,3.13-.66,8-4.16,10.94-1.41,1.66,1.56.8,4.91,1.22,6.91.53,2.57,1.27,5.08,1.92,7.62,1.32,5.15,2.32,10.44,1.13,15.72-4.42,19.61.4,34.69,10.2,51.91,5,8.79,16.58,10.5,14.43,20.75-.75,3.59-5.41,8.11-11,10.81a57,57,0,0,1-13.85,3.68c-3.26.29-6.48,1-9.41-.47s-5.51-4.89-8.92-5c-3.1-.1-7.1,2.37-9.6.78a3.87,3.87,0,0,1-1.44-1.79c-1.42-3.18-.24-7.46.4-10.69,1.08-5.51,3.13-10.76,5-16,1.78-4.88,1.54-10.5,4.16-15,1.3-2.24-3.39-.9-4.16-4.26-6.81,10.18-8.66,5.5-12.64,11.55a3.89,3.89,0,0,1-5.09,1.34ZM1108.61,1696.6a118.17,118.17,0,0,1-39.31.36,94.88,94.88,0,0,1-27.06-8.63h.1c-9.67-2.83-10.78-13.5.08-19.22,63.19-33.26,106.67-73.77,153.51-107.09,11.49-8.18,23.43-15.81,34-25.15,20.74-18.33,35.37-42.72,44.28-69,5.32-15.71,15.21-29.31,27.33-40.63a301.47,301.47,0,0,0,28.39-30.43c-16.43-5-25.77-25.91-18.47-41.43-49.27-10.48-56.86-16.6-86.4-29.88-5.64-2.53-12.45-9.91-18.15-16.35-1.87-2.12-3.63-4.13-5.18-5.84a68.46,68.46,0,0,1-12.12-19.08c-13.5-31.45-21.33-66.23-16.38-100.13,4.86-33.22,23.23-65.39,52.46-81.92l-10-14.67a14.16,14.16,0,0,1,5.15-20.52l85.84-44.82c9.07-4.74,18.21-9.52,26-16.09,5.42-4.54,10.18-9.9,16.07-13.81,7.06-4.69,15.28-7,23.44-9.52,3.72-1.14,7.42-2.33,11-3.8,8.18-3.35,16.25-9.31,20-16.95a12.08,12.08,0,0,0-2.1-13.51c-11.57-11.81-14.38-31-10.3-47.34,3.81-15.24,12.42-28.65,21.68-41.45a8.35,8.35,0,0,1,12.16-1.55c3.34,2.82,6.79,5.7,7.37,6.2q6.33,5.38,12.64,10.79A144.7,144.7,0,0,1,1456,885.17c1.22,1.29,2.42,3.38,5.49,2.73a4.29,4.29,0,0,0,2.84-2.36c.82-1.43,1.59-2.88,2.4-4.31a49.17,49.17,0,0,0,2.63-5.23c1.63-3.93,3.45-8.32,4-12.54a31.19,31.19,0,0,0-2.74-15.92c-4-9-10.17-17.92-9-27.72.94-8.16,11.24-14.57,17.53-11.57,3.12,1.5,6.25,3.15,9.71,2.94,39.62-2.36,74.08-41.09,71.52-80.76a6.77,6.77,0,0,0-5.91-6.11l-13-1.82a6.4,6.4,0,0,1-5.54-6.79c1.13-13.74-.56-29.25-10.56-35.81a4.48,4.48,0,0,1-1-6.74c15.46-17.75,27.21-27,20.9-49.15-.81-2.85-10.12-19.46-11.25-22.55-5.05-13.8-11.73-29.47,0-35.58,4.5-3.58,10.86-3.63,15.67-3a15.45,15.45,0,0,1,10.24,6.1A708.16,708.16,0,0,1,1701,994C1701,1346,1444.49,1639.16,1108.61,1696.6Z"/>
      </g>
      <g>
        <path class="cls-5" d="M1547.92,503.8c-.54-.6-1.47-1.64-2-2.28l-.28-.33c-9.63-11.35-17-18.56-17-18.56h-.09c-19-1.72-32.11,50.48-32.11,50.48-30.82,28.67-13.22,70-1.85,85.63,0,.21-.08.43-.13.66,4.8,1.88,8.18,5.18,5.86,10.71-2.53,6-.38,10.48,5.29,13.9.11.07.2.17.31.24,3.56-6.1,7-12.06,9.89-17.93a28.87,28.87,0,0,0,2.61-7.58c-11.36-15.67-29-57,1.85-85.63,0,0,6.44-24.89,16-26a4.54,4.54,0,0,1,.66-.05,27.41,27.41,0,0,0,2.82-.42c1.64-.35,3.67-.88,5.65-1.45,1-.32,2.39-1.3,3-.92h0Z"/>
        <path class="cls-5" d="M1454.25,617.36l-18.84,4.44c-10.09,2.74-17.84,10.7-25.07,18.35a21.29,21.29,0,0,1-6.16,4.42c.78.26,1.58.57,2.42.94,8.62,3.82,21.1,1.49,27.57-5.36,7.24-7.65,15-15.61,25.07-18.35l10.88-2.57C1464,617,1456,616.9,1454.25,617.36Z"/>
        <path class="cls-5" d="M1275.1,522a35.85,35.85,0,0,0,16-4.41c3-1.68,4.63-1.73,5.15-1.75,1.7-.06,4.85.61,10.09,3.28a35.74,35.74,0,0,0-.89,14.06c3.09,20.77,6.08,29,19.94,43.45l1.65,1.72a107.37,107.37,0,0,1,9,11.91c2,2.86,4,5.75,6.13,8.61a35.76,35.76,0,0,0,42.51,11.71l4-1.65,25.24-10.55c6.16-2.57,14-6,20.4-10.48L1412.5,597l-4,1.65A35.71,35.71,0,0,1,1366,587c-2.12-2.86-4.14-5.75-6.13-8.61-3.37-4.84-6.28-9-9-11.9l-1.65-1.73c-13.86-14.46-16.85-22.68-19.93-43.45a35.49,35.49,0,0,1,.89-14c-5.25-2.67-8.39-3.34-10.1-3.29-.52,0-2.11.08-5.15,1.75a35.8,35.8,0,0,1-31.44,1.5l-15.3,1.38a159.74,159.74,0,0,1-17,11.3l8.45-.77A35.69,35.69,0,0,0,1275.1,522Z"/>
        <path class="cls-5" d="M1058.32,395.53c5.64,1.16,11.71,1.26,17.43,1.87,16,1.71,48.29-5.06,63.86-9,3.52-.2,5.89-2.74,7.61-6.07a19.13,19.13,0,0,0-.8,8.39c-8.89,8.13-27.65,26.78-21.37,56.47-.81,1.88-1.92,4.19-2.75,5.93a120.25,120.25,0,0,0-6.79,16.28,35.21,35.21,0,0,0,8.8,34.83L1143.59,524,1159.14,540a35.77,35.77,0,0,0,43.31,6.07l7.62-4.37,6.57-3.78A35.61,35.61,0,0,1,1183,528l-15.55-15.93-19.28-19.74a35.26,35.26,0,0,1-8.8-34.83,120.46,120.46,0,0,1,6.79-16.28c.84-1.75,1.94-4.06,2.76-5.94-6.29-29.68,12.48-48.33,21.36-56.47a35.81,35.81,0,0,1,8.51-20c.48-.55,1-1.09,1.47-1.6a36.4,36.4,0,0,1,2.14-5.35,35.76,35.76,0,0,1-4.7-40.11l.87-1.65,2.53-4.84a35.77,35.77,0,0,1,30.46-19.13,35.21,35.21,0,0,1,6.85.44l.29.05c-.56-.17-1.11-.35-1.68-.51l-.18-.05c-7.18-2-14.35-4.39-20.24-6.27-4.21-1.34-7.75-2.42-10.17-2.91l-.11,0c-7.77-1.54-14.87,10.3-20.59,22.17.83,2.37,1.59,4.76,2.29,7.15a66.49,66.49,0,0,1,2.39,16.06l.07,1.37c.73,14-6.71,21-11.35,32.88-2.1,5.37-3.19,18.4-9.87,21l-.41.14a6.62,6.62,0,0,1-1.64.3c-15.56,3.9-31.62,9.28-47.6,7.57-5.72-.61-11.79-.71-17.43-1.86-16.2-3.32-34.5-15.59-43.37-29.54-7.51-11.83-2-32.09,4.76-43.95l5.82-10.21,13.47-23.64a36.16,36.16,0,0,1,5-6.79,36.77,36.77,0,0,1,32.34-11.16l.57.08c-6.53-1.11-14.82-2.19-22.47-3.09-4.48-.53-8.74-1-12.28-1.39l-1.16-.14a33.5,33.5,0,0,0-3.84-.39h-.07c-4.75,0-16.68,3.3-20.18,9.22-5.41,9.14-24.39,43.24-24.39,43.24-9.42,19.7-8.94,48.31-1.42,60.14C1023.82,380,1042.12,392.21,1058.32,395.53Z"/>
        <path class="cls-5" d="M1414.49,776.82c-16.77-7.84-25-28.38-18.37-45.69.8-2.11,1.62-4.06,2.4-5.88-.71-2.69-3.71-6-2.33-9.49,9.28-23.57-6.24-33.58-6.24-45.74,0-11.64,1.2-18.86,3.64-22.72a23.65,23.65,0,0,1-10.83-1.79c-11.26-5-16.64-.21-16.64,24.51,0,12.16,15.52,22.17,6.24,45.74-1.39,3.52,1.61,6.8,2.32,9.49-.78,1.82-1.59,3.77-2.4,5.88-6.59,17.31,1.6,37.85,18.38,45.69l17.64,8.24a64.06,64.06,0,0,0,1,8.91,35.73,35.73,0,0,0-7.21,19.83,35.6,35.6,0,0,0-5.47-.42,36.74,36.74,0,0,0-5.52.42,36,36,0,0,0-25,16.47c-7.13,11.4-12.94,21.16-17.66,30.12-13,24.65-17.58,43.24-17.9,73a35.84,35.84,0,0,0,2.69,14c-27.66,3.29-40.32,24.16-46,33.5-.42.7-.9,1.49-1.37,2.24-30.88,6.15-55.74,21.81-79.82,37-12.51,7.88-24.32,15.32-36.57,21.17a35.79,35.79,0,0,0-13.92,52.89l1.59,2.26c-1.57,1.62-3.12,3.1-4.67,4.41-26.33,22.27-39.36,51.7-38.73,87.48.08,4.45.07,8.91,0,13.38,0,11.3-.06,23,1.19,35.3,1.44,14.2,7.42,25.26,11.79,33.33,1.06,2,2.42,4.47,3.2,6.19-2.8,11.23-.38,23.76,6.7,34,.39.57.76,1.19,1.14,1.8,3.34,5.37,8.91,14.35,19.68,20.62,1.12.65,2.23,1.32,3.34,2a11.56,11.56,0,0,1,1.21.84c8,6.08,19.37,25.41,34.49,27.06,7.5,9.55,15.2,11.87,27.85,12.89,2.86.23,20.85,12.3,21.21,14.55,1.14,7.26,3.32,11.64,9.14,12.47-3.42,3.75-18,9.2-22.48,13.26a35.78,35.78,0,0,0-11.67,28.71c.8,13-6.3,23.83-18,40.52-5.74,8.21-12,17.18-17,27.27-5.08,2.84-10.17,5.54-15.16,8.19-25.21,13.37-37.36,26.93-68.7,46.67-23.76,15-35.24,24.37-60.69,43-11.26,8.22-29.83,20.47-44.62,29.65-11.07,6.87-23.37,14.87-27.09,18.35-9.78,9.15-16.91,17.68-15,30.94,1.85,13.08,3.29,26.46,15.43,37.1,4.26,3.32,6.65,5.82,12.26,7.62l9.73,3.47a16.54,16.54,0,0,0,2.16.61q14.46-.1,28.92-.79l-6.32-1.2c-14.41-1.71-16.64-4.83-22.92-9.71-12.13-10.64-13.58-24-15.42-37.1-1.88-13.26,5.25-21.79,15-30.94,3.72-3.48,16-11.48,27.09-18.35,14.79-9.18,33.36-21.43,44.62-29.65,25.46-18.59,36.94-28,60.69-43,31.34-19.74,43.49-33.3,68.7-46.67,5-2.65,10.08-5.35,15.16-8.19,5-10.09,11.29-19.06,17-27.27,11.65-16.69,18.75-27.57,18-40.52a35.79,35.79,0,0,1,11.68-28.71c4.47-4.06,19.06-9.51,22.48-13.26-5.82-.83-8-5.21-9.15-12.47-.36-2.25-18.35-14.32-21.2-14.55-12.66-1-20.36-3.34-27.85-12.89-15.91-1.74-27.68-23-35.71-27.9-1.1-.68-2.21-1.35-3.33-2a46.43,46.43,0,0,1-6-4.19c-6.94-5.64-11-12.17-13.65-16.43-.38-.61-.75-1.23-1.15-1.8-7.08-10.26-9.5-22.79-6.7-34-.78-1.72-2.13-4.22-3.2-6.19-4.36-8.07-10.34-19.13-11.79-33.33-1.25-12.31-1.21-24-1.18-35.3,0-4.47,0-8.93,0-13.38-.64-35.78,12.39-65.21,38.73-87.48,1.54-1.31,3.1-2.79,4.67-4.41l-1.59-2.26a35.78,35.78,0,0,1,13.91-52.89c12.25-5.85,24.06-13.29,36.57-21.17,24.08-15.16,49-30.82,79.82-37,.47-.75.95-1.54,1.37-2.24,5.67-9.34,18.32-30.21,46-33.5a35.67,35.67,0,0,1-2.7-14c.17-15.63,1.53-28.18,4.65-40.14,5-19.1,14.48-36.71,30.92-63a36,36,0,0,1,25-16.47,36.64,36.64,0,0,1,5.52-.42,35.7,35.7,0,0,1,5.47.42,35.64,35.64,0,0,1,7.2-19.83,65.62,65.62,0,0,1-1-8.91Z"/>
      </g>
    </g>
    <g>
      <path class="cls-4" d="M6288,252.72c-104.12,0-188.83,84.7-188.83,188.82V1541.7c0,.38,0,.77,0,1.15s0,.66,0,.94c0,104.11,84.71,188.82,188.83,188.82s188.81-84.71,188.81-188.82c0-.35,0-.71,0-1.06s0-.69,0-1V441.54C6476.83,337.42,6392.13,252.72,6288,252.72Z"/>
      <path class="cls-4" d="M3224.79,255a182,182,0,0,0-22.55,1.48H2472.38c-.07,0-.14,0-.22,0a188.77,188.77,0,0,0-18.87.94c-2.24.22-4.43.55-6.83,1-4,.51-7.93,1.09-12,1.91-2.57.52-5.09,1.17-8.49,2.09l-1.34.33c-2.74.66-5.47,1.36-8,2.14-3.15,1-6.23,2.1-9.28,3.27l-1.66.61c-2.18.76-4.33,1.55-6.59,2.5-3.7,1.56-7.28,3.31-11,5.21-1.82.83-3.61,1.71-5.35,2.65-4,2.14-7.78,4.48-11.43,6.81-1.45.85-2.85,1.73-3.89,2.44-4.22,2.82-8.28,5.83-12,8.82-.88.67-1.84,1.41-2.53,2-4,3.27-7.82,6.71-11.87,10.62-.47.45-.95.9-1.36,1.32C2305.3,345,2285.58,390,2283.76,438.86c-.13,1.64-.19,3.31-.19,5V1545.48c0,104.12,84.7,188.82,188.81,188.82s188.83-84.7,188.83-188.82V1184.22h437.13c104.12,0,188.82-84.7,188.82-188.82s-84.7-188.83-188.82-188.83H2661.21V634.14h544.61a62.15,62.15,0,0,0,13.93-1.56c1.69.06,3.37.08,5,.08,104.11,0,188.83-84.7,188.83-188.82S3328.9,255,3224.79,255Z"/>
      <path class="cls-4" d="M4476,1356.66H4013.58V445.32c0-104.12-84.7-188.83-188.81-188.83s-188.83,84.71-188.83,188.83V1545.48c0,104.12,84.71,188.82,188.84,188.82H4476c104.11,0,188.82-84.7,188.82-188.82S4580.12,1356.66,4476,1356.66Z"/>
      <path class="cls-4" d="M5717,256.48a189.43,189.43,0,0,0-149.74,74c-1,1.22-2,2.47-3,3.78L5206.74,826,4849.2,334.27c-.94-1.3-1.94-2.55-3-3.77a189.5,189.5,0,0,0-149.75-74c-104.11,0-188.83,84.71-188.83,188.83a187.26,187.26,0,0,0,33.44,107.06q1.24,2,2.67,4l474.16,652.16v324.42c0,2,.07,4,.19,6.38-.12,2-.19,4.08-.19,6.15,0,104.13,84.71,188.83,188.82,188.83s188.83-84.7,188.83-188.83c0-2-.07-3.87-.2-6.1.11-2.13.2-4.27.2-6.43V1208.52l474.15-652.18q1.4-1.94,2.64-3.93a187.37,187.37,0,0,0,33.45-107.1C5905.82,341.19,5821.12,256.48,5717,256.48Z"/>
      <path class="cls-4" d="M8053.34,808.47a628.57,628.57,0,0,0-40-148.75q-8.12-20-17.52-39.19t-20-37.61c-53-91.95-128.05-168.34-216.35-224.4q-17.65-11.22-36-21.34h0l-.18-.11h0c-6.13-3.39-12.29-6.64-18.46-9.81q-2.46-1.27-4.95-2.52c-2-1-3.94-1.93-5.91-2.89s-3.93-1.95-5.9-2.9c-3.89-1.85-7.78-3.71-11.7-5.5l-3.23-1.45A680.92,680.92,0,0,0,7547,269.71a672.06,672.06,0,0,0-133.41-16.84c-1,0-2-.06-3-.07-4.14-.09-8.29-.08-12.44-.08-2.07,0-4.14,0-6.21,0s-4.16,0-6.22,0c-1,0-2,0-3,.07a675.68,675.68,0,0,0-228.94,46.31q-15.48,6.06-30.64,12.85l-3.2,1.43c-3.93,1.79-7.82,3.66-11.72,5.52s-7.88,3.8-11.8,5.78l-2.52,1.28-2.44,1.24c-6.17,3.17-12.32,6.42-18.45,9.81h0l-.18.11h0q-18.33,10.11-36,21.34c-88.3,56.06-163.36,132.45-216.35,224.4q-10.59,18.39-20,37.61t-17.52,39.19c-29.76,73.27-46.4,154.24-46.44,241,0,.18,0,.35,0,.53,0,1.16,0,41.4.11,101.09,0,3.73,0,7.54,0,11.42,0,23.27.05,49.1.08,76.47,0,13.68,0,27.75.05,42.06.2,181.37.44,403.39.44,403.39-.33,4.52.07,28.47.07,28.47.46,5.67,1.2,11.26,2.17,16.77,0,.1,0,.2,0,.29s0,.2.05.3c.93,5.23,2.14,10.37,3.51,15.44.14.51.26,1,.4,1.54,1.35,4.79,2.93,9.48,4.65,14.11.28.75.54,1.51.83,2.26,1.69,4.37,3.59,8.65,5.61,12.85.46,1,.9,1.9,1.37,2.84,2,4,4.14,7.82,6.4,11.61l1.26,2.06c.25.41.5.84.76,1.25.9,1.44,1.9,2.8,2.84,4.2,1.39,2.07,2.74,4.18,4.2,6.19.33.45.67.89,1,1.33.57.78,1.14,1.56,1.73,2.32q3.63,4.73,7.54,9.2c1.16,1.32,2.35,2.61,3.55,3.9,2.55,2.75,5.16,5.42,7.87,8,1.45,1.37,2.93,2.7,4.42,4,2.65,2.35,5.33,4.66,8.1,6.86,1.75,1.38,3.56,2.68,5.35,4,2.7,2,5.41,3.92,8.21,5.75,1.49,1,3,1.87,4.56,2.77.58.35,1.15.71,1.73,1,2.71,1.61,5.41,3.23,8.21,4.7,2.38,1.25,4.84,2.36,7.28,3.51,2.69,1.26,5.35,2.56,8.11,3.69s5.52,2.06,8.3,3c2.62.93,5.22,1.93,7.9,2.74,3.1.94,6.28,1.66,9.44,2.43,2.49.61,4.94,1.32,7.47,1.82,3.68.74,7.45,1.2,11.21,1.71,2.11.29,4.18.71,6.32.92q8.77.87,17.8.9h.26c6.11,0,12.14-.32,18.09-.91,2-.2,3.87-.59,5.82-.85s3.91-.61,5.87-.89,3.94-.51,5.86-.9c1.19-.24,2.33-.55,3.49-.85s2.33-.57,3.49-.85c1.67-.41,3.31-.86,5-1.28s3.35-.79,5-1.28c2.51-.77,4.95-1.71,7.42-2.58,2.95-1,5.92-2,8.79-3.21,2.6-1.08,5.12-2.3,7.66-3.49s5.22-2.4,7.76-3.74,5.2-2.92,7.76-4.44c2.27-1.35,4.55-2.67,6.76-4.11,2.65-1.73,5.22-3.58,7.77-5.45,1.95-1.42,3.91-2.84,5.8-4.33,2.63-2.09,5.16-4.28,7.67-6.5,1.64-1.46,3.28-2.91,4.87-4.42,2.57-2.45,5.05-5,7.47-7.59.67-.72,1.32-1.46,2-2.18s1.33-1.44,2-2.18q3.72-4.24,7.16-8.73c1.06-1.38,2.09-2.77,3.12-4.17,1.16-1.61,2.22-3.29,3.34-4.94s2.29-3.24,3.35-4.93c.4-.64.79-1.3,1.18-2s.8-1.3,1.19-2c2.14-3.6,4.18-7.26,6.08-11,.58-1.16,1.13-2.34,1.68-3.51,1.91-4,3.71-8,5.33-12.18.39-1,.73-2,1.1-3,1.62-4.38,3.12-8.83,4.41-13.36.22-.8.4-1.62.62-2.42,1.28-4.79,2.42-9.63,3.31-14.57.1-.54.16-1.08.25-1.62.8-4.63,1.38-9.32,1.82-14.06.06-.61.19-1.2.24-1.82a2.09,2.09,0,0,0,0-.25l.74-654.65v-8.1h0c0-.33.05-.63.05-1,0-7.72.46-15.28,1.09-22.78,0-.36,0-.73.06-1.09.43-5.29,1.11-10.42,1.81-15.56.21-1.5.41-3,.65-4.48q1.22-8,2.82-15.72a273,273,0,0,1,13.12-44.26,258.4,258.4,0,0,1,19.66-39.72q3.78-6.24,7.88-12.2,5.34-8.28,11.14-16c1.27-1.69,2.64-3.25,3.94-4.9,2.65-3.37,5.28-6.77,8.05-10,1.65-1.91,3.41-3.67,5.1-5.52,2.54-2.78,5.05-5.61,7.69-8.25,1.89-1.91,3.88-3.66,5.82-5.5,2.56-2.41,5.08-4.88,7.71-7.18,2.07-1.82,4.24-3.49,6.36-5.23,2.61-2.14,5.19-4.34,7.86-6.37,2.23-1.7,4.54-3.25,6.8-4.87,2.67-1.9,5.32-3.85,8-5.65,2.37-1.57,4.82-3,7.23-4.49,2.72-1.68,5.42-3.4,8.19-5,2.48-1.41,5-2.69,7.55-4,2.79-1.48,5.56-3,8.39-4.38,2.58-1.25,5.2-2.38,7.81-3.56,2.85-1.29,5.7-2.61,8.6-3.81,2.64-1.09,5.33-2.06,8-3.07,2.93-1.11,5.85-2.25,8.8-3.26,2.71-.93,5.46-1.75,8.2-2.6,3-.92,5.95-1.87,8.95-2.7,2.77-.77,5.57-1.44,8.36-2.13,3-.74,6-1.51,9.08-2.17,2.81-.6,5.65-1.11,8.48-1.64,3.06-.57,6.12-1.16,9.2-1.64,2.85-.45,5.71-.8,8.56-1.17,3.09-.4,6.18-.8,9.28-1.12,2.88-.28,5.77-.48,8.65-.7,3.11-.22,6.21-.45,9.32-.59,2.89-.13,5.79-.18,8.69-.23,4.09-.08,8.17-.19,12.26-.12h.09c4.08-.07,8.17,0,12.25.12,2.9.05,5.8.1,8.7.23,3.11.14,6.21.37,9.31.59,2.89.22,5.78.42,8.66.7,3.1.32,6.19.72,9.28,1.12,2.85.37,5.71.72,8.55,1.17,3.1.49,6.17,1.07,9.25,1.65,2.81.52,5.62,1,8.41,1.63,3.09.66,6.14,1.44,9.2,2.2,2.75.68,5.5,1.33,8.23,2.08,3.06.85,6.08,1.82,9.11,2.76,2.68.84,5.38,1.64,8,2.55,3,1,6,2.19,9,3.32,2.62,1,5.25,1.94,7.84,3,3,1.22,5.88,2.58,8.81,3.9,2.53,1.15,5.08,2.24,7.58,3.46,2.92,1.42,5.77,3,8.64,4.5,2.44,1.3,4.91,2.54,7.32,3.92,2.84,1.62,5.61,3.38,8.4,5.11,2.34,1.44,4.72,2.83,7,4.35,2.8,1.85,5.52,3.85,8.26,5.81,2.2,1.57,4.43,3.07,6.58,4.71,2.75,2.09,5.39,4.34,8.07,6.54,2,1.69,4.15,3.3,6.17,5.06,2.69,2.36,5.26,4.88,7.88,7.36,1.88,1.78,3.81,3.48,5.65,5.32,2.68,2.7,5.24,5.57,7.82,8.41,1.65,1.8,3.37,3.51,5,5.37,2.78,3.21,5.42,6.62,8.07,10,1.3,1.64,2.67,3.19,3.93,4.88q5.77,7.72,11.13,16a256,256,0,0,1,18.44,31.61c3.26,6.6,6.36,13.33,9.1,20.31a268.47,268.47,0,0,1,9.52,29,285,285,0,0,1,6.43,31c.24,1.48.43,3,.65,4.48.69,5.14,1.38,10.27,1.81,15.56.34,3.82.36,7.76.56,11.64.21,4.07.57,8.09.59,12.23,0,.33,0,.63,0,1h0v8.1l.75,654.65c0,.08,0,.17,0,.25.44,5.37,1.16,10.65,2.05,15.88.1.54.16,1.08.25,1.62.89,4.94,2,9.78,3.32,14.57.22.8.39,1.62.62,2.42,1.28,4.53,2.79,9,4.4,13.36.38,1,.72,2,1.11,3,.8,2.07,1.77,4.06,2.66,6.09s1.71,4.1,2.66,6.09c.56,1.17,1.11,2.35,1.69,3.51,1.89,3.76,3.94,7.42,6.08,11,.78,1.31,1.56,2.61,2.37,3.9,2.12,3.37,4.36,6.65,6.69,9.87q1.53,2.1,3.12,4.17,3.45,4.49,7.16,8.73c1.29,1.48,2.62,2.92,4,4.35,2.42,2.6,4.9,5.15,7.48,7.6,1.58,1.51,3.21,3,4.85,4.41,2.51,2.23,5.05,4.42,7.68,6.51,1.89,1.49,3.85,2.91,5.8,4.33,1.28.94,2.59,1.82,3.88,2.73s2.56,1.86,3.89,2.72c2.21,1.44,4.48,2.76,6.76,4.11,2.56,1.52,5.12,3,7.76,4.44s5.16,2.52,7.76,3.74,5.05,2.41,7.65,3.49c2.88,1.18,5.84,2.18,8.79,3.21,2.47.87,4.91,1.81,7.43,2.58,3.27,1,6.62,1.75,10,2.56,2.33.56,4.61,1.23,7,1.7,3.86.77,7.8,1.27,11.73,1.79,2,.26,3.86.65,5.83.85,5.95.59,12,.91,18.09.91h.25q9,0,17.81-.9c.24,0,.47-.08.71-.1,1.89-.23,3.74-.56,5.61-.82,3.32-.44,6.63-.91,9.9-1.51.43-.08.88-.11,1.31-.2,2.53-.5,5-1.21,7.47-1.82,1.58-.39,3.14-.82,4.72-1.21s3.17-.75,4.72-1.22c.69-.21,1.35-.47,2-.71q3-1,5.88-2c2.77-1,5.57-1.92,8.28-3,1.26-.51,2.47-1.11,3.7-1.68,1.47-.68,3-1.32,4.42-2,2.44-1.15,4.89-2.26,7.27-3.5,2.81-1.48,5.52-3.1,8.23-4.72,2.11-1.25,4.23-2.48,6.28-3.81,2.8-1.82,5.51-3.78,8.21-5.76.9-.65,1.78-1.33,2.67-2s1.8-1.31,2.67-2c1.39-1.1,2.7-2.28,4.05-3.43s2.73-2.25,4.05-3.43l1.43-1.29c1-.9,2-1.8,3-2.73,2.71-2.58,5.33-5.26,7.88-8l1.69-1.86c.62-.68,1.25-1.35,1.86-2q3.92-4.47,7.53-9.19,1.4-1.82,2.74-3.67,3.69-5.05,7-10.37c.7-1.1,1.36-2.22,2-3.34,2.26-3.78,4.41-7.63,6.39-11.58.48-.95.93-1.91,1.38-2.87,2-4.19,3.91-8.46,5.61-12.82.29-.76.55-1.53.83-2.29.74-2,1.32-4,2-6,.9-2.67,1.88-5.3,2.65-8,.14-.52.26-1,.4-1.57,1.37-5.06,2.57-10.18,3.51-15.4,0-.21.06-.42.09-.63,1-5.5,1.71-11.08,2.17-16.74,0,0,.1-6,.16-12.54,0-4.91.06-10.15,0-13.41,0-1.09-.06-2-.1-2.52,0,0,.09-81.34.21-185.76q0-6.81,0-13.75,0-13.87,0-28.17c0-38.07.09-78,.13-117.39,0-29.53.07-58.73.1-86.58q0-7,0-13.8c.12-104.9.21-187.31.21-189,0-.18,0-.35,0-.53A661.75,661.75,0,0,0,8053.34,808.47Z"/>
      <path class="cls-4" d="M11175.31,704c-57.8-133.61-153.61-246.17-273.69-325.58A756.9,756.9,0,0,0,10594.43,261l-.83-.11q-13.38-2-26.89-3.48c-2.6-.29-5.21-.46-7.81-.73-6.75-.67-13.48-1.36-20.27-1.86-4.07-.3-8.17-.45-12.25-.69-5.36-.31-10.7-.68-16.08-.88-7.93-.29-15.86-.39-23.81-.44-1.56,0-3.11-.09-4.67-.09h-.26q-19.15,0-38.17.94c-1,.05-2,.17-3,.22-11.73.62-23.42,1.46-35.06,2.61-.46,0-.91.12-1.38.17q-18.14,1.83-36.11,4.49c-.67.1-1.32.24-2,.35-11.6,1.76-23.15,3.75-34.63,6.05-3.65.73-7.23,1.65-10.86,2.43-8.3,1.79-16.6,3.54-24.84,5.61a754.33,754.33,0,0,0-437.43,302.25,729.86,729.86,0,0,0-129.79,415.93h0c-.1,269.45,146.63,506,366.3,635.76,2.37,1.4,4.79,2.68,7.16,4.06,7.73,4.45,15.47,8.87,23.37,13.05,5.47,2.91,11,5.6,16.57,8.37,5,2.5,10,5.09,15.09,7.48,7.43,3.52,15,6.78,22.52,10,3.43,1.48,6.81,3,10.27,4.49,8.6,3.56,17.31,6.87,26,10.11,2.63,1,5.22,2,7.86,3,9.16,3.29,18.41,6.3,27.7,9.23,2.42.77,4.79,1.61,7.22,2.35,9.27,2.82,18.63,5.37,28,7.84,2.61.69,5.17,1.46,7.79,2.12,9.06,2.28,18.21,4.28,27.38,6.23,3.07.65,6.1,1.41,9.18,2,8.69,1.74,17.47,3.19,26.24,4.62,3.65.6,7.25,1.31,10.91,1.86,8.35,1.24,16.78,2.19,25.19,3.15,4.15.48,8.25,1.09,12.41,1.5,8.5.84,17.06,1.36,25.62,1.92,4.11.27,8.18.69,12.31.89q18,.89,36.07.9c.71,0,1.4,0,2.1,0h.23c4.14,0,8.21-.24,12.33-.31,409.89-6.49,740.79-335.29,740.94-740.36,0-.12,0-.24,0-.35h0A729,729,0,0,0,11175.31,704Zm-314.95,289.73c-.15,201.14-170,364.78-378.61,364.78-207.66-.06-376.93-162.1-378.67-361.75V991.2a351.69,351.69,0,0,1,28.83-137.42c28.13-65.2,75.17-120.9,136-161.12a382.13,382.13,0,0,1,99.48-46.8A395,395,0,0,1,10631,658.38c67.8,28,125.35,74.32,166.44,133.88a352.47,352.47,0,0,1,63,201.45Z"/>
      <path class="cls-4" d="M9567.88,1200,9241.52,902.85c-75.48-68.71-192.77-63.21-261.46,12.26s-63.19,192.74,12.26,261.45L9158,1327.39c-95.42,55.31-209.87,68.86-316.77,33.88-135.5-44.34-229.88-155.11-252.46-296.28-24-150.75,41.79-295.1,171.83-376.73,129.23-81.12,287.29-77.42,412.52,9.68,1.09.76,2.21,1.49,3.34,2.17A184.16,184.16,0,0,0,9308,728.77c100.77-16.1,169.66-111.18,153.56-211.95a183.39,183.39,0,0,0-73.84-120.33q-1.56-1.25-3.24-2.4c-248.84-173.09-563.8-179.87-822-17.71-257.09,161.47-387.08,447.7-339.23,747a739.75,739.75,0,0,0,103.66,277.23c130.6,208.9,347.68,335.91,595.56,348.48,54.55,2.77,108.66.22,161.29-8.66,196-33.1,318.72-110.91,440.11-237.12,24.38-21.82,40.09-38.27,56.14-58.8,34-43.47,46.55-84.09,48.16-116.3C9630.64,1278.81,9604.44,1233.27,9567.88,1200Z"/>
      <g>
        <path class="cls-6" d="M6288,296.76c-90.05,0-163.31,79.77-163.31,177.81v1036c0,.36,0,.72,0,1.08s0,.63,0,.89c0,98,73.26,177.8,163.31,177.8s163.29-79.76,163.29-177.8c0-.34,0-.67,0-1s0-.65,0-1v-1036C6451.31,376.53,6378.06,296.76,6288,296.76Z"/>
        <path class="cls-1" d="M6442.84,1523.2c-3.57-46.58-27.63-91.15-69.26-118.5a154.14,154.14,0,0,0-84.9-25.32c-49.62,0-98.49,23.5-128.48,66.88l-2.14,3a155.62,155.62,0,0,0,260.12,170.92c.64-1,1.25-2,1.83-3A154.3,154.3,0,0,0,6442.84,1523.2Z"/>
        <path class="cls-7" d="M6420,1592.27c-.58,1-1.19,2-1.83,3a155.43,155.43,0,0,1-285-74.13,155.61,155.61,0,0,0,285,99.08c.64-1,1.25-2,1.83-3a154.3,154.3,0,0,0,22.83-94A153.77,153.77,0,0,1,6420,1592.27Z"/>
        <path class="cls-5" d="M6124.71,474.57q3.1,326.48,3.89,653l.48,163.24.36,163.24.07,40.81v17.85l.06,2.49c.09,3.32.11,6.63.42,9.94l.35,5,.57,4.94a182,182,0,0,0,26,74.46,177.1,177.1,0,0,0,24.66,31,165.93,165.93,0,0,0,31.23,24.19,155,155,0,0,0,36.23,15.44,146.47,146.47,0,0,0,78,0,154.44,154.44,0,0,0,36.24-15.44,166.13,166.13,0,0,0,31.22-24.18,177.57,177.57,0,0,0,24.66-31,182,182,0,0,0,26-74.46l.58-4.94.35-5c.3-3.31.33-6.62.41-9.94l.06-2.49v-17.85l.06-40.81.35-163.24.48-163.24q1.11-326.47,3.91-653,3.12,326.48,3.9,653l.48,163.24L6456,1454l.06,40.81v17.86l-.06,2.61c-.08,3.49-.1,7-.41,10.45l-.36,5.21-.6,5.2a190.45,190.45,0,0,1-9.32,40.71,192.93,192.93,0,0,1-17.94,37.76,187.38,187.38,0,0,1-26,32.78,176.12,176.12,0,0,1-33.12,25.71,164.55,164.55,0,0,1-38.61,16.52,154.85,154.85,0,0,1-83.29,0,165.19,165.19,0,0,1-38.62-16.51,176.43,176.43,0,0,1-33.11-25.72,187.68,187.68,0,0,1-26-32.77,193.81,193.81,0,0,1-17.95-37.76,191.06,191.06,0,0,1-9.32-40.71l-.59-5.2-.36-5.21c-.31-3.48-.34-7-.42-10.45l-.06-2.61v-17.86L6120,1454l.36-163.24.48-163.24Q6121.93,801.06,6124.71,474.57Z"/>
      </g>
      <g>
        <path class="cls-8" d="M9557,1426.55c60.26-66.91,59.48-157.52-13.37-223.13L9244.77,934.3l-.81-.72c-.23-.23-.46-.42-.65-.6-72.85-65.61-181.15-64.55-241.4,2.36s-50,174.71,22.84,240.32l.75.66c.23.23.48.44.72.66l312.49,281.43C9411.56,1524,9496.72,1493.46,9557,1426.55Z"/>
        <path class="cls-1" d="M9022.48,1162.23c37,28.51,86.23,40.46,134.41,27.83a154.12,154.12,0,0,0,75.63-46.14c33.2-36.87,48.45-88.91,36.28-140.22l-.82-3.63A155.62,155.62,0,0,0,8966.9,1079c.3,1.14.63,2.25,1,3.37A154.34,154.34,0,0,0,9022.48,1162.23Z"/>
        <path class="cls-7" d="M8986.43,1099c-.36-1.12-.69-2.23-1-3.37a155.43,155.43,0,0,1,245.83-162.19A155.61,155.61,0,0,0,8966.9,1079c.3,1.14.63,2.25,1,3.37a154.34,154.34,0,0,0,54.58,79.88A154,154,0,0,1,8986.43,1099Z"/>
        <path class="cls-5" d="M9528.31,1189.65q-31.15-26.62-62.08-53.5l-30.9-26.89-30.81-27c-20.57-18-41-36.09-61.48-54.16s-40.87-36.24-61.27-54.39l-30.6-27.23-7.63-6.83-3.8-3.41c-1.26-1.09-2.49-2.22-3.77-3.28a189.94,189.94,0,0,0-15.88-12.1,181.09,181.09,0,0,0-73.49-29.36,164.88,164.88,0,0,0-78.53,6.23,148.44,148.44,0,0,0-35.45,17.48A150.53,150.53,0,0,0,9017,927.35a152.78,152.78,0,0,0-13.84,14.15,146.48,146.48,0,0,0-21.39,33.19,152.56,152.56,0,0,0-7.15,18.47,156.79,156.79,0,0,0-4.67,19.27,166.81,166.81,0,0,0,5.58,78.62,182.53,182.53,0,0,0,39.76,68.46c4.51,4.92,9.25,9.5,14.29,14l15.17,13.76,30.28,27.58,30.28,27.59,30.2,27.68q30.18,27.7,60.27,55.49l30.07,27.83,30,27.92q30,27.94,59.69,56.14-31.14-26.62-62.06-53.51l-30.9-26.9-30.8-27q-30.85-27-61.48-54.16l-30.68-27.15-30.6-27.24-30.59-27.23-15.27-13.66a208.19,208.19,0,0,1-14.95-14.63,192.47,192.47,0,0,1-42-72,176.74,176.74,0,0,1-6-83.26,166.55,166.55,0,0,1,4.95-20.52,162.43,162.43,0,0,1,7.6-19.72,156.79,156.79,0,0,1,22.8-35.49,155.64,155.64,0,0,1,49.83-38.6,164.19,164.19,0,0,1,19.53-8,174.69,174.69,0,0,1,83.23-6.51,190.76,190.76,0,0,1,77.39,31,201.69,201.69,0,0,1,16.67,12.74c1.34,1.12,2.63,2.3,3.95,3.45l3.81,3.44,7.59,6.87L9287.83,967q30.27,27.6,60.48,55.27t60.28,55.49l30.07,27.82,30,27.94Q9498.59,1161.43,9528.31,1189.65Z"/>
      </g>
      <g>
        <path class="cls-9" d="M2663,1160.2l416.84,0h2c98,.75,178.35-71.9,179-161.94s-78.53-163.89-176.57-164.64h-1c-.32,0-.65,0-1,0L2663,829.12"/>
        <path class="cls-1" d="M3094.91,842.16c-46.61,3.22-91.36,26.94-119,68.36a154.17,154.17,0,0,0-26,84.71c-.38,49.61,22.75,98.66,65.9,129l3,2.17a155.62,155.62,0,0,0,172.88-258.82c-1-.65-2-1.26-3-1.85A154.26,154.26,0,0,0,3094.91,842.16Z"/>
        <path class="cls-7" d="M3163.8,865.51c1,.59,2,1.2,3,1.86a155.43,155.43,0,0,1-76.29,284.46,155.61,155.61,0,0,0,101.24-284.28c-1-.65-2-1.26-3-1.85a154.26,154.26,0,0,0-93.84-23.54A153.67,153.67,0,0,1,3163.8,865.51Z"/>
        <path class="cls-5" d="M2663,1160.2c114.67-2.07,229.35-3.16,344-3.89l43-.29,21.51-.11,10.74-.05,5.25-.1c1.75,0,3.51,0,5.25-.2a189.63,189.63,0,0,0,41.34-6.9,184.25,184.25,0,0,0,38.61-16.1c3-1.78,6.06-3.45,8.95-5.42,1.46-1,2.94-1.88,4.38-2.86l4.26-3c.7-.51,1.42-1,2.12-1.52l2.05-1.62,4.11-3.23,4-3.42,2-1.71,1.9-1.8,3.78-3.6,3.62-3.77,1.8-1.88c.59-.64,1.15-1.32,1.72-2l3.42-3.94c1.1-1.35,2.15-2.73,3.23-4.1l1.61-2c.54-.69,1-1.41,1.52-2.12l3-4.25c1-1.45,1.87-2.93,2.81-4.39l1.4-2.2c.46-.73.86-1.5,1.3-2.25l2.57-4.54c.81-1.53,1.56-3.1,2.35-4.64l1.16-2.33c.39-.78.71-1.59,1.06-2.38l2.09-4.76c.65-1.61,1.23-3.25,1.85-4.87l.92-2.43c.3-.81.53-1.65.8-2.47l1.57-5a146.91,146.91,0,0,0,4.33-20.32c.58-3.42.78-6.88,1.11-10.33.1-.86.12-1.73.15-2.59l.08-2.6.09-2.6c.05-.86.06-1.73,0-2.6-.1-3.46-.05-6.93-.4-10.38-.14-1.73-.22-3.46-.42-5.18l-.66-5.16c-.13-.85-.2-1.72-.36-2.57l-.48-2.55c-.32-1.7-.61-3.41-1-5.11l-1.22-5c-.21-.84-.39-1.69-.63-2.52L3250,956l-1.5-5-1.76-4.9c-.3-.81-.57-1.63-.89-2.44l-1-2.4-2-4.8-2.26-4.69c-.38-.77-.74-1.56-1.14-2.34l-1.25-2.28-2.51-4.57-2.73-4.44c-.45-.73-.89-1.48-1.37-2.21l-1.47-2.15-3-4.3-3.16-4.15-1.58-2.07-1.68-2-3.36-4-3.55-3.83-1.78-1.92-1.86-1.82-3.73-3.66a178.73,178.73,0,0,0-33.71-24.61c-3.08-1.66-6.11-3.4-9.28-4.86-1.58-.75-3.13-1.55-4.73-2.26l-4.81-2.07c-.81-.34-1.6-.7-2.41-1l-2.46-.93-4.9-1.84c-1.66-.57-3.32-1.09-5-1.63s-3.31-1.12-5-1.54a190.05,190.05,0,0,0-41.31-7l-5.25-.19c-1.75-.06-3.49-.13-5.3-.14l-10.75-.16-21.5-.33-43-.75c-114.66-2-229.32-4.27-344-7.57,114.69-.86,229.36-.72,344-.23l43,.16,21.5.13,10.75.07c3.58,0,7.3.18,10.94.26a199.26,199.26,0,0,1,43.36,7c1.78.43,3.52,1,5.27,1.57s3.51,1.09,5.25,1.67l5.17,1.9,2.58,1c.86.34,1.7.7,2.55,1.06l5.08,2.13c1.68.73,3.32,1.56,5,2.34,3.35,1.51,6.56,3.31,9.81,5,1.64.83,3.18,1.84,4.78,2.75s3.18,1.85,4.72,2.86c3,2.05,6.18,4,9.11,6.22,1.48,1.1,3,2.16,4.44,3.28l4.3,3.47c.71.58,1.44,1.14,2.14,1.74l2.07,1.83L3213,879l4,3.86,2,1.93,1.89,2,3.77,4.05,3.57,4.22,1.79,2.11,1.68,2.19,3.37,4.4,3.15,4.55,1.57,2.28c.5.77,1,1.56,1.46,2.35l2.91,4.71,2.69,4.85,1.33,2.43c.43.82.82,1.65,1.22,2.48l2.42,5,2.17,5.1,1.08,2.56c.34.86.64,1.74,1,2.6l1.89,5.22c.56,1.76,1.08,3.54,1.62,5.31l.81,2.65c.25.89.45,1.8.67,2.69l1.33,5.4c.38,1.81.69,3.63,1.05,5.45l.51,2.73c.17.91.26,1.83.39,2.75l.73,5.5c.22,1.84.31,3.69.46,5.53.37,3.69.35,7.4.44,11.1,0,.92,0,1.85,0,2.77l-.1,2.78-.1,2.77c0,.92-.07,1.85-.17,2.77-.36,3.68-.59,7.38-1.22,11a156.2,156.2,0,0,1-4.68,21.68l-1.69,5.29c-.29.88-.54,1.77-.86,2.63l-1,2.6c-.66,1.72-1.29,3.47-2,5.18l-2.23,5.07c-.38.84-.73,1.7-1.14,2.53l-1.25,2.48c-.84,1.64-1.64,3.31-2.51,4.93l-2.75,4.82c-.46.8-.9,1.61-1.39,2.39l-1.49,2.34c-1,1.55-2,3.12-3,4.65l-3.21,4.51c-.54.75-1.06,1.52-1.62,2.24l-1.72,2.18c-1.14,1.44-2.27,2.9-3.44,4.33l-3.63,4.17c-.61.69-1.2,1.4-1.83,2.07l-1.91,2-3.84,4-4,3.8-2,1.89-2.1,1.8-4.19,3.6-4.34,3.41-2.18,1.7c-.74.55-1.5,1.07-2.25,1.6l-4.5,3.19c-1.52,1-3.09,2-4.64,3-3.06,2-6.31,3.78-9.48,5.63a193.23,193.23,0,0,1-40.73,16.6,198.65,198.65,0,0,1-43.37,6.88c-1.83.14-3.66.14-5.49.16l-5.5.06-10.76,0-21.5-.11-43-.29C2892.34,1163.35,2777.68,1162.27,2663,1160.2Z"/>
      </g>
    </g>
  </g>
</svg>
