<svg width="20" height="20" viewBox="0 0 20 20" fill="none" xmlns="http://www.w3.org/2000/svg">
<path d="M20 10C20 15.5228 15.5228 20 10 20C4.47715 20 0 15.5228 0 10C0 4.47715 4.47715 0 10 0C15.5228 0 20 4.47715 20 10ZM1 10C1 14.9706 5.02944 19 10 19C14.9706 19 19 14.9706 19 10C19 5.02944 14.9706 1 10 1C5.02944 1 1 5.02944 1 10Z" fill="#FABE64"/>
<path d="M10.6957 6.65498C10.5024 6.84198 10.2705 6.93548 10 6.93548C9.72947 6.93548 9.49275 6.84198 9.28986 6.65498C9.09662 6.45863 9 6.22955 9 5.96774C9 5.70594 9.09662 5.48153 9.28986 5.29453C9.48309 5.09818 9.71981 5 10 5C10.2802 5 10.5169 5.09818 10.7101 5.29453C10.9034 5.48153 11 5.70594 11 5.96774C11 6.22955 10.8986 6.45863 10.6957 6.65498ZM9.21739 15V7.98738H10.7826V15H9.21739Z" fill="#FABE64"/>
</svg>
