<svg width="60" height="60" viewBox="0 0 60 60" fill="none" xmlns="http://www.w3.org/2000/svg">
<g clip-path="url(#clip0)">
<path d="M54.0643 32.043H53.1257V28.3857C53.5285 27.6318 53.7414 26.7892 53.7414 25.9288C53.7414 23.9711 52.6607 22.1947 50.9213 21.2934C50.2899 20.9658 49.7628 20.488 49.3827 19.906V17.1692C49.3827 16.6942 48.9977 16.3092 48.5227 16.3092C48.0478 16.3092 47.6628 16.6942 47.6628 17.1692V19.9056C47.2836 20.485 46.7513 20.9655 46.1092 21.3012C44.3723 22.2081 43.2975 23.9885 43.3041 25.9476C43.3072 26.7968 43.5198 27.6303 43.9196 28.3777V32.0432H41.3121V28.3027C42.4379 26.3372 43.0321 24.108 43.0321 21.8304C43.0321 16.9413 40.3332 12.5054 35.9887 10.2537C33.8479 9.1433 32.0802 7.48804 30.8602 5.45994V0.859979C30.8602 0.385006 30.4752 0 30.0002 0C29.5253 0 29.1402 0.385006 29.1402 0.859979V5.45955C27.9266 7.476 26.1455 9.13814 23.9739 10.2732C19.6361 12.5384 16.9517 16.9846 16.9682 21.8768C16.9759 24.124 17.5697 26.3279 18.6881 28.2778V32.043H16.0803V28.3859C16.4829 27.6321 16.6959 26.7893 16.6959 25.9288C16.6959 23.9711 15.6153 22.1947 13.876 21.2932C13.2445 20.9658 12.7174 20.4879 12.3374 19.9059V17.1692C12.3374 16.6942 11.9524 16.3092 11.4775 16.3092C11.0025 16.3092 10.6175 16.6942 10.6175 17.1692V19.9057C10.2383 20.4851 9.70603 20.9655 9.06395 21.3012C7.32706 22.2081 6.25222 23.9885 6.25883 25.9476C6.26174 26.797 6.47449 27.6303 6.87431 28.3776V32.0431H5.93588C5.4609 32.0431 5.0759 32.4281 5.0759 32.9031V59.1401C5.0759 59.6151 5.4609 60.0001 5.93588 60.0001H54.0643C54.5393 60.0001 54.9243 59.6151 54.9243 59.1401V32.9029C54.9243 32.428 54.5392 32.043 54.0643 32.043ZM46.9056 22.8254C47.5201 22.5042 48.0656 22.0871 48.5217 21.5936C48.9769 22.0884 49.5198 22.5038 50.1294 22.8202C51.2964 23.4249 52.0214 24.6161 52.0214 25.9288C52.0214 26.4187 51.9189 26.8999 51.7229 27.3431H45.326C45.1294 26.9028 45.0255 26.4258 45.0239 25.9415C45.0196 24.6278 45.7404 23.4339 46.9056 22.8254ZM45.6396 29.0629H51.4058V32.0428H45.6396V29.0629ZM29.9994 7.28495C30.5277 8.02586 31.1257 8.71358 31.7833 9.34229H28.2082C28.8705 8.71159 29.4709 8.02387 29.9994 7.28495ZM24.7702 11.7976C25.2035 11.5711 25.6223 11.325 26.0273 11.0622H33.9626C34.3607 11.3196 34.7721 11.56 35.197 11.7804C38.969 13.7353 41.3123 17.5862 41.3123 21.8301C41.3123 23.7586 40.8216 25.6464 39.8912 27.3208H20.1232C19.1901 25.6545 18.6947 23.7807 18.6881 21.8709C18.6738 17.624 21.0042 13.7642 24.7702 11.7976ZM20.4079 29.0407H39.592V32.043H20.4079V29.0407ZM9.8603 22.8254C10.4749 22.5042 11.0203 22.0871 11.4763 21.5936C11.9317 22.0885 12.4745 22.5038 13.0842 22.8202C14.2511 23.4249 14.976 24.6161 14.976 25.9288C14.976 26.4187 14.8734 26.8999 14.6776 27.3431H8.28071C8.08411 26.9029 7.98025 26.426 7.97866 25.9415C7.97429 24.6278 8.69509 23.4339 9.8603 22.8254ZM8.59427 29.0629H14.3605V32.0428H8.59427V29.0629ZM6.79586 33.7629H18.6881V58.28H6.79586V33.7629ZM35.8334 58.28H24.1668V45.3781C24.1668 43.5208 25.2592 41.8241 26.9499 41.0554L30.0001 39.6687L33.0501 41.0554C34.7408 41.8241 35.8333 43.5208 35.8333 45.3781V58.28H35.8334ZM37.5534 58.28V45.3781C37.5534 42.848 36.0652 40.5368 33.7622 39.4897L30.3561 37.9412C30.1299 37.8383 29.8704 37.8384 29.6443 37.9412L26.2381 39.4897C23.935 40.5368 22.4468 42.8481 22.4468 45.3781V58.28H20.4079V33.7629H39.592V58.28H37.5534ZM53.2043 58.28H41.3121V33.7629H53.2043V58.28Z" fill="#4A4F64"/>
<path d="M14.263 37.0119L13.0978 36.4821C12.8716 36.3793 12.6121 36.3793 12.3859 36.4821L11.2208 37.0117C10.2314 37.4614 9.59213 38.4544 9.59213 39.5411V43.8946C9.59213 44.3696 9.97714 44.7546 10.4521 44.7546H15.0314C15.5064 44.7546 15.8914 44.3696 15.8914 43.8946V39.5411C15.8915 38.4544 15.2522 37.4616 14.263 37.0119ZM14.1716 43.0346H11.3122V39.5411C11.3122 39.1272 11.5558 38.7489 11.9327 38.5774L12.7419 38.2095L13.5512 38.5774C13.9281 38.7488 14.1716 39.127 14.1716 39.541V43.0346Z" fill="#4A4F64"/>
<path d="M14.263 47.3315L13.0978 46.8017C12.8716 46.6989 12.6121 46.6989 12.3859 46.8017L11.2208 47.3313C10.2314 47.781 9.59213 48.774 9.59213 49.8607V54.2142C9.59213 54.6892 9.97714 55.0742 10.4521 55.0742H15.0314C15.5064 55.0742 15.8914 54.6892 15.8914 54.2142V49.8607C15.8915 48.774 15.2522 47.7812 14.263 47.3315ZM14.1716 53.3542H11.3122V49.8607C11.3122 49.4467 11.5558 49.0685 11.9327 48.897L12.7419 48.5291L13.5512 48.897C13.9281 49.0683 14.1716 49.4466 14.1716 49.8606V53.3542Z" fill="#4A4F64"/>
<path d="M44.9684 44.7545H49.5477C50.0227 44.7545 50.4077 44.3695 50.4077 43.8945V39.541C50.4077 38.4543 49.7685 37.4613 48.7791 37.0116L47.6139 36.4819C47.3878 36.3791 47.1281 36.3791 46.902 36.4819L45.7369 37.0115C44.7474 37.4612 44.1081 38.454 44.1081 39.5409V43.8944C44.1084 44.3695 44.4935 44.7545 44.9684 44.7545ZM45.8284 39.541C45.8284 39.1271 46.0719 38.7488 46.4489 38.5773L47.258 38.2094L48.0672 38.5773C48.4441 38.7487 48.6876 39.1269 48.6876 39.541V43.0345H45.8282V39.541H45.8284Z" fill="#4A4F64"/>
<path d="M44.9684 55.0743H49.5477C50.0227 55.0743 50.4077 54.6893 50.4077 54.2143V49.8609C50.4077 48.7741 49.7685 47.7812 48.7791 47.3315L47.6139 46.8017C47.3878 46.6989 47.1281 46.6989 46.902 46.8017L45.7369 47.3313C44.7474 47.781 44.1081 48.7738 44.1081 49.8607V54.2142C44.1084 54.6893 44.4935 55.0743 44.9684 55.0743ZM45.8284 49.8609C45.8284 49.4469 46.0719 49.0686 46.4489 48.8971L47.258 48.5292L48.0672 48.8971C48.4441 49.0685 48.6876 49.4467 48.6876 49.8609V53.3544H45.8282V49.8609H45.8284Z" fill="#4A4F64"/>
</g>
<defs>
<clipPath id="clip0">
<rect width="60" height="60" fill="white"/>
</clipPath>
</defs>
</svg>
