<svg width="60" height="60" viewBox="0 0 60 60" fill="none" xmlns="http://www.w3.org/2000/svg">
<path d="M58.9999 48.9998H20.414L6.70709 35.2928C6.32335 34.8956 5.69035 34.8846 5.2931 35.2683C4.89585 35.6521 4.88485 36.2851 5.2686 36.6823C5.2766 36.6907 5.28485 36.6988 5.2931 36.7068L10.1091 41.5228L4.5001 48.9998H1.00012C0.44787 48.9998 0.00012207 49.4475 0.00012207 49.9998C0.00012207 50.552 0.44787 50.9998 1.00012 50.9998H6.1321L1.16812 58.4447C0.861618 58.9042 0.985618 59.5252 1.44512 59.8317C1.90461 60.1382 2.52561 60.0142 2.83211 59.5547L8.53509 50.9998H21V58.9997C21 59.552 21.4478 59.9997 22 59.9997C22.5523 59.9997 23 59.552 23 58.9997V50.9998H50.4649L56.1649 59.5547C56.4714 60.0142 57.0924 60.1382 57.5519 59.8317C58.0114 59.5252 58.1354 58.9042 57.8289 58.4447L52.8679 50.9998H58.9999C59.5521 50.9998 59.9999 50.552 59.9999 49.9998C59.9999 49.4475 59.5521 48.9998 58.9999 48.9998ZM7.00009 48.9998L11.5371 42.9508L17.586 48.9998H7.00009Z" fill="#4A4F64"/>
<path d="M55.9998 41.9998H24.4139L22.9999 40.5858V20.3999C23.5961 20.7859 24.2898 20.994 24.9999 20.9999C25.8008 20.9954 26.5794 20.7358 27.2229 20.2589C27.6878 19.9269 28.312 19.9269 28.7769 20.2589C30.0937 21.2486 31.9061 21.2486 33.2229 20.2589C33.6878 19.9269 34.312 19.9269 34.7769 20.2589C36.1869 21.3143 38.144 21.2349 39.4639 20.0689C39.8069 19.7826 39.9996 19.3547 39.9869 18.9079C39.6329 10.067 31.7709 3 21.9999 3C11.253 3 4.32301 10.066 4.01101 18.9059C3.99989 19.3536 4.19301 19.7819 4.53601 20.0699C5.22063 20.6632 6.09426 20.9928 7 20.9999C7.80087 20.9954 8.5795 20.7358 9.22299 20.2589C9.68787 19.9269 10.3121 19.9269 10.777 20.2589C12.0937 21.2486 13.9062 21.2486 15.223 20.2589C15.6878 19.9269 16.3121 19.9269 16.777 20.2589C18.0127 21.1954 19.7044 21.2519 20.9999 20.3999V38.5899L13.707 31.2969C13.3165 30.9065 12.6835 30.9065 12.293 31.2969L9.29299 34.2969C8.90262 34.6874 8.90262 35.3204 9.29299 35.7109L21.2929 47.7108C21.4811 47.8969 21.7353 48.0008 21.9999 47.9998H55.9998C56.552 47.9998 56.9998 47.5521 56.9998 46.9998V42.9998C56.9998 42.4476 56.552 41.9998 55.9998 41.9998ZM20.0459 18.6419C19.7442 18.8696 19.3778 18.9949 19 18.9999C18.6221 18.9946 18.2558 18.8692 17.954 18.6419C16.7873 17.8001 15.2126 17.8001 14.046 18.6419C13.4306 19.1201 12.5694 19.1201 11.954 18.6419C10.7874 17.8001 9.21262 17.8001 8.046 18.6419C7.74425 18.8696 7.37788 18.9949 7 18.9999C6.65063 18.9961 6.31038 18.8877 6.02301 18.6889C6.455 10.614 12.983 4.99999 21.9999 4.99999C30.5419 4.99999 37.4999 10.99 37.9739 18.6919C37.6869 18.8889 37.3479 18.9961 36.9999 18.9999C36.622 18.9946 36.2558 18.8692 35.9539 18.6419C34.7873 17.7999 33.2125 17.7999 32.0459 18.6419C31.4305 19.1201 30.5693 19.1201 29.9539 18.6419C28.7873 17.7999 27.2125 17.7999 26.0459 18.6419C25.4305 19.1201 24.5693 19.1201 23.9539 18.6419C22.7873 17.7999 21.2126 17.7999 20.0459 18.6419ZM54.9998 45.9998H22.4139L11.414 34.9999L13 33.4139L21.2919 41.7058L23.2919 43.7058C23.4796 43.894 23.7343 43.9998 23.9999 43.9998H54.9998V45.9998Z" fill="#4A4F64"/>
<path d="M50.9999 4.44409C48.4848 4.44684 46.4467 6.48496 46.444 9.00007C46.444 11.5163 48.4837 13.5561 50.9999 13.5561C53.5162 13.5561 55.5559 11.5163 55.5559 9.00007C55.5559 6.48383 53.5162 4.44409 50.9999 4.44409ZM50.9999 11.5561C49.5883 11.5561 48.444 10.4117 48.444 9.00007C48.4456 7.58908 49.589 6.44571 50.9999 6.44408C52.4116 6.44408 53.5559 7.58845 53.5559 9.00007C53.5559 10.4117 52.4116 11.5561 50.9999 11.5561Z" fill="#4A4F64"/>
<path d="M44.777 8H43C42.4477 8 42 8.44775 42 9C42 9.55224 42.4477 9.99999 43 9.99999H44.777C45.3292 9.99999 45.777 9.55224 45.777 9C45.777 8.44775 45.3292 8 44.777 8Z" fill="#4A4F64"/>
<path d="M47.3079 3.89389L46.0499 2.63589C45.6527 2.25227 45.0195 2.26327 44.6359 2.66052C44.2617 3.04801 44.2617 3.66239 44.6359 4.04988L45.8939 5.30788C46.2912 5.69163 46.9242 5.68063 47.3079 5.28338C47.6822 4.89576 47.6822 4.28138 47.3079 3.89389Z" fill="#4A4F64"/>
<path d="M50.9999 0C50.4477 0 49.9999 0.447748 49.9999 0.999996V2.77699C49.9999 3.32924 50.4477 3.77699 50.9999 3.77699C51.5522 3.77699 51.9999 3.32924 51.9999 2.77699V0.999996C51.9999 0.447748 51.5522 0 50.9999 0Z" fill="#4A4F64"/>
<path d="M57.3639 2.6358C56.9734 2.24542 56.3404 2.24542 55.9499 2.6358L54.6919 3.89379C54.2947 4.27754 54.2837 4.91054 54.6674 5.30779C55.0512 5.70503 55.6842 5.71603 56.0814 5.33229C56.0898 5.32429 56.0979 5.31604 56.1059 5.30779L57.3639 4.04979C57.7543 3.65929 57.7543 3.0263 57.3639 2.6358Z" fill="#4A4F64"/>
<path d="M59 8H57.223C56.6707 8 56.223 8.44775 56.223 9C56.223 9.55224 56.6707 9.99999 57.223 9.99999H59C59.5522 9.99999 59.9999 9.55224 59.9999 9C59.9999 8.44775 59.5522 8 59 8Z" fill="#4A4F64"/>
<path d="M57.3638 13.9499L56.1058 12.692C55.7153 12.3016 55.0823 12.3016 54.6918 12.692C54.3015 13.0824 54.3015 13.7154 54.6918 14.1059L55.9498 15.3639C56.3471 15.7477 56.9801 15.7367 57.3638 15.3394C57.7381 14.9518 57.7381 14.3374 57.3638 13.9499Z" fill="#4A4F64"/>
<path d="M50.9999 14.2229C50.4477 14.2229 49.9999 14.6706 49.9999 15.2229V16.9999C49.9999 17.5521 50.4477 17.9999 50.9999 17.9999C51.5522 17.9999 51.9999 17.5521 51.9999 16.9999V15.2229C51.9999 14.6706 51.5522 14.2229 50.9999 14.2229Z" fill="#4A4F64"/>
<path d="M47.2835 12.6918C46.896 12.3176 46.2816 12.3176 45.894 12.6918L44.636 13.9498C44.2387 14.3336 44.2277 14.9666 44.6115 15.3638C44.9952 15.7611 45.6282 15.7721 46.0255 15.3883C46.0339 15.3803 46.042 15.3721 46.05 15.3638L47.308 14.1058C47.6916 13.7086 47.6807 13.0754 47.2835 12.6918Z" fill="#4A4F64"/>
</svg>
