<svg width="103" height="100" viewBox="0 0 103 100" fill="none" xmlns="http://www.w3.org/2000/svg">
<path d="M100 50C100 60.559 96.6572 70.8469 90.4509 79.3893C84.2444 87.9316 75.493 94.2899 65.4509 97.5528C55.4087 100.816 44.5913 100.816 34.5491 97.5528C24.507 94.2899 15.7556 87.9316 9.54915 79.3893C3.34275 70.8469 -9.23094e-07 60.559 0 50C9.23094e-07 39.441 3.34275 29.1531 9.54915 20.6107C15.7556 12.0684 24.507 5.71007 34.5492 2.44717C44.5913 -0.815726 55.4087 -0.815724 65.4509 2.44718L64.9873 3.87376C55.2464 0.708748 44.7536 0.708746 35.0127 3.87376C25.2718 7.03877 16.7829 13.2063 10.7627 21.4924C4.74247 29.7785 1.5 39.7578 1.5 50C1.5 60.2422 4.74246 70.2215 10.7627 78.5076C16.7829 86.7937 25.2718 92.9612 35.0127 96.1262C44.7536 99.2913 55.2464 99.2913 64.9873 96.1262C74.7282 92.9612 83.2171 86.7937 89.2373 78.5076C95.2575 70.2215 98.5 60.2422 98.5 50H100Z" fill="#4A4F64" fill-opacity="0.2"/>
<ellipse cx="99" cy="47.5" rx="2.5" ry="2.5" fill="#E84D85" stroke="#E84D85" stroke-width="2"/>
</svg>
