<svg width="60" height="60" viewBox="0 0 60 60" fill="none" xmlns="http://www.w3.org/2000/svg">
<path d="M25.5209 24.6956C22.9662 24.6956 20.8878 26.7461 20.8878 29.2665C20.8878 31.7869 22.9662 33.8374 25.5209 33.8374C28.0755 33.8374 30.1539 31.7869 30.1539 29.2665C30.1539 26.7461 28.0756 24.6956 25.5209 24.6956ZM25.5209 32.0812C23.9478 32.0812 22.6679 30.8185 22.6679 29.2665C22.6679 27.7145 23.9478 26.4518 25.5209 26.4518C27.094 26.4518 28.3738 27.7145 28.3738 29.2665C28.3738 30.8185 27.094 32.0812 25.5209 32.0812Z" fill="#4A4F64"/>
<path d="M58.6798 0H52.1214C51.3934 0 50.8013 0.58423 50.8013 1.3024V4.54061C50.8013 5.06641 51.1194 5.5194 51.5751 5.72487V14.7204H50.3036C48.4302 9.27896 43.2016 5.35291 37.061 5.35291H13.9808C6.27173 5.35291 0 11.5406 0 19.1464C0 26.7521 6.27173 32.9398 13.9808 32.9398C15.283 32.9398 16.5686 32.7916 17.8177 32.5091C19.098 35.4585 22.0687 37.5303 25.521 37.5303C28.973 37.5303 31.9433 35.459 33.2239 32.5103C34.473 32.7927 35.759 32.9398 37.0611 32.9398C43.2172 32.9398 48.4562 28.994 50.3174 23.5314H51.5752V47.1852C51.5752 50.2664 49.0345 52.7733 45.9113 52.7733C45.3072 52.7733 44.7129 52.6803 44.1452 52.4966C43.6777 52.3456 43.1751 52.5965 43.0221 53.0574C42.869 53.5182 43.1234 54.0143 43.5905 54.1654C44.3376 54.407 45.1184 54.5295 45.9113 54.5295C50.0159 54.5295 53.3553 51.2349 53.3553 47.1852V23.5313H57.4041V46.905C57.4041 53.1572 52.2486 58.2438 45.9113 58.2438C39.8778 58.2438 34.9156 53.6329 34.4539 47.7952C35.3162 47.9177 36.0313 47.9385 36.4132 47.9385C36.4605 47.9385 36.5029 47.9383 36.5396 47.9377C36.6525 47.9363 36.7646 47.9363 36.8766 47.9377C37.1549 47.9418 37.747 47.9359 38.4988 47.8539C38.6173 49.1532 39.0792 50.3874 39.855 51.4564C40.1413 51.8506 40.6972 51.9414 41.0969 51.6592C41.4966 51.3768 41.5886 50.8283 41.3024 50.434C40.6832 49.5808 40.3268 48.5887 40.2599 47.5458C40.7456 47.4262 41.2464 47.2709 41.7388 47.0691C44.4552 45.9553 45.9109 43.8795 45.9485 41.0661C45.9586 40.3105 45.6681 39.5983 45.1302 39.0608C44.5936 38.5243 43.8773 38.2289 43.1137 38.2289C41.8777 38.2289 40.7663 39.0329 40.4107 40.1839C39.953 41.6652 38.7154 42.402 36.7247 42.3624C36.7138 42.3622 36.7031 42.3622 36.6923 42.3624C34.7049 42.4038 33.464 41.6654 33.0063 40.1839C32.6506 39.0329 31.539 38.2289 30.3032 38.2289C29.5394 38.2289 28.8234 38.5243 28.2869 39.0608C27.7491 39.5983 27.4586 40.3105 27.4685 41.0661C27.5059 43.8795 28.9616 45.9554 31.6781 47.0691C32.0004 47.2013 32.3264 47.3131 32.6493 47.4085C32.9185 54.3967 38.7636 60.0001 45.9113 60.0001C53.23 60.0001 59.1841 54.1257 59.1841 46.9052V12.1648C59.1841 11.6797 58.7858 11.2867 58.2941 11.2867C57.8025 11.2867 57.4041 11.6797 57.4041 12.1648V14.7204H53.3553V5.86795L57.4041 5.84301V8.07175C57.4041 8.55681 57.8025 8.94985 58.2941 8.94985C58.7858 8.94985 59.1841 8.55681 59.1841 7.89027V5.74384C59.6625 5.54797 60 5.08269 60 4.54072V1.3024C60 0.58423 59.4078 0 58.6798 0V0ZM25.521 35.7741C21.884 35.7741 18.9251 32.8548 18.9251 29.2666C18.9251 25.6783 21.884 22.759 25.521 22.759C29.158 22.759 32.117 25.6783 32.117 29.2666C32.117 32.8548 29.1582 35.7741 25.521 35.7741ZM37.0611 31.1836C35.937 31.1836 34.8261 31.0615 33.7454 30.8265C33.8436 30.321 33.897 29.8 33.897 29.2666C33.897 29.1051 33.8911 28.9451 33.8817 28.7859C34.669 28.94 35.4784 29.021 36.3018 29.021C41.8651 29.021 46.3912 24.5555 46.3912 19.0666C46.3912 13.5778 41.865 9.11236 36.3018 9.11236H14.7403C12.4764 9.11236 10.2503 9.88193 8.472 11.2794C8.08751 11.5815 8.02414 12.134 8.33043 12.5133C8.63648 12.8925 9.19648 12.955 9.58109 12.653C11.0667 11.4856 12.8508 10.8686 14.7404 10.8686H36.302C40.8839 10.8686 44.6114 14.5462 44.6114 19.0666C44.6114 23.5871 40.8837 27.2648 36.3019 27.2648C35.3567 27.2648 34.4325 27.1421 33.5476 26.9079C32.516 23.4972 29.3091 21.0029 25.5211 21.0029C21.7339 21.0029 18.5274 23.4964 17.4952 26.9062C16.6102 27.1407 15.686 27.2649 14.7404 27.2649C10.1585 27.2649 6.43087 23.5872 6.43087 19.0668C6.43087 17.8291 6.7069 16.6378 7.25147 15.526C7.46532 15.0894 7.27996 14.5643 6.83732 14.3533C6.39467 14.1422 5.86256 14.3254 5.64871 14.7619C4.98653 16.1139 4.65081 17.5623 4.65081 19.0668C4.65081 24.5557 9.17702 29.0212 14.7404 29.0212C15.5637 29.0212 16.3733 28.9407 17.1605 28.7868C17.1512 28.9458 17.1453 29.1056 17.1453 29.2668C17.1453 29.7999 17.1985 30.3206 17.2968 30.8258C16.2161 31.061 15.1053 31.1839 13.981 31.1839C7.25361 31.1839 1.78029 25.784 1.78029 19.1466C1.78029 12.5092 7.25337 7.10923 13.9808 7.10923H37.0611C43.7886 7.10923 49.2619 12.5091 49.2619 19.1465C49.2619 25.7839 43.7887 31.1836 37.0611 31.1836ZM32.3613 45.4473C30.2949 44.6001 29.2767 43.1593 29.2485 41.043C29.2448 40.7608 29.3532 40.4948 29.5538 40.2942C29.7534 40.0948 30.0195 39.9849 30.3032 39.9849C30.7629 39.9849 31.1744 40.2772 31.3037 40.6958C31.7014 41.9832 32.9106 44.1199 36.5537 44.1197C36.6048 44.1197 36.6565 44.1194 36.7086 44.1184C36.7607 44.1194 36.812 44.1197 36.8633 44.1197C40.5057 44.1197 41.7157 41.9832 42.1135 40.6958C42.2428 40.2772 42.6541 39.9849 43.1138 39.9849C43.3977 39.9849 43.6638 40.0947 43.8633 40.2943C44.064 40.4949 44.1723 40.7607 44.1687 41.043C44.1404 43.1593 43.1222 44.6001 41.0557 45.4473C39.3261 46.1567 37.438 46.1878 36.8997 46.1816C36.7719 46.18 36.6453 46.18 36.5168 46.1816C35.98 46.187 34.091 46.1564 32.3613 45.4473ZM57.4041 16.4766V21.7751H50.7861C50.9533 20.9238 51.0419 20.0451 51.0419 19.1464C51.0419 18.2331 50.9506 17.3406 50.7781 16.4766H57.4041ZM58.2199 4.06702L52.5878 4.0868H52.5813V1.7562H58.2199V4.06702Z" fill="#4A4F64"/>
<path d="M13.526 18.1463C13.7374 18.1463 13.9497 18.0723 14.1198 17.9219L16.4142 15.8926C16.7801 15.5689 16.8109 15.0138 16.4826 14.6526C16.1544 14.2916 15.592 14.2609 15.2258 14.585L12.9314 16.6144C12.5654 16.9381 12.5347 17.4932 12.863 17.8544C13.0388 18.0478 13.2817 18.1463 13.526 18.1463Z" fill="#4A4F64"/>
<path d="M14.0101 20.5143C14.1858 20.7077 14.4289 20.8062 14.6731 20.8062C14.8846 20.8062 15.0969 20.7322 15.2669 20.5818L19.4209 16.9075C19.7869 16.5838 19.8176 16.0286 19.4893 15.6675C19.1612 15.3064 18.5987 15.2759 18.2325 15.6L14.0786 19.2743C13.7126 19.598 13.682 20.1532 14.0101 20.5143Z" fill="#4A4F64"/>
</svg>
