<svg width="60" height="56" viewBox="0 0 60 56" fill="none" xmlns="http://www.w3.org/2000/svg">
<path d="M57.8393 28.9692C57.082 27.9165 56.2336 27.0382 55.3155 26.3597C54.8633 26.0223 54.2245 26.1237 53.8937 26.5814C53.5618 27.0391 53.6601 27.6824 54.1132 28.0177C54.8605 28.5707 55.5599 29.2973 56.1939 30.1775C59.61 34.9283 57.9764 39.8071 51.3383 44.679C45.9312 48.6474 38.2864 51.766 33.1595 52.0932C32.5991 52.1294 32.1729 52.6171 32.2087 53.1842C32.2425 53.7282 32.6904 54.1467 33.223 54.1467C33.2449 54.1467 33.2668 54.1456 33.2889 54.1446C38.845 53.7893 46.7589 50.5805 52.5346 46.341C62.1623 39.275 60.7336 32.9941 57.8393 28.9692Z" fill="#4A4F64"/>
<path d="M26.5065 52.0698C21.3258 51.636 13.9806 48.5969 8.64369 44.6795C5.02476 42.0227 2.86848 39.34 2.23566 36.7032C1.71403 34.531 2.23641 32.336 3.78849 30.1781C4.42592 29.2916 5.12953 28.5622 5.87859 28.011C6.33256 27.6768 6.43257 27.0333 6.1017 26.5747C5.77084 26.1171 5.1349 26.0156 4.68033 26.3489C3.75853 27.0273 2.90469 27.9095 2.14207 28.9694C0.222907 31.638 -0.410951 34.4022 0.257782 37.1874C1.00819 40.3108 3.42677 43.3914 7.44752 46.341C13.0558 50.4584 20.8237 53.656 26.3376 54.1188C26.3664 54.1209 26.3953 54.122 26.423 54.122C26.9464 54.122 27.3916 53.7155 27.4363 53.1798C27.4822 52.6137 27.0658 52.117 26.5065 52.0698Z" fill="#4A4F64"/>
<path d="M51.9788 13.4113C50.6834 12.6566 49.3519 12.2099 48.0205 12.0845C47.4701 12.0262 46.9655 12.4467 46.9127 13.0128C46.8611 13.5778 47.2723 14.0786 47.8317 14.1317C48.869 14.2291 49.9222 14.5855 50.9616 15.1916C55.9961 18.1274 55.9673 24.1315 50.8782 33.0361C44.3493 44.4581 33.2091 54.6806 29.5956 52.5749C29.1097 52.2899 28.4866 52.4596 28.2055 52.9513C27.9244 53.4432 28.0913 54.0716 28.5781 54.3555C29.1942 54.715 29.8865 54.8825 30.6417 54.8825C36.8772 54.8825 47.2892 43.4273 52.6405 34.0641C59.8201 21.5019 56.2434 15.8995 51.9788 13.4113Z" fill="#4A4F64"/>
<path d="M31.7954 52.9519C31.514 52.4601 30.8901 52.2905 30.4053 52.5755C26.7926 54.6783 15.6506 44.4586 9.12316 33.0367C4.03351 24.1321 4.00579 18.128 9.03865 15.1922C9.96164 14.6552 10.8967 14.3119 11.8182 14.1745C12.374 14.0912 12.758 13.568 12.6756 13.0072C12.5932 12.4463 12.0716 12.0669 11.5201 12.1411C10.3447 12.3166 9.16787 12.7442 8.02162 13.4118C3.75705 15.9 0.18059 21.5024 7.36034 34.0647C12.7123 43.429 23.1224 54.8831 29.3588 54.8831C30.1129 54.8831 30.8064 54.7143 31.4226 54.3563C31.9095 54.0719 32.0768 53.4436 31.7954 52.9519Z" fill="#4A4F64"/>
<path d="M48.5652 11.6152C47.4753 8.37017 45.2893 6.31467 42.0671 5.50379C40.7605 5.17362 39.4857 5.11145 38.2784 5.31319C37.7249 5.40653 37.3505 5.93633 37.4429 6.49639C37.5362 7.05554 38.0598 7.43885 38.6142 7.34039C39.5444 7.18472 40.541 7.23575 41.5741 7.49787C44.1167 8.13742 45.7731 9.70016 46.6384 12.2755C47.7037 15.4472 47.5019 20.0581 46.0394 25.9819C44.4486 32.4286 41.609 39.5326 38.4415 44.9858C34.6996 51.4266 31.8093 53.3326 30.3526 52.9632C29.805 52.8306 29.2535 53.1618 29.1184 53.7119C28.9834 54.2631 29.315 54.8212 29.8596 54.9586C30.1519 55.0318 30.4459 55.067 30.74 55.067C34.1868 55.067 37.7398 50.2555 40.1963 46.0257C43.4562 40.4132 46.3792 33.1062 48.0148 26.4799C49.5727 20.1666 49.7576 15.1662 48.5652 11.6152Z" fill="#4A4F64"/>
<path d="M30.5995 53.7123C30.4621 53.1622 29.908 52.8321 29.3653 52.9636C27.9058 53.3319 25.0179 51.4259 21.277 44.9863C18.11 39.5331 15.2693 32.4291 13.6781 25.9824C12.216 20.0585 12.0145 15.4477 13.0798 12.276C13.9447 9.70031 15.6011 8.13756 18.1435 7.49831C19.3467 7.19405 20.4982 7.17297 21.5633 7.43508C22.1084 7.57073 22.6594 7.23138 22.7925 6.67945C22.9253 6.12753 22.5902 5.57228 22.0444 5.43784C20.6559 5.09669 19.1771 5.11972 17.6514 5.50303C14.4288 6.31496 12.2422 8.37047 11.1528 11.6155C9.96 15.1668 10.1453 20.1671 11.7037 26.4802C13.339 33.1065 16.2618 40.4134 19.5217 46.026C21.9783 50.2555 25.5309 55.0673 28.9777 55.0673C29.2717 55.0673 29.5658 55.0324 29.8582 54.9589C30.4028 54.8213 30.7345 54.2634 30.5995 53.7123Z" fill="#4A4F64"/>
<path d="M30.285 0C24.9475 0 18.5844 3.56616 18.5844 20.5555C18.5844 34.8039 23.1425 55.5 30.285 55.5C37.4279 55.5 41.9855 34.8039 41.9855 20.5555C41.9855 3.56601 35.6225 0 30.285 0ZM30.285 53.4444C25.6784 53.4444 20.6194 36.2311 20.6194 20.5555C20.6194 8.27953 23.8714 2.05551 30.285 2.05551C36.6987 2.05551 39.9505 8.27953 39.9505 20.5555C39.9507 36.2311 34.8922 53.4444 30.285 53.4444Z" fill="#4A4F64"/>
</svg>
