<svg width="60" height="56" viewBox="0 0 60 56" fill="none" xmlns="http://www.w3.org/2000/svg">
<path d="M59.9302 21.4847C59.9914 21.3385 60.0103 21.1781 59.9847 21.0218C59.9592 20.8654 59.8903 20.7193 59.7858 20.6002L50.4052 10.3111C50.2452 10.1449 50.0264 10.0481 49.7958 10.0416H42.4219C42.6719 9.60762 43.0149 9.23444 43.4263 8.9489C43.8377 8.66336 44.3073 8.47254 44.8013 8.39018L46.9477 8.03721C47.1397 8.00576 47.3143 7.90708 47.4403 7.75879C47.5663 7.6105 47.6354 7.42226 47.6354 7.22768C47.6354 7.03309 47.5663 6.84485 47.4403 6.69656C47.3143 6.54827 47.1397 6.44959 46.9477 6.41814L44.8013 6.06471C44.1002 5.94972 43.4529 5.61777 42.9504 5.1156C42.4479 4.61343 42.1155 3.96631 42 3.26533L41.6485 1.11939C41.617 0.92737 41.5183 0.752776 41.3701 0.626792C41.2218 0.500809 41.0335 0.431641 40.8389 0.431641C40.6444 0.431641 40.4561 0.500809 40.3078 0.626792C40.1595 0.752776 40.0608 0.92737 40.0294 1.11939L39.676 3.26533C39.5607 3.96644 39.2284 4.61375 38.726 5.11617C38.2236 5.61858 37.5763 5.95082 36.8752 6.06611L34.7292 6.41955C34.5372 6.45099 34.3626 6.54967 34.2366 6.69796C34.1107 6.84625 34.0415 7.0345 34.0415 7.22908C34.0415 7.42366 34.1107 7.61191 34.2366 7.7602C34.3626 7.90849 34.5372 8.00717 34.7292 8.03861L36.8752 8.39158C37.3692 8.47395 37.8388 8.66476 38.2502 8.95031C38.6616 9.23585 39.0046 9.60903 39.2546 10.043H10.2028C9.97225 10.0495 9.75343 10.1463 9.59347 10.3125L0.214247 20.6016C0.0825891 20.7521 0.00893644 20.9446 0.00653058 21.1446C0.00412472 21.3445 0.0731235 21.5387 0.201122 21.6924L8.84112 31.6397C8.55747 31.7764 8.25612 31.8728 7.94581 31.9261L5.79987 32.2796C5.60815 32.3113 5.43392 32.4101 5.30823 32.5583C5.18253 32.7065 5.11354 32.8945 5.11354 33.0888C5.11354 33.2832 5.18253 33.4712 5.30823 33.6194C5.43392 33.7676 5.60815 33.8664 5.79987 33.8981L7.94581 34.2516C8.64701 34.3669 9.2944 34.6993 9.79689 35.2017C10.2994 35.7042 10.6317 36.3516 10.7471 37.0528L11.1005 39.1988C11.1322 39.3905 11.231 39.5647 11.3792 39.6904C11.5274 39.8161 11.7155 39.8851 11.9098 39.8851C12.1041 39.8851 12.2921 39.8161 12.4404 39.6904C12.5886 39.5647 12.6874 39.3905 12.7191 39.1988L13.0725 37.0528C13.0982 36.9101 13.1329 36.7692 13.1766 36.631L29.3808 55.2872C29.4586 55.3745 29.554 55.4443 29.6608 55.4921C29.7675 55.54 29.8831 55.5647 30 55.5647C30.117 55.5647 30.2326 55.54 30.3393 55.4921C30.446 55.4443 30.5414 55.3745 30.6192 55.2872L59.7989 21.6938C59.8205 21.6671 59.9236 21.4997 59.9302 21.4847V21.4847ZM30 11.9508L39.6389 20.3344H20.3611L30 11.9508ZM40.6739 21.975L30 52.2788L19.3261 21.975H40.6739ZM49.8488 12.1374L57.3216 20.3344H43.5047L49.8488 12.1374ZM38.5594 7.22908C39.5481 6.73918 40.3488 5.93837 40.8385 4.94955C41.3285 5.9383 42.1292 6.73907 43.118 7.22908C42.1291 7.7187 41.3283 8.51959 40.8389 9.50861C40.3492 8.51966 39.5484 7.71881 38.5594 7.22908V7.22908ZM39.7566 11.6822L40.0294 13.3378C40.0612 13.5296 40.16 13.7039 40.3082 13.8297C40.4565 13.9554 40.6445 14.0245 40.8389 14.0246C40.8883 14.0245 40.9375 14.0201 40.9861 14.0114C41.1525 13.981 41.3054 13.8999 41.424 13.7792C41.5425 13.6586 41.6209 13.5043 41.6485 13.3374L41.9236 11.6822H48.1252L47.3813 12.6431L41.715 19.9655L32.1933 11.6836L39.7566 11.6822ZM18.285 19.9655L12.6188 12.6446L11.8749 11.6836H27.8067L18.285 19.9655ZM10.1513 12.1374L16.4953 20.3344H2.67847L10.1513 12.1374ZM9.63003 33.0905C10.6188 32.6008 11.4197 31.8001 11.9096 30.8114C12.4009 31.7988 13.2009 32.599 14.1882 33.0905C13.2021 33.584 12.4026 34.3838 11.9096 35.37C11.4199 34.3806 10.6191 33.5791 9.63003 33.0886V33.0905ZM14.0719 35.1614C14.5679 34.6852 15.1955 34.3689 15.8733 34.2535L18.0192 33.9C18.211 33.8683 18.3852 33.7695 18.5109 33.6213C18.6366 33.4731 18.7056 33.2851 18.7056 33.0907C18.7056 32.8964 18.6366 32.7084 18.5109 32.5602C18.3852 32.4119 18.211 32.3132 18.0192 32.2814L15.8733 31.928C15.172 31.8125 14.5245 31.48 14.0221 30.9772C13.5196 30.4744 13.1875 29.8268 13.0725 29.1253L12.7191 26.9794C12.6885 26.7921 12.5938 26.6213 12.4513 26.4962C12.3087 26.371 12.127 26.2993 11.9374 26.2932C11.7477 26.2872 11.5619 26.3472 11.4116 26.4631C11.2614 26.5789 11.156 26.7434 11.1136 26.9283C11.1094 26.9452 11.1033 26.9616 11.1005 26.9794L10.7466 29.1253C10.6772 29.6667 10.4568 30.1776 10.1105 30.5996L2.6194 21.975H17.5871L27.7969 50.9597L14.0719 35.1614ZM32.2032 50.9597L42.413 21.975H57.3807L32.2032 50.9597Z" fill="#4A4F64"/>
</svg>
