<svg xmlns="http://www.w3.org/2000/svg" width="640" height="480"><defs><clipPath id="a"><path fill-opacity=".67" d="M-85.333 0h682.67v512h-682.67z"/></clipPath></defs><g fill-rule="evenodd" clip-path="url(#a)" transform="matrix(.9 0 0 .9 80 0)"><path fill="#009" d="M-85.333 0h682.67v512h-682.67V0z"/><path fill="#FC0" d="M56.49 0l510.977 512.267v-512L56.49 0z"/><path fill="#FFF" d="M439.883 481.532l-27.865-20.36-28.64 20.262 10.83-33.243-28.18-20.527 34.913.07 10.856-33.19 10.725 33.232 34.924.1-27.942 20.656 10.38 33.002zm81.294 10.343l-34.923-.1-10.725-33.232-10.856 33.192-34.914-.07 28.18 20.527-10.828 33.243 28.64-20.26 27.864 20.358-10.38-33 27.94-20.658zm-155.54-107.21l27.94-20.656-34.922-.1-10.725-33.233-10.855 33.192-34.914-.072 28.18 20.528-10.827 33.243 28.64-20.262 27.864 20.36-10.38-33.002zm-64.356-64.444l27.943-20.656-34.923-.1-10.725-33.232-10.855 33.192-34.914-.07 28.18 20.527-10.828 33.244 28.64-20.26 27.864 20.358-10.38-33zm-63.644-63.643l27.94-20.658-34.92-.1-10.726-33.233-10.855 33.192-34.914-.072 28.18 20.528-10.827 33.243 28.64-20.264 27.864 20.36-10.38-33zM173.19 192.31l27.942-20.658-34.922-.1-10.725-33.232-10.855 33.192-34.914-.07 28.18 20.527-10.828 33.242 28.64-20.262 27.864 20.36-10.38-33zm-63.643-63.912l27.94-20.658-34.92-.1L91.84 74.41 80.985 107.6l-34.914-.07 28.18 20.527L63.424 161.3l28.64-20.262 27.864 20.36-10.38-33zm-64-64l27.94-20.658-34.92-.1L27.84 10.41 16.985 43.6l-34.914-.07 28.18 20.527L-.575 97.3l28.64-20.262 27.864 20.36-10.38-33zm-64-64L9.487-20.26l-34.92-.098-10.727-33.234L-47.015-20.4l-34.914-.07L-53.75.056-64.575 33.3l28.64-20.263 27.864 20.36-10.38-33z"/></g></svg>