<svg xmlns="http://www.w3.org/2000/svg" width="640" height="480"><g fill-rule="evenodd"><g stroke-width="1pt"><path fill="#bd3d44" d="M0 0h912.01v36.923H0zm0 73.847h912.01v36.923H0zm0 73.847h912.01v36.923H0zm0 73.847h912.01v36.924H0zm0 73.847h912.01v36.924H0zm0 73.847h912.01v36.924H0zm0 73.847h912.01v36.925H0z"/><path fill="#fff" d="M0 36.923h912.01v36.924H0zm0 73.847h912.01v36.924H0zm0 73.847h912.01v36.924H0zm0 73.847h912.01v36.924H0zm0 73.847h912.01v36.924H0zm0 73.848h912.01v36.923H0z"/></g><path fill="#192f5d" d="M0 0h364.8v258.46H0z"/><path fill="#fff" d="M30.4 11.063l3.32 10.214h10.74l-8.69 6.315 3.32 10.215-8.69-6.314-8.69 6.314 3.32-10.215-8.69-6.315h10.74zm60.8 0l3.32 10.214h10.742l-8.69 6.315 3.32 10.215-8.692-6.314-8.69 6.314 3.32-10.215-8.69-6.315h10.74zm60.802 0l3.32 10.214h10.74l-8.69 6.315 3.32 10.215-8.69-6.314-8.69 6.314 3.32-10.215-8.69-6.315h10.742zm60.8 0l3.318 10.214h10.74l-8.69 6.315 3.32 10.215-8.69-6.314-8.69 6.314 3.32-10.215-8.69-6.315h10.742zm60.8 0l3.32 10.214h10.74l-8.69 6.315 3.32 10.215-8.69-6.314-8.69 6.314 3.32-10.215-8.69-6.315h10.74zm60.802 0l3.32 10.214h10.74l-8.69 6.315 3.32 10.215-8.69-6.314-8.69 6.314 3.32-10.215-8.69-6.315h10.742zM60.802 36.91l3.318 10.214h10.742l-8.69 6.313 3.32 10.216-8.69-6.313-8.69 6.313 3.32-10.216-8.69-6.313h10.74zm60.798 0l3.32 10.214h10.74l-8.69 6.313 3.32 10.216-8.69-6.313-8.69 6.313 3.32-10.216-8.69-6.313h10.74zm60.802 0l3.32 10.214h10.74l-8.69 6.313 3.32 10.216-8.69-6.313-8.69 6.313 3.32-10.216-8.69-6.313h10.74zm60.8 0l3.32 10.214h10.742l-8.69 6.313 3.32 10.216-8.69-6.313-8.69 6.313 3.32-10.216-8.69-6.313h10.742zm60.8 0l3.32 10.214h10.74l-8.69 6.313 3.32 10.216L304 57.34l-8.69 6.313 3.32-10.216-8.69-6.313h10.74zM30.4 62.754l3.32 10.215h10.74l-8.69 6.314L39.09 89.5l-8.69-6.314-8.69 6.313 3.32-10.216-8.69-6.314h10.74zm60.8 0l3.32 10.215h10.742l-8.69 6.314L99.89 89.5 91.2 83.185 82.51 89.5l3.32-10.216-8.69-6.314h10.74zm60.802 0l3.32 10.215h10.74l-8.69 6.314 3.32 10.215-8.69-6.314-8.69 6.313 3.32-10.216-8.69-6.314h10.742zm60.8 0l3.318 10.215h10.74l-8.69 6.314 3.32 10.215-8.69-6.314-8.69 6.313 3.32-10.216-8.69-6.314h10.742zm60.8 0l3.32 10.215h10.74l-8.69 6.314 3.32 10.215-8.69-6.314-8.69 6.313 3.32-10.216-8.69-6.314h10.74zm60.802 0l3.32 10.215h10.74l-8.69 6.314 3.32 10.215-8.69-6.314-8.69 6.313 3.32-10.216-8.69-6.314h10.742zM60.802 88.6l3.318 10.217h10.742l-8.69 6.313 3.32 10.216-8.69-6.313-8.69 6.313 3.32-10.216-8.69-6.313h10.74zm60.798 0l3.32 10.217h10.74l-8.69 6.313 3.32 10.216-8.69-6.313-8.69 6.313 3.32-10.216-8.69-6.313h10.74zm60.802 0l3.32 10.217h10.74l-8.69 6.313 3.32 10.216-8.69-6.313-8.69 6.313 3.32-10.216-8.69-6.313h10.74zm60.8 0l3.32 10.217h10.742l-8.69 6.313 3.32 10.216-8.69-6.313-8.69 6.313 3.32-10.216-8.69-6.313h10.74zm60.8 0l3.32 10.217h10.74l-8.69 6.313 3.32 10.216-8.69-6.313-8.69 6.313 3.32-10.216-8.69-6.313h10.74zM30.4 114.45l3.32 10.215h10.74l-8.69 6.314 3.32 10.215-8.69-6.313-8.69 6.312 3.32-10.215-8.69-6.314h10.74zm60.8 0l3.32 10.215h10.742l-8.69 6.314 3.32 10.215-8.692-6.313-8.69 6.312 3.32-10.215-8.69-6.314h10.74zm60.802 0l3.32 10.215h10.74l-8.69 6.314 3.32 10.215-8.69-6.313-8.69 6.312 3.32-10.215-8.69-6.314h10.742zm60.8 0l3.318 10.215h10.74l-8.69 6.314 3.32 10.215-8.69-6.313-8.69 6.312 3.32-10.215-8.69-6.314h10.742zm60.8 0l3.32 10.215h10.74l-8.69 6.314 3.32 10.215-8.69-6.313-8.69 6.312 3.32-10.215-8.69-6.314h10.74zm60.802 0l3.32 10.215h10.74l-8.69 6.314 3.32 10.215-8.69-6.313-8.69 6.312 3.32-10.215-8.69-6.314h10.742zM60.802 140.294l3.318 10.216h10.742l-8.69 6.313 3.32 10.216-8.69-6.314-8.69 6.313 3.32-10.217-8.69-6.313h10.74zm60.798 0l3.32 10.216h10.74l-8.69 6.313 3.32 10.216-8.69-6.314-8.69 6.313 3.32-10.217-8.69-6.313h10.74zm60.802 0l3.32 10.216h10.74l-8.69 6.313 3.32 10.216-8.69-6.314-8.69 6.313 3.32-10.217-8.69-6.313h10.74zm60.8 0l3.32 10.216h10.742l-8.69 6.313 3.32 10.216-8.69-6.314-8.69 6.313 3.32-10.217-8.69-6.313h10.74zm60.8 0l3.32 10.216h10.74l-8.69 6.313 3.32 10.216-8.69-6.314-8.69 6.313 3.32-10.217-8.69-6.313h10.74zM30.4 166.14l3.32 10.216h10.74l-8.69 6.314 3.32 10.215-8.69-6.313-8.69 6.313 3.32-10.215-8.69-6.314h10.74zm60.8 0l3.32 10.216h10.742l-8.69 6.314 3.32 10.215-8.692-6.313-8.69 6.313 3.32-10.215-8.69-6.314h10.74zm60.802 0l3.32 10.216h10.74l-8.69 6.314 3.32 10.215-8.69-6.313-8.69 6.313 3.32-10.215-8.69-6.314h10.742zm60.8 0l3.318 10.216h10.74l-8.69 6.314 3.32 10.215-8.69-6.313-8.69 6.313 3.32-10.215-8.69-6.314h10.742zm60.8 0l3.32 10.216h10.74l-8.69 6.314 3.32 10.215-8.69-6.313-8.69 6.313 3.32-10.215-8.69-6.314h10.74zm60.802 0l3.32 10.216h10.74l-8.69 6.314 3.32 10.215-8.69-6.313-8.69 6.313 3.32-10.215-8.69-6.314h10.742zM60.802 191.988l3.318 10.216h10.742l-8.69 6.313 3.32 10.216-8.69-6.313-8.69 6.312 3.32-10.216-8.69-6.313h10.74zm60.798 0l3.32 10.216h10.74l-8.69 6.313 3.32 10.216-8.69-6.313-8.69 6.312 3.32-10.216-8.69-6.313h10.74zm60.802 0l3.32 10.216h10.74l-8.69 6.313 3.32 10.216-8.69-6.313-8.69 6.312 3.32-10.216-8.69-6.313h10.74zm60.8 0l3.32 10.216h10.742l-8.69 6.313 3.32 10.216-8.69-6.313-8.69 6.312 3.32-10.216-8.69-6.313h10.74zm60.8 0l3.32 10.216h10.74l-8.69 6.313 3.32 10.216-8.69-6.313-8.69 6.312 3.32-10.216-8.69-6.313h10.74zM30.4 217.834l3.32 10.215h10.74l-8.69 6.313 3.32 10.215-8.69-6.313-8.69 6.313 3.32-10.215-8.69-6.314h10.74zm60.8 0l3.32 10.215h10.742l-8.69 6.313 3.32 10.215-8.692-6.313-8.69 6.313 3.32-10.215-8.69-6.314h10.74zm60.802 0l3.32 10.215h10.74l-8.69 6.313 3.32 10.215-8.69-6.313-8.69 6.313 3.32-10.215-8.69-6.314h10.742zm60.8 0l3.318 10.215h10.74l-8.69 6.313 3.32 10.215-8.69-6.313-8.69 6.313 3.32-10.215-8.69-6.314h10.742zm60.8 0l3.32 10.215h10.74l-8.69 6.313 3.32 10.215-8.69-6.313-8.69 6.313 3.32-10.215-8.69-6.314h10.74zm60.802 0l3.32 10.215h10.74l-8.69 6.313 3.32 10.215-8.69-6.313-8.69 6.313 3.32-10.215-8.69-6.314h10.742z"/></g></svg>