<svg width="40" height="40" viewBox="0 0 40 40" fill="none" xmlns="http://www.w3.org/2000/svg">
<path d="M26.5958 20.8566C26.2725 20.4483 26.365 20.2666 26.5958 19.9016C26.6 19.8975 29.2692 16.2091 29.5442 14.9583L29.5458 14.9575C29.6825 14.5016 29.5458 14.1666 28.885 14.1666H26.6983C26.1417 14.1666 25.885 14.4541 25.7475 14.7758C25.7475 14.7758 24.6342 17.4408 23.0592 19.1683C22.5508 19.6675 22.3158 19.8275 22.0383 19.8275C21.9017 19.8275 21.6892 19.6675 21.6892 19.2116V14.9575C21.6892 14.4108 21.5333 14.1666 21.0725 14.1666H17.6342C17.285 14.1666 17.0775 14.4216 17.0775 14.6591C17.0775 15.1775 17.865 15.2966 17.9467 16.755V19.9191C17.9467 20.6125 17.8208 20.74 17.5417 20.74C16.7983 20.74 14.9942 18.0641 13.925 15.0016C13.7092 14.4075 13.4983 14.1675 12.9375 14.1675H10.75C10.1258 14.1675 9.99999 14.455 9.99999 14.7766C9.99999 15.345 10.7433 18.1708 13.4567 21.9041C15.265 24.4525 17.8117 25.8333 20.1283 25.8333C21.5208 25.8333 21.6908 25.5266 21.6908 24.9991C21.6908 22.5641 21.565 22.3341 22.2625 22.3341C22.5858 22.3341 23.1425 22.4941 24.4425 23.7233C25.9283 25.1808 26.1725 25.8333 27.0042 25.8333H29.1908C29.8142 25.8333 30.13 25.5266 29.9483 24.9216C29.5325 23.6491 26.7225 21.0316 26.5958 20.8566Z" fill="#242735"/>
<path d="M40 20C40 31.0457 31.0457 40 20 40C8.9543 40 0 31.0457 0 20C0 8.9543 8.9543 0 20 0C31.0457 0 40 8.9543 40 20ZM1 20C1 30.4934 9.50659 39 20 39C30.4934 39 39 30.4934 39 20C39 9.50659 30.4934 1 20 1C9.50659 1 1 9.50659 1 20Z" fill="#242735"/>
</svg>
