<svg width="60" height="60" viewBox="0 0 60 60" fill="none" xmlns="http://www.w3.org/2000/svg">
<path d="M53.519 54.3159C52.9927 53.6843 52.1506 53.579 51.4137 53.7896C50.7822 54.0002 50.0453 54.0002 49.4137 53.7896L34.9034 48.8429C35.3311 48.4455 35.642 47.9465 35.8347 47.3685L38.9925 38.1053C39.8346 35.3685 38.361 32.4211 35.6241 31.4738L31.6241 30.1054L32.5715 27.158L40.4662 29.7896C41.9398 30.3159 43.624 29.6843 44.3609 28.3159C44.7819 27.4738 44.782 26.5265 44.4661 25.6844C44.1503 24.8423 43.4136 24.2107 42.5714 23.8949L36.5714 21.8949L37.4136 19.3686C38.1504 16.8422 36.8873 14.2107 34.3609 13.3686L32.3609 12.737C29.8346 12.0002 27.203 13.2633 26.3609 15.7897L24.1855 22.1343L11.3454 17.8677L11.6242 17.0527C11.8348 16.4212 11.519 15.8948 10.9927 15.6843C10.3612 15.4737 9.83477 15.7895 9.6243 16.3158L9.32324 17.1958L7.30844 16.5263C6.67692 16.3158 6.15051 16.6315 5.94004 17.1579C5.72945 17.7895 6.04527 18.3159 6.57156 18.5263L8.63559 19.2056L8.25578 20.3158C8.0452 20.9473 8.36102 21.4737 8.88731 21.6842C8.99254 21.7894 9.09789 21.7894 9.20313 21.7894C9.62418 21.7894 10.0452 21.4736 10.2557 21.0525L10.6598 19.8715L23.5114 24.1007L22.5715 26.8421C21.0979 31.5789 23.6241 36.6316 28.3611 38.2104L29.8347 38.6315C30.1505 38.7367 30.361 38.9473 30.4662 39.1578C30.6768 39.3684 30.6768 39.6841 30.5714 39.8947L28.782 45.0525C28.5995 45.5998 28.5584 46.1645 28.6367 46.7064L12.3609 41.1578C11.3083 40.842 10.0451 41.4736 9.7293 42.5262L9.09777 44.5263C8.88719 45.0525 8.99254 45.5788 9.20301 46.1052C9.51883 46.6315 9.93988 46.9473 10.4662 47.1578L47.5187 59.6841C48.045 59.8946 48.6767 59.9999 49.203 59.9999C49.9398 59.9999 50.7819 59.7893 51.4135 59.5789C52.6766 58.9473 53.624 57.8946 54.045 56.5263C54.2559 55.6843 54.0453 54.8422 53.519 54.3159ZM28.3611 16.4211C28.7821 15.3685 29.8347 14.5264 30.8874 14.5264C31.098 14.5264 31.3084 14.5264 31.8347 14.5264L33.8348 15.1579C35.2032 15.6842 35.94 17.1579 35.519 18.5263L34.3611 22C34.3611 22.3158 34.3611 22.6315 34.4663 22.8421C34.5715 23.0526 34.7821 23.2632 35.0979 23.3684L42.0453 25.6841C42.3611 25.7894 42.5716 26 42.6768 26.3157C42.8874 26.6315 42.782 26.9472 42.6768 27.263C42.4662 27.6841 41.8347 27.8945 41.3084 27.6841L32.4663 24.7367C32.324 24.7367 32.1822 24.7372 32.0494 24.7469L31.6247 24.6058C31.4529 24.3319 31.3963 23.9904 31.5189 23.6841L32.4663 20.6315C32.6767 20 32.361 19.4736 31.8347 19.2631C31.2032 19.0525 30.6768 19.3683 30.4663 19.8946L29.519 22.9472C29.4246 23.2491 29.375 23.5543 29.3656 23.8551L26.2673 22.8256L28.3611 16.4211ZM29.2032 36.1053C25.5189 34.9473 23.6242 30.9474 24.7821 27.3685L25.6232 24.7957L30.4975 26.3997C30.5703 26.4591 30.6463 26.5152 30.7253 26.5681L29.4136 30.421C29.203 31.0525 29.5189 31.5789 30.0452 31.7894L35.0978 33.4736C36.782 33.9999 37.6241 35.7893 37.0978 37.4736L34.0452 46.6314C33.8347 47.0525 33.6242 47.3683 33.2031 47.5788C32.7821 47.7892 32.361 47.7892 31.94 47.684C31.0978 47.3682 30.5716 46.5261 30.8874 45.6839L32.6768 40.5261C32.8873 39.6839 32.8873 38.8418 32.4663 38.105C32.1504 37.3681 31.5189 36.8418 30.6768 36.526L29.2032 36.1053ZM50.5716 57.4737C49.8347 57.8948 48.9926 57.8948 48.1505 57.6843L11.0979 45.1579L11.7295 43.1579L48.782 55.6841C49.94 56.1052 51.0978 56 52.1505 55.6841C51.8348 56.4211 51.3085 57.0527 50.5716 57.4737Z" fill="#4A4F64"/>
<path d="M36.3611 12.6315C39.8348 12.6315 42.6769 9.78937 42.6769 6.3157C42.6769 2.84215 39.8348 0 36.3611 0C32.8874 0 30.0452 2.84215 30.0452 6.31582C30.0452 9.78949 32.8874 12.6315 36.3611 12.6315ZM36.3611 2.10527C38.6768 2.10527 40.5716 3.99996 40.5716 6.31582C40.5716 8.63156 38.6769 10.5264 36.3611 10.5264C34.0452 10.5264 32.1505 8.63168 32.1505 6.31582C32.1505 3.99996 34.0453 2.10527 36.3611 2.10527Z" fill="#4A4F64"/>
</svg>
