<svg width="52" height="52" viewBox="0 0 52 52" fill="none" xmlns="http://www.w3.org/2000/svg">
<circle cx="26" cy="26" r="25" stroke="white" stroke-width="1.5"/>
<path d="M33.1258 39C32.9305 39 32.7365 38.9354 32.5701 38.8093L26.2841 34.0423L22.9127 36.7544C22.6483 36.967 22.3074 37.0205 22.0004 36.8978C21.6938 36.7748 21.4609 36.4908 21.3778 36.1387L19.6849 28.9664L13.6361 26.3807C13.2553 26.2179 13.0028 25.8106 13 25.3548C12.9973 24.899 13.2448 24.4878 13.6237 24.3192L36.6234 14.0879C36.7277 14.0383 36.8382 14.0097 36.9495 14.002C36.9894 13.9994 37.0294 13.9994 37.0691 14.0019C37.2997 14.0172 37.5263 14.1222 37.7031 14.3161C37.7214 14.3361 37.7388 14.3566 37.7553 14.378C37.9018 14.5651 37.9823 14.7931 37.9975 15.0254C38.0011 15.0839 38.0009 15.143 37.9963 15.2022C37.9931 15.2443 37.9877 15.2864 37.98 15.3281L34.0978 38.1008C34.0354 38.4666 33.8127 38.7728 33.505 38.9155C33.3829 38.9721 33.254 39 33.1258 39ZM26.8361 31.7871L32.4354 36.0333L35.4562 18.3136L24.546 30.0505L26.8097 31.7672C26.8188 31.7736 26.8275 31.7804 26.8361 31.7871ZM22.1748 30.8429L22.9246 34.0188L24.5398 32.7194L22.4247 31.1154C22.3264 31.041 22.2423 30.9484 22.1748 30.8429ZM16.7124 25.3266L20.8658 27.1019C21.1633 27.229 21.3879 27.5087 21.4692 27.853L21.9959 30.0847C22.0201 29.8273 22.1244 29.5851 22.294 29.4026L32.6898 18.2192L16.7124 25.3266Z" fill="white"/>
</svg>
