<svg xmlns="http://www.w3.org/2000/svg" xmlns:xlink="http://www.w3.org/1999/xlink" width="640" height="480"><path fill="#0038a8" d="M0 0h640v240H0z"/><path fill="#ce1126" d="M0 240h640v240H0z"/><path fill="#fff" d="M415.692 240L0 480V0"/><g fill="#fcd116" transform="matrix(5.3 0 0 5.3 149.3 240)"><circle r="9"/><g id="d"><g id="c"><g id="b"><path d="M-19 0l1.178 1.178L0 0l-17.822-1.178z"/><path id="a" d="M-17.006 2.232l.96.962L0 0z"/><use width="100%" height="100%" transform="scale(1 -1)" xlink:href="#a"/></g><use width="100%" height="100%" transform="rotate(45)" xlink:href="#b"/></g><use width="100%" height="100%" transform="rotate(90)" xlink:href="#c"/></g><use width="100%" height="100%" transform="scale(-1)" xlink:href="#d"/><g transform="translate(-2)"><g id="f" transform="translate(38)"><path id="e" d="M5 0L1.618 1.176l-.073 3.58-2.163-2.854-3.427 1.037L-2 0z"/><use width="100%" height="100%" transform="scale(1 -1)" xlink:href="#e"/></g><use width="100%" height="100%" transform="rotate(120)" xlink:href="#f"/><use width="100%" height="100%" transform="rotate(-120)" xlink:href="#f"/></g></g></svg>