<svg width="20" height="20" viewBox="0 0 20 20" fill="none" xmlns="http://www.w3.org/2000/svg">
<g clip-path="url(#clip0)">
<path d="M15.8203 6.66672C13.9819 6.66672 12.487 5.17166 12.487 3.33328C12.487 1.49506 13.9819 0 15.8203 0C17.6587 0 19.1536 1.49506 19.1536 3.33328C19.1536 5.17166 17.6587 6.66672 15.8203 6.66672ZM15.8203 1.25C14.6711 1.25 13.737 2.18506 13.737 3.33328C13.737 4.48166 14.6711 5.41672 15.8203 5.41672C16.9694 5.41672 17.9036 4.48166 17.9036 3.33328C17.9036 2.18506 16.9694 1.25 15.8203 1.25Z" fill="#4A4F64"/>
<path d="M15.8203 20C13.9819 20 12.487 18.505 12.487 16.6668C12.487 14.8284 13.9819 13.3333 15.8203 13.3333C17.6587 13.3333 19.1536 14.8284 19.1536 16.6668C19.1536 18.505 17.6587 20 15.8203 20ZM15.8203 14.5833C14.6711 14.5833 13.737 15.5184 13.737 16.6668C13.737 17.815 14.6711 18.75 15.8203 18.75C16.9694 18.75 17.9036 17.815 17.9036 16.6668C17.9036 15.5184 16.9694 14.5833 15.8203 14.5833Z" fill="#4A4F64"/>
<path d="M4.15359 13.3332C2.31537 13.3332 0.820312 11.8383 0.820312 9.99996C0.820312 8.16158 2.31537 6.66668 4.15359 6.66668C5.99197 6.66668 7.48703 8.16158 7.48703 9.99996C7.48703 11.8383 5.99197 13.3332 4.15359 13.3332ZM4.15359 7.91668C3.00446 7.91668 2.07031 8.85159 2.07031 9.99996C2.07031 11.1483 3.00446 12.0832 4.15359 12.0832C5.30289 12.0832 6.23703 11.1483 6.23703 9.99996C6.23703 8.85159 5.30289 7.91668 4.15359 7.91668Z" fill="#4A4F64"/>
<path d="M6.5 8.99981C6.20993 8.99981 6.15335 8.76973 6 8.49981C5.77249 8.10064 5.30869 8.2706 5.70786 8.04217L13.4403 3.63391C13.8394 3.40472 13.2118 4.09953 13.4403 4.50023C13.6678 4.8994 14.6645 4.85385 14.2653 5.08227L6.53275 9.49054C6.40275 9.56469 6.63992 8.99981 6.5 8.99981Z" fill="#4A4F64"/>
<path d="M13.5 16.0001C13.3599 16.0001 13.5712 16.4401 13.4411 16.3659L5.70862 11.9576C5.30945 11.7301 6.5 11.5001 6.5 11.5001C6.5 11.5001 6.13358 10.2801 6.53366 10.5093L14.2662 14.9175C14.6654 15.145 13.5 15.5001 13.5 15.5001C13.5 15.5001 13.7892 16.0001 13.5 16.0001Z" fill="#4A4F64"/>
</g>
<defs>
<clipPath id="clip0">
<rect width="20" height="20" fill="white"/>
</clipPath>
</defs>
</svg>
