<svg width="14" height="14" viewBox="0 0 14 14" fill="none" xmlns="http://www.w3.org/2000/svg">
<g clip-path="url(#clip0)">
<path d="M7 10.714C6.32143 10.714 5.76953 11.266 5.76953 11.9445C5.76953 12.623 6.32143 13.1749 7 13.1749C7.67847 13.1749 8.23047 12.623 8.23047 11.9445C8.23047 11.266 7.67847 10.714 7 10.714Z" fill="#4DC74B"/>
<path d="M7 0.875C4.46857 0.875 2.1216 1.70055 0.154882 3.26181C-0.0229596 3.40355 -0.0512646 3.66161 0.0887653 3.83827L0.659993 4.55743C0.801946 4.73613 1.05787 4.75899 1.23613 4.61661C2.88285 3.30186 4.93406 2.51082 7.20508 2.51082C9.36588 2.51082 11.3348 3.22389 12.9357 4.42499C13.1134 4.55829 13.3648 4.52603 13.503 4.35214L13.9111 3.83827C14.0515 3.6615 14.0228 3.40344 13.8451 3.26181C11.8784 1.70055 9.53144 0.875 7 0.875Z" fill="#4DC74B"/>
<path d="M7.00029 4.15515C5.2159 4.15515 3.54002 4.73792 2.15393 5.84086C1.98057 5.97886 1.9574 6.23788 2.09518 6.41145L2.66534 7.12923C2.80922 7.31038 3.06845 7.33003 3.24907 7.18552C4.33556 6.31639 5.70883 5.79215 7.20537 5.79215C8.59712 5.79215 9.8858 6.24183 10.9339 7.00329C11.1115 7.13232 11.3594 7.09878 11.496 6.92682L11.9053 6.41145C12.0455 6.23468 12.0169 5.97662 11.8392 5.83498C10.4546 4.73589 8.78148 4.15515 7.00029 4.15515Z" fill="#4DC74B"/>
<path d="M4.18211 8.42031C4.01206 8.55671 3.99625 8.81338 4.1318 8.98418L4.70025 9.70046C4.83878 9.87499 5.09524 9.91206 5.26753 9.77064C5.79635 9.33677 6.46905 9.07347 7.20519 9.07347C7.84104 9.07347 8.42637 9.27439 8.91525 9.6086C9.08572 9.72503 9.32049 9.67451 9.44888 9.51279L9.86843 8.98418C10.0038 8.81349 9.98785 8.5565 9.81791 8.42021C8.21542 7.13547 5.7846 7.13547 4.18211 8.42031Z" fill="#4DC74B"/>
</g>
<defs>
<clipPath id="clip0">
<rect width="14" height="14" fill="white"/>
</clipPath>
</defs>
</svg>
