<svg width="50" height="50" viewBox="0 0 50 50" fill="none" xmlns="http://www.w3.org/2000/svg">
<path d="M33.2448 26.0708C32.8406 25.5604 32.9562 25.3333 33.2448 24.8771C33.25 24.8718 36.5864 20.2614 36.9302 18.6979L36.9323 18.6968C37.1031 18.1271 36.9323 17.7083 36.1062 17.7083H33.3729C32.6771 17.7083 32.3562 18.0677 32.1844 18.4698C32.1844 18.4698 30.7927 21.801 28.8239 23.9604C28.1885 24.5843 27.8948 24.7843 27.5479 24.7843C27.3771 24.7843 27.1115 24.5843 27.1115 24.0146V18.6968C27.1115 18.0135 26.9167 17.7083 26.3406 17.7083H22.0427C21.6062 17.7083 21.3469 18.0271 21.3469 18.3239C21.3469 18.9718 22.3312 19.1208 22.4333 20.9437V24.8989C22.4333 25.7656 22.276 25.925 21.9271 25.925C20.9979 25.925 18.7427 22.5802 17.4062 18.7521C17.1364 18.0093 16.8729 17.7093 16.1719 17.7093H13.4375C12.6573 17.7093 12.5 18.0687 12.5 18.4708C12.5 19.1812 13.4292 22.7135 16.8208 27.3802C19.0812 30.5656 22.2646 32.2916 25.1604 32.2916C26.901 32.2916 27.1135 31.9083 27.1135 31.2489C27.1135 28.2052 26.9562 27.9177 27.8281 27.9177C28.2323 27.9177 28.9281 28.1177 30.5531 29.6541C32.4104 31.476 32.7156 32.2916 33.7552 32.2916H36.4885C37.2677 32.2916 37.6625 31.9083 37.4354 31.1521C36.9156 29.5614 33.4031 26.2896 33.2448 26.0708Z" fill="white"/>
<path d="M50 25C50 38.8071 38.8071 50 25 50C11.1929 50 0 38.8071 0 25C0 11.1929 11.1929 0 25 0C38.8071 0 50 11.1929 50 25ZM1.25 25C1.25 38.1168 11.8832 48.75 25 48.75C38.1168 48.75 48.75 38.1168 48.75 25C48.75 11.8832 38.1168 1.25 25 1.25C11.8832 1.25 1.25 11.8832 1.25 25Z" fill="white"/>
</svg>
