<svg width="50" height="50" viewBox="0 0 50 50" fill="none" xmlns="http://www.w3.org/2000/svg">
<path d="M50 25C50 38.8071 38.8071 50 25 50C11.1929 50 0 38.8071 0 25C0 11.1929 11.1929 0 25 0C38.8071 0 50 11.1929 50 25ZM1.25 25C1.25 38.1168 11.8832 48.75 25 48.75C38.1168 48.75 48.75 38.1168 48.75 25C48.75 11.8832 38.1168 1.25 25 1.25C11.8832 1.25 1.25 11.8832 1.25 25Z" fill="white"/>
<path d="M30.7327 12.5H19.2673C15.5357 12.5 12.5 15.5357 12.5 19.2673V30.7329C12.5 34.4642 15.5357 37.5 19.2673 37.5H30.7329C34.4642 37.5 37.5 34.4642 37.5 30.7329V19.2673C37.5 15.5357 34.4642 12.5 30.7327 12.5ZM25 31.8357C21.2307 31.8357 18.1642 28.7693 18.1642 25C18.1642 21.2307 21.2307 18.1642 25 18.1642C28.7693 18.1642 31.8357 21.2307 31.8357 25C31.8357 28.7693 28.7693 31.8357 25 31.8357ZM31.9992 19.7763C30.8853 19.7763 29.9793 18.8703 29.9793 17.7565C29.9793 16.6426 30.8853 15.7364 31.9992 15.7364C33.1131 15.7364 34.0192 16.6426 34.0192 17.7565C34.0192 18.8703 33.1131 19.7763 31.9992 19.7763Z" fill="white"/>
<path d="M24.9996 19.6298C22.0387 19.6298 19.6295 22.0388 19.6295 25C19.6295 27.9609 22.0387 30.3701 24.9996 30.3701C27.9608 30.3701 30.3698 27.9609 30.3698 25C30.3698 22.0388 27.9608 19.6298 24.9996 19.6298Z" fill="white"/>
<path d="M31.9996 17.2021C31.694 17.2021 31.4453 17.4509 31.4453 17.7564C31.4453 18.062 31.694 18.3107 31.9996 18.3107C32.3053 18.3107 32.5541 18.0622 32.5541 17.7564C32.5541 17.4507 32.3053 17.2021 31.9996 17.2021Z" fill="white"/>
</svg>
