<svg width="52" height="52" viewBox="0 0 52 52" fill="none" xmlns="http://www.w3.org/2000/svg">
<circle cx="26" cy="26" r="25" stroke="#344A71" stroke-width="1.5"/>
<path d="M38.6097 17.9686C38.1258 16.3302 37.3491 14.9509 36.2336 13.7523C35.143 12.5798 33.8881 11.6908 32.397 11.034C30.6983 10.2879 28.7291 9.92537 26.8477 10.0128C26.1613 10.0441 25.4909 10.0805 24.8339 10.1756C22.9824 10.4411 21.3519 10.9944 19.8499 11.8669C17.9329 12.9826 16.436 14.4991 15.4014 16.3755C14.8641 17.352 14.335 19.074 14.1103 20.1986C13.8441 21.5249 14.0784 23.8245 14.6126 25.1215C15.2798 26.7382 15.8287 27.4549 17.1676 28.455C17.1759 28.4608 18.0036 29.0582 18.5549 29.0493C19.559 29.0301 19.7589 28.067 19.8544 27.6043C19.8722 27.5168 19.89 27.4307 19.9111 27.3496C19.9295 27.2781 19.9537 27.2015 19.9785 27.1217C20.1205 26.6622 20.3134 26.0329 19.9932 25.4751C19.8728 25.2657 19.7302 25.103 19.6048 24.96C19.5367 24.8821 19.4679 24.8068 19.4125 24.7238C18.9363 24.0147 18.695 23.1276 18.695 22.0872C18.695 20.722 19.0031 19.4851 19.6379 18.3069C20.789 16.1694 22.6991 14.8207 25.1624 14.4046C26.5644 14.1691 28.1981 14.268 29.4237 14.6612C30.5436 15.0212 31.4967 15.6575 32.1805 16.5032C32.9044 17.398 33.3183 18.5328 33.4099 19.877C33.4698 20.7348 33.3921 21.599 33.3278 22.1728C33.0801 24.3817 32.439 26.1599 31.4216 27.4587C30.5882 28.5246 29.6898 29.0588 28.6743 29.0933C28.0204 29.1188 27.5315 28.9848 27.0896 28.6676C26.6726 28.3695 26.4243 28.0019 26.3071 27.5124C26.1747 26.9532 26.3345 26.3737 26.5045 25.7597L26.5319 25.6614C26.6802 25.1215 26.8356 24.6281 26.9878 24.1424C27.2271 23.3771 27.4754 22.5863 27.6798 21.6685C27.9109 20.6327 27.9415 19.7959 27.7741 19.1123C27.5678 18.2635 27.1125 17.6278 26.4211 17.2218C25.6896 16.7942 24.653 16.7119 23.7827 17.0119C22.4858 17.4554 21.4964 18.6362 21.0679 20.251C20.8508 21.0711 20.7878 21.9321 20.8814 22.8078C20.9533 23.4946 21.1067 24.1188 21.3901 24.8726C21.3805 24.9051 21.3703 24.9396 21.3601 24.9728C21.3398 25.0398 21.3213 25.1049 21.3073 25.1604C21.0023 26.4369 20.7056 27.6955 20.4096 28.9516C20.1288 30.1445 19.8474 31.3355 19.5602 32.5386L19.4953 32.8079C19.2012 34.0334 18.8981 35.3009 18.8274 36.8142L18.7956 37.4461C18.7332 38.6217 18.6702 39.8376 18.8274 40.9622C18.8586 41.1818 18.9274 41.6739 19.4106 41.8455C19.5551 41.954 19.6939 42 19.8289 42C20.2332 42 20.5929 41.5883 20.8992 41.2392C21.8981 40.1006 22.7475 38.6626 23.4962 36.8449C23.8311 36.0317 24.0533 35.1567 24.2679 34.3104L24.3971 33.8061C24.5537 33.2036 24.7072 32.5928 24.8593 31.9884L24.8695 31.9482C25.1516 32.1958 25.4775 32.4192 25.8551 32.6267C26.6541 33.0702 27.5557 33.3287 28.5336 33.3945C29.4504 33.457 30.4156 33.3389 31.4808 33.0326C32.29 32.8015 33.0642 32.4499 33.7837 31.9884C36.3648 30.3315 38.1239 27.4332 38.7377 23.8277C38.9217 22.7504 39 21.8843 39 20.932C38.9987 19.8355 38.8682 18.8373 38.6097 17.9686ZM37.4815 23.6152C36.9282 26.8626 35.3709 29.4552 33.0954 30.9155C32.4804 31.3106 31.8189 31.6099 31.1281 31.8078C30.2074 32.0733 29.3849 32.176 28.6183 32.1237C27.8154 32.0695 27.1132 31.8697 26.4669 31.511C25.8207 31.1568 25.4018 30.7719 25.1076 30.2632L24.3271 28.9114L23.6235 31.6795C23.4726 32.2801 23.3198 32.8877 23.1638 33.487L23.0333 33.9989C22.82 34.8382 22.6195 35.6315 22.3183 36.3604C21.6479 37.9892 20.8992 39.2779 20.0333 40.294C19.9658 39.4291 20.0167 38.459 20.0664 37.5163L20.0989 36.8768C20.1632 35.4841 20.4529 34.2772 20.7324 33.1098L20.7979 32.8386C21.0851 31.6348 21.3665 30.4419 21.6479 29.2484C21.944 27.993 22.24 26.7356 22.5444 25.4623C22.5533 25.4266 22.566 25.3844 22.5794 25.3404C22.6558 25.0832 22.7354 24.817 22.6278 24.547C22.3546 23.8456 22.2107 23.2859 22.1464 22.6757C22.07 21.9545 22.1203 21.2498 22.298 20.581C22.615 19.3855 23.3058 18.5258 24.1946 18.222C24.4149 18.146 24.6454 18.1141 24.867 18.1141C25.228 18.1141 25.5629 18.2009 25.7781 18.3267C26.1645 18.5539 26.4128 18.91 26.5357 19.4181C26.6535 19.9006 26.6204 20.565 26.4364 21.3928C26.2428 22.2576 26.0143 22.9884 25.7717 23.7626C25.6151 24.2617 25.4565 24.7685 25.3037 25.3238L25.277 25.4208C25.0809 26.1286 24.8593 26.9309 25.0682 27.8104C25.2579 28.607 25.6768 29.2273 26.3485 29.7086C27.0158 30.1866 27.7989 30.4004 28.717 30.3717C30.1119 30.3245 31.3586 29.6103 32.4231 28.2495C33.5889 26.7611 34.3191 24.766 34.5935 22.317C34.6623 21.6928 34.747 20.752 34.6808 19.7914C34.57 18.1805 34.0619 16.8044 33.1699 15.7015C32.3301 14.6631 31.1688 13.8838 29.8127 13.4479C28.405 12.9953 26.5421 12.8792 24.9516 13.1473C22.0866 13.631 19.862 15.2056 18.5174 17.7018C17.7801 19.0715 17.4216 20.5063 17.4216 22.0885C17.4216 23.388 17.7355 24.5145 18.3556 25.4374C18.441 25.5651 18.5428 25.6838 18.6485 25.8038C18.7434 25.9123 18.8332 26.0144 18.8879 26.1095C18.9267 26.2135 18.816 26.5735 18.7625 26.7465C18.7326 26.8441 18.7039 26.9379 18.681 27.0254C18.6542 27.1275 18.6313 27.2366 18.6084 27.3464C18.5836 27.4664 18.5454 27.6521 18.5053 27.7542C18.3544 27.6949 18.0787 27.543 17.9297 27.4326C16.7856 26.5786 16.366 26.0291 15.7917 24.6358C15.3607 23.5884 15.1468 21.516 15.3607 20.4514C15.5995 19.2585 16.1082 17.7401 16.5182 16.994C17.4395 15.3224 18.7758 13.9693 20.4904 12.9724C21.8485 12.1835 23.3281 11.6818 25.0166 11.4399C25.617 11.3525 26.2537 11.3187 26.9082 11.2887C28.5954 11.2089 30.3647 11.5344 31.8864 12.2033C33.2158 12.7886 34.3338 13.58 35.3034 14.6235C36.2814 15.6741 36.9633 16.8868 37.3898 18.3318C37.6133 19.083 37.726 19.9593 37.726 20.9345C37.7254 21.8109 37.6521 22.6125 37.4815 23.6152Z" fill="#344A71"/>
</svg>
