<svg width="40" height="40" viewBox="0 0 40 40" fill="none" xmlns="http://www.w3.org/2000/svg">
<path d="M40 20C40 31.0457 31.0457 40 20 40C8.9543 40 0 31.0457 0 20C0 8.9543 8.9543 0 20 0C31.0457 0 40 8.9543 40 20ZM1 20C1 30.4934 9.50659 39 20 39C30.4934 39 39 30.4934 39 20C39 9.50659 30.4934 1 20 1C9.50659 1 1 9.50659 1 20Z" fill="#242735"/>
<path d="M24.5862 10H15.4138C12.4286 10 10 12.4286 10 15.4138V24.5863C10 27.5714 12.4286 30 15.4138 30H24.5863C27.5714 30 30 27.5714 30 24.5863V15.4138C30 12.4286 27.5714 10 24.5862 10ZM20 25.4686C16.9845 25.4686 14.5314 23.0154 14.5314 20C14.5314 16.9845 16.9845 14.5314 20 14.5314C23.0154 14.5314 25.4686 16.9845 25.4686 20C25.4686 23.0154 23.0154 25.4686 20 25.4686ZM25.5993 15.8211C24.7082 15.8211 23.9834 15.0963 23.9834 14.2052C23.9834 13.3141 24.7082 12.5891 25.5993 12.5891C26.4904 12.5891 27.2154 13.3141 27.2154 14.2052C27.2154 15.0963 26.4904 15.8211 25.5993 15.8211Z" fill="#242735"/>
<path d="M19.9997 15.7039C17.6309 15.7039 15.7036 17.631 15.7036 20C15.7036 22.3687 17.6309 24.2961 19.9997 24.2961C22.3686 24.2961 24.2958 22.3687 24.2958 20C24.2958 17.631 22.3686 15.7039 19.9997 15.7039Z" fill="#242735"/>
<path d="M25.5997 13.7617C25.3552 13.7617 25.1562 13.9607 25.1562 14.2051C25.1562 14.4496 25.3552 14.6486 25.5997 14.6486C25.8443 14.6486 26.0432 14.4497 26.0432 14.2051C26.0432 13.9605 25.8443 13.7617 25.5997 13.7617Z" fill="#242735"/>
</svg>
