<svg width="52" height="52" viewBox="0 0 52 52" fill="none" xmlns="http://www.w3.org/2000/svg">
<circle cx="26" cy="26" r="25" stroke="#344A71" stroke-width="1.5"/>
<path d="M38 17.8046C36.4274 17.8789 36.4617 17.8729 36.284 17.8881L37.2153 15.1583C37.2153 15.1583 34.3081 16.2559 33.5711 16.4523C31.6356 14.6668 28.7585 14.5879 26.7016 15.8854C25.0173 16.9481 24.1132 18.7732 24.4147 20.9063C21.1366 20.4394 18.3745 18.8446 16.1939 16.1561L15.5042 15.3059L14.9888 16.2773C14.3374 17.5047 14.1211 18.908 14.3796 20.2288C14.4856 20.7706 14.6659 21.2874 14.9156 21.7713L14.3239 21.536L14.2537 22.5506C14.1826 23.5813 14.5169 24.7844 15.1482 25.7687C15.326 26.0458 15.5549 26.3502 15.845 26.6505L15.5393 26.6024L15.9123 27.765C16.4027 29.2924 17.4212 30.4742 18.743 31.1312C17.423 31.7061 16.3566 32.0729 14.6037 32.6647L13 33.2058L14.4812 34.0369C15.046 34.3539 17.0417 35.4123 19.0135 35.7298C23.3966 36.4353 28.3315 35.8608 31.6537 32.79C34.452 30.2035 35.3701 26.5243 35.1794 22.6955C35.1506 22.1159 35.3053 21.5627 35.6151 21.1381C36.2355 20.2879 37.9962 17.8102 38 17.8046ZM34.4437 20.2376C33.9293 20.9425 33.6717 21.8428 33.7178 22.7722C33.9103 26.6343 32.8864 29.6293 30.6744 31.6738C28.0906 34.0622 23.9228 34.9997 19.2403 34.2458C18.3923 34.1094 17.5158 33.8038 16.7905 33.4986C18.2601 32.9797 19.395 32.5171 21.2277 31.6268L23.7862 30.384L20.9615 30.1984C19.6084 30.1095 18.4817 29.4365 17.7892 28.3438C18.1569 28.3219 18.5115 28.2608 18.8645 28.1598L21.5587 27.3897L18.842 26.7069C17.5219 26.3751 16.7695 25.5645 16.3707 24.9428C16.1088 24.5342 15.9377 24.1157 15.8351 23.7299C16.1075 23.8048 16.425 23.8583 16.9371 23.9104L19.4516 24.1656L17.4594 22.5706C16.0239 21.4215 15.4487 19.6952 15.8704 18.0356C20.3503 22.8045 25.6104 22.4461 26.1399 22.5722C26.0234 21.4104 26.0203 21.4076 25.9898 21.297C25.3117 18.837 26.7978 17.5879 27.468 17.165C28.868 16.282 31.0902 16.1489 32.6295 17.6037C32.9619 17.9177 33.4115 18.0412 33.8323 17.934C34.2099 17.8376 34.5199 17.7357 34.8233 17.6247L34.1916 19.4761L34.998 19.4767C34.8458 19.6862 34.6633 19.9369 34.4437 20.2376Z" fill="#344A71"/>
</svg>
