<svg width="60" height="69" viewBox="0 0 60 69" fill="none" xmlns="http://www.w3.org/2000/svg">
<path d="M54.9999 67.0001H52.9998V58.0001C52.9998 57.4001 52.5998 57.0001 51.9998 57.0001H48.9998V52.0001C48.9998 51.4001 48.5999 51.0001 47.9999 51.0001H42.9998V22.0001V22C42.9998 21.4 42.5999 21 41.9999 21H40.9999V18C40.9999 17.4 40.5999 17 39.9999 17H36.9998V14C36.9998 13.4 36.5999 13.0001 35.9999 13.0001H30.9998V9.99996C30.9999 9.39996 30.6 9 30 9C29.4 9 29 9.39996 29 9.99996V13.0001H24C23.4 13.0001 23 13.4 23 14V17H20C19.4 17 19.0001 17.4 19.0001 18V21H18C17.4 21 17 21.4 17 22V22.0001V51.0001H12C11.4 51.0001 11 51.4001 11 52.0001V57.0001H8.00002C7.40002 57.0001 7.00006 57.4001 7.00006 58.0001V67.0001H5.00002C4.40002 67.0001 4.00006 67.4 4.00006 68C4.00006 68.6 4.40002 69 5.00002 69H8.00002H18H21H27H33H39H42H51.9999H54.9999C55.5999 69 56 68.6 56 68C56 67.4 55.5999 67.0001 54.9999 67.0001ZM24.9999 15H34.9999V17H24.9999V15ZM40.9999 51H39V46H40.9999V51ZM34.9999 51V46H37.0001V51H34.9999ZM30.9999 51V46H33V51H30.9999ZM27 51V46H29V51H27ZM22.9999 51V46H25.0001V51H22.9999ZM18.9999 51V46H21V51H18.9999ZM24.9999 23V26H22.9998V23H24.9999ZM28.9999 23V26H27V23H28.9999ZM33 23V26H30.9999V23H33ZM37.0001 23V26H34.9999V23H37.0001ZM27 38H29V44H27V38ZM24.9999 44H22.9998V38H24.9999V44ZM28.9999 36.0001H27V28H29V36.0001H28.9999ZM30.9999 28H33V36.0001H30.9999V28ZM30.9999 38H33V44H30.9999V38ZM34.9999 38H37.0001V44H34.9999V38ZM38.9999 38H40.9998V44H38.9999V38ZM38.9999 36.0001V28H40.9998V36.0001H38.9999ZM37.0001 36.0001H34.9999V28H37.0001V36.0001ZM24.9999 28V36.0001H22.9998V28H24.9999ZM21 36.0001H18.9999V28H21V36.0001ZM21 38V44H18.9999V38H21ZM38.9999 26V23H39.9998H40.9998V26H38.9999ZM20 23H21V26H18.9999V23H20ZM40.9999 53V67H39.9999V61.2C39.9999 58.9 38.1999 57 36 57C34.8082 57 33.7344 57.5584 33 58.4352C32.2656 57.5584 31.1918 57 30 57C28.8082 57 27.7344 57.5584 27 58.4352C26.2656 57.5584 25.1918 57 24 57C21.8 57 20 58.9 20 61.2V67H18.9999V58.0001V53H40.9999ZM25.9999 67H21.9999H21.9998V61.2C21.9998 60 22.9999 59 23.9999 59C24.9999 59 25.9999 60 25.9999 61.2V67ZM27.9998 61.1985C28.0006 59.9992 29.0003 59 29.9997 59C30.9998 59 31.9998 60 31.9998 61.2V67H27.9998V61.2C27.9998 61.1995 27.9998 61.1989 27.9998 61.1985ZM33.9998 61.1985C34.0006 59.9992 35.0003 59 35.9997 59C36.9998 59 37.9998 60 37.9998 61.2V67H33.9998V61.2C33.9999 61.1995 33.9998 61.1989 33.9998 61.1985ZM51 67H42.9999V59H48C48.0009 59 48.0017 58.9999 48.0027 58.9999H51V67ZM46.9999 57H42.9999V53H46.9999V57ZM21 19H24H36H39V21H21V19ZM12.9998 53H16.9998V57H12.9998V53ZM8.99987 58.9999H11.9972C11.9981 58.9999 11.9989 59 11.9999 59H16.9999V67H8.99987V58.9999Z" fill="#4A4F64"/>
<rect x="26" y="9" width="8" height="4" fill="#4A4F64"/>
<rect x="28" y="11" width="4" height="2" fill="white"/>
<line x1="30" y1="10" x2="30" stroke="#4A4F64" stroke-width="2"/>
</svg>
