<svg width="14" height="14" viewBox="0 0 14 14" fill="none" xmlns="http://www.w3.org/2000/svg">
<g clip-path="url(#clip0)">
<path d="M10.792 3.49999H9.04199C8.88077 3.49999 8.75032 3.62359 8.75032 3.78491V5.53606C8.75032 5.69739 8.88077 5.82793 9.04199 5.82793H9.33367V6.04255C9.33367 6.24634 9.22514 6.43816 9.05025 6.54305L7.58367 7.42366V2.90934H8.45867C8.56463 2.90934 8.66232 2.85175 8.71387 2.75884C8.76514 2.6662 8.76229 2.55278 8.70588 2.46271L7.24756 0.127825C7.14103 -0.0426084 6.85961 -0.0426084 6.7531 0.127825L5.29478 2.46271C5.23837 2.55278 5.23552 2.6662 5.28679 2.75884C5.33834 2.85175 5.43604 2.90934 5.54199 2.90934H6.41699V9.21369L5.25857 8.56952C5.07343 8.46693 4.95864 8.27139 4.95864 8.05962V7.45537C5.47276 7.22954 5.83364 6.71663 5.83364 6.11977C5.83364 5.31515 5.17939 4.66664 4.37532 4.66664C3.57125 4.66664 2.91699 5.31515 2.91699 6.11977C2.91699 6.71663 3.27788 7.22952 3.79199 7.45537V8.05962C3.79199 8.6955 4.13693 9.28207 4.69207 9.59016L6.41699 10.5492V11.2051C5.90287 11.4309 5.54199 11.9438 5.54199 12.5407C5.54199 13.3453 6.19625 14 7.00032 14C7.80439 14 8.45864 13.3453 8.45864 12.5407C8.45864 11.9438 8.09776 11.4309 7.58364 11.2051V8.78513L9.65036 7.54402C10.1748 7.22965 10.5003 6.6542 10.5003 6.04255V5.82793H10.792C10.9532 5.82793 11.0837 5.69739 11.0837 5.53606V3.78491C11.0836 3.62359 10.9532 3.49999 10.792 3.49999Z" fill="#4DC74B"/>
</g>
<defs>
<clipPath id="clip0">
<rect width="14" height="14" fill="white"/>
</clipPath>
</defs>
</svg>
