<svg xmlns="http://www.w3.org/2000/svg" viewBox="0 0 409.65 409.7"><defs><style>.cls-1{fill:#364c73;}</style></defs><title>Ресурс 4</title><g id="Слой_2" data-name="Слой 2"><g id="Слой_1-2" data-name="Слой 1"><g id="Слой_2-2" data-name="Слой 2"><g id="Слой_1-2-2" data-name="Слой 1-2"><g id="Слой_2-2-2" data-name="Слой 2-2"><g id="Слой_1-2-2-2" data-name="Слой 1-2-2"><path class="cls-1" d="M216.8,0c7.9,1.06,15.87,1.73,23.69,3.23q97.27,18.7,145.08,105.55c17.86,32.48,26,67.72,23.7,104.66C404.51,290.31,368,347.92,300.86,385.51a187.63,187.63,0,0,1-104.63,23.77C119.35,404.54,61.82,368,24.1,300.93,10.08,276,2.67,248.83.68,220.25A27.35,27.35,0,0,0,0,216.8v-24a27.31,27.31,0,0,0,.68-3.45c2-28.57,9.55-55.63,23.38-80.66C55.91,51,104.3,15.68,169.12,3.23,176.93,1.73,184.9,1.06,192.8,0Zm-12,18.57c-102.68,0-186.24,83.63-186.2,186.25S102.2,391.07,204.82,391,391.07,307.4,391,204.78,307.4,18.53,204.78,18.57Z"/><path class="cls-1" d="M259.87,87.24V126H242.66c-4.66,0-9.34-.05-14,.27-9.57.66-15,5.71-15.68,15.31-.53,7.8-.11,15.67-.11,23.89H257.8l-6.13,39.16H212.79V322.84h-38.9v-118H150V165.7h23.74c0-2-.07-3.67,0-5.33.64-13.15.3-26.45,2.2-39.42C179.11,99.29,193,87.71,214.8,87.17c14.4-.35,28.8-.17,43.2-.17A16.09,16.09,0,0,1,259.87,87.24Z"/></g></g></g></g></g></g></svg>