<svg width="52" height="52" viewBox="0 0 52 52" fill="none" xmlns="http://www.w3.org/2000/svg">
<circle cx="26" cy="26" r="25" stroke="#344A71" stroke-width="1.5"/>
<path d="M27.8829 41H23.3686C22.6146 41 22.0012 40.3472 22.0012 39.5448V28.7086H19.3674C18.6134 28.7086 18 28.0556 18 27.2534V22.61C18 21.8076 18.6134 21.1548 19.3674 21.1548H22.0012V18.8296C22.0012 16.5241 22.6815 14.5625 23.9682 13.1574C25.2608 11.7459 27.0672 11 29.1921 11L32.6349 11.006C33.3877 11.0073 34 11.6601 34 12.4612V16.7724C34 17.5749 33.3868 18.2276 32.633 18.2276L30.315 18.2285C29.608 18.2285 29.428 18.3794 29.3895 18.4256C29.3261 18.5023 29.2506 18.719 29.2506 19.3176V21.1546H32.4588C32.7003 21.1546 32.9343 21.218 33.1354 21.3374C33.5692 21.5954 33.8389 22.0831 33.8389 22.6103L33.8372 27.2536C33.8372 28.0556 33.2238 28.7084 32.4698 28.7084H29.2506V39.5448C29.2506 40.3472 28.637 41 27.8829 41ZM23.6538 39.2413H27.5978V27.9212C27.5978 27.3854 28.0075 26.9496 28.5107 26.9496H32.1846L32.1861 22.9135H28.5105C28.0073 22.9135 27.5978 22.4777 27.5978 21.9419V19.3176C27.5978 18.6305 27.6634 17.8491 28.1507 17.2617C28.7396 16.5518 29.6676 16.4698 30.3145 16.4698L32.3474 16.4689V12.7642L29.1908 12.7587C25.7759 12.7587 23.6538 15.0851 23.6538 18.8296V21.9419C23.6538 22.4775 23.2443 22.9135 22.741 22.9135H19.6526V26.9496H22.741C23.2443 26.9496 23.6538 27.3854 23.6538 27.9212V39.2413ZM32.6317 12.7647H32.6319H32.6317Z" fill="#344A71"/>
</svg>
