<svg width="50" height="50" viewBox="0 0 50 50" fill="none" xmlns="http://www.w3.org/2000/svg">
<circle cx="25" cy="25" r="24.5" stroke="#A5A7B2"/>
<g clip-path="url(#clip0)">
<path d="M27.9023 27.0944L30.8745 33.5308L32.9163 31.4889L31.8739 23.1229L27.9023 27.0944Z" fill="#A5A7B2"/>
<path d="M26.7543 18.2273L18.6439 17.2167L16.6021 19.2585L22.8417 22.1399L26.7543 18.2273Z" fill="#A5A7B2"/>
<path d="M34.2971 15.6921C33.8507 15.2458 33.2573 15 32.6261 15C31.995 15 31.4015 15.2458 30.9552 15.6921L19.2948 27.3525L17.2313 26.5541L15.0117 28.7737L19.5119 30.4998L21.238 35L23.4559 32.7821L22.635 30.6961L34.2971 19.034C35.2184 18.1127 35.2184 16.6135 34.2971 15.6921Z" fill="#A5A7B2"/>
<path d="M19.5027 23.7591L20.7778 22.484L19.6384 21.9579L18.6699 22.9263L19.5027 23.7591Z" fill="#A5A7B2"/>
<path d="M18.2889 21.3346L17.1495 20.8085L16.1284 21.8296L16.9612 22.6623L18.2889 21.3346Z" fill="#A5A7B2"/>
<path d="M27.5717 29.1876L26.2515 30.5078L27.0842 31.3406L28.0978 30.327L27.5717 29.1876Z" fill="#A5A7B2"/>
<path d="M27.3481 33.0495L28.1809 33.8823L29.2471 32.816L28.721 31.6766L27.3481 33.0495Z" fill="#A5A7B2"/>
</g>
<defs>
<clipPath id="clip0">
<rect x="15" y="15" width="20" height="20" fill="white"/>
</clipPath>
</defs>
</svg>
