<svg xmlns="http://www.w3.org/2000/svg" viewBox="0 0 412.22 412.21"><defs><style>.cls-1{fill:#364c73;}</style></defs><title>Ресурс 4 1</title><g id="Слой_2" data-name="Слой 2"><g id="Слой_1-2" data-name="Слой 1"><g id="Слой_2-2" data-name="Слой 2"><g id="Слой_1-2-2" data-name="Слой 1-2"><g id="Слой_2-2-2" data-name="Слой 2-2"><g id="Слой_1-2-2-2" data-name="Слой 1-2-2"><path class="cls-1" d="M95.91,272.84V139.4a2.22,2.22,0,0,0,.27-.58c1.34-9.59,9.66-16.84,20.32-16.66,8.53.14,17.11,0,25.61,0H295.77c12,0,20.49,8.17,20.51,19.9q.09,64-.06,128.06a21.48,21.48,0,0,1-2,8.89c-3.67,7.71-10.23,11.07-18.64,11.07H115.22A19.58,19.58,0,0,1,100,282.45C97.72,279.58,96.73,276.26,95.91,272.84ZM293.62,135.28H118.18l88.1,87.3ZM118.53,277H293.2l-61.32-61.32c-6.51,6.54-13.23,13.3-20,20-3.66,3.66-7.09,3.64-10.81,0q-9.63-9.53-19.25-19.12c-.53-.53-1.11-1-1.52-1.43ZM109,144.34V267.5l61.84-61.82Zm133.32,61.47,60.85,60.85V144.9Z"/><path class="cls-1" d="M206.11,19.12c103.27,0,187,83.72,187,187a187,187,0,0,1-54.77,132.22c-72.66,73.39-191.06,74-264.44,1.33S-.1,148.6,72.56,75.22l1.33-1.33A185.77,185.77,0,0,1,206.11,19.12m0-19.12C92.27,0,0,92.27,0,206.11s92.27,206.1,206.11,206.1S412.22,320,412.22,206.11,320,0,206.23,0Z"/></g></g></g></g></g></g></svg>