<svg width="14" height="14" viewBox="0 0 14 14" fill="none" xmlns="http://www.w3.org/2000/svg">
<path d="M3.67896 5.88431C3.8063 5.91007 3.93592 5.92295 4.06585 5.92273C4.32248 5.92022 4.57697 5.87561 4.81915 5.79068L5.86726 7.63664L6.64163 6.63768L5.83415 5.21581C6.13464 4.9699 6.36391 4.64811 6.49821 4.28379C6.70551 3.69163 6.61531 3.04734 6.23002 2.36878C5.83563 1.69737 5.28339 1.13233 4.62118 0.722683C3.81699 0.234141 3.05406 0.147079 2.47277 0.4771C1.21561 1.19088 1.45026 3.40193 2.17191 4.6728C2.55713 5.35136 3.06427 5.75896 3.67896 5.88431Z" fill="#FABE64"/>
<path d="M7.11572 9.83514L9.45445 13.9541L10.4689 13.378L7.8901 8.83618L7.11572 9.83514Z" fill="#FABE64"/>
<path d="M13.8666 3.0303L12.9446 2.31572L11.515 4.15964L11.054 3.80235L12.4837 1.95814L11.5616 1.24355L10.1324 3.08769L9.67138 2.7304L11.1004 0.88597L10.1783 0.171387L8.03403 2.93741C7.71724 3.3464 7.5452 3.849 7.54494 4.36633C7.54468 4.88366 7.71619 5.38643 8.03257 5.79574L2.26953 13.2303L3.19164 13.9449L8.9549 6.51018C9.43018 6.71396 9.95961 6.75446 10.4604 6.62532C10.9611 6.49618 11.4049 6.2047 11.7224 5.79647L12.0797 5.33549L13.8666 3.0303Z" fill="#FABE64"/>
</svg>
