<svg width="50" height="50" viewBox="0 0 50 50" fill="none" xmlns="http://www.w3.org/2000/svg">
<circle cx="25" cy="25" r="24.5" stroke="#A5A7B2"/>
<path d="M22.9667 28.96C22.9667 28.1306 23.153 27.3618 23.5255 26.6538C23.898 25.9457 24.3533 25.3389 24.8914 24.8331C25.4294 24.3071 25.9675 23.8115 26.5055 23.3462C27.0436 22.8607 27.4989 22.3448 27.8714 21.7986C28.2439 21.2322 28.4302 20.6455 28.4302 20.0386C28.4302 19.189 28.1301 18.5416 27.5299 18.0966C26.9298 17.6313 26.1227 17.3986 25.1086 17.3986C24.136 17.3986 23.2979 17.6414 22.5942 18.1269C21.8906 18.6124 21.3836 19.3002 21.0732 20.1903L18 18.491C18.5795 17.0547 19.5107 15.9522 20.7938 15.1834C22.0976 14.3945 23.5669 14 25.2018 14C27.0436 14 28.6371 14.5159 29.9823 15.5476C31.3274 16.5793 32 18.0055 32 19.8262C32 20.6759 31.8137 21.4749 31.4412 22.2234C31.0687 22.9517 30.6135 23.5789 30.0754 24.1048C29.5373 24.6308 28.9993 25.1467 28.4612 25.6524C27.9231 26.1379 27.4678 26.6639 27.0953 27.2303C26.7228 27.7968 26.5366 28.3733 26.5366 28.96H22.9667ZM26.4124 35.3324C25.9571 35.7775 25.4087 36 24.7672 36C24.1256 36 23.5772 35.7775 23.122 35.3324C22.6667 34.8874 22.439 34.3513 22.439 33.7241C22.439 33.097 22.6563 32.5609 23.0909 32.1159C23.5462 31.6708 24.105 31.4483 24.7672 31.4483C25.4087 31.4483 25.9571 31.6708 26.4124 32.1159C26.8677 32.5609 27.0953 33.097 27.0953 33.7241C27.0953 34.3513 26.8677 34.8874 26.4124 35.3324Z" fill="#A5A7B2"/>
</svg>
