<svg width="40" height="51" viewBox="0 0 40 51" fill="none" xmlns="http://www.w3.org/2000/svg">
<path d="M15.4981 7.06562L15.7346 6.98456V6.73453V4.48242C15.7346 2.21374 17.6388 0.35 20 0.35C22.3612 0.35 24.2654 2.21374 24.2654 4.48242V6.75709V7.00439L24.4985 7.08699C29.7882 8.96142 33.4962 14.1249 33.4962 19.9374V22.9265C33.4962 26.3054 34.5596 29.7931 36.4193 32.5026L38.9362 36.1691L39.2247 35.971L38.9362 36.1691C39.4074 36.8555 39.65 37.6533 39.65 38.4574V40.541C39.65 42.8097 37.7458 44.6734 35.3846 44.6734H27.1046H26.8911L26.7934 44.8632L25.5177 47.341C24.4685 49.379 22.3572 50.65 20 50.65C17.6428 50.65 15.5315 49.379 14.4823 47.341L13.2066 44.8632L13.1089 44.6734H12.8954H4.61538C2.2541 44.6734 0.35 42.8097 0.35 40.541V38.4574C0.35 37.6164 0.61362 36.8248 1.06378 36.1691L1.0638 36.1691L3.28736 32.9299C5.36294 29.9062 6.50385 26.1723 6.50385 22.4129V19.4238C6.50385 13.7901 10.2247 8.87308 15.4981 7.06562ZM21.5014 6.4067L21.8885 6.44787V6.05866V4.48242C21.8885 3.45584 21.0318 2.63828 20 2.63828C18.9682 2.63828 18.1115 3.45584 18.1115 4.48242V6.05555V6.44438L18.4982 6.40362C19.4708 6.30112 20.4766 6.29766 21.5014 6.4067ZM23.3881 46.3253L23.3881 46.3253L23.9758 45.1836L24.2384 44.6734H23.6646H16.3354H15.7616L16.0242 45.1836L16.6119 46.3253L16.6119 46.3253C17.2602 47.5842 18.5615 48.3617 20 48.3617C21.4385 48.3617 22.7398 47.5842 23.3881 46.3253ZM3.07692 38.6969H2.72692V39.0469V40.541C2.72692 41.5677 3.58365 42.3852 4.61538 42.3852H35.3846C36.4164 42.3852 37.2731 41.5677 37.2731 40.541V39.0469V38.6969H36.9231H3.07692ZM35.587 36.4086H36.2518L35.8755 35.8605L34.4363 33.764L34.1478 33.9621L34.4363 33.764C32.2987 30.6504 31.1192 26.8003 31.1192 22.9265V19.9374C31.1192 13.9586 26.3867 8.61446 19.9892 8.61446C13.8054 8.61446 8.88077 13.5139 8.88077 19.4238V22.4129C8.88077 26.6177 7.5972 30.8019 5.27035 34.1912L5.55889 34.3893L5.27033 34.1913L4.1245 35.8605L3.74828 36.4086H4.41306H35.587Z" fill="#4A4F64" stroke="#F3F5F7" stroke-width="0.7"/>
</svg>
