<svg width="60" height="54" viewBox="0 0 60 54" fill="none" xmlns="http://www.w3.org/2000/svg">
<path d="M59 35.4998C59.5522 35.4998 60 35.052 60 34.4998V26.4998C60 25.9475 59.5522 25.4998 59 25.4998H46.414L52.707 19.2068C53.0974 18.8163 53.0974 18.1833 52.707 17.7928L47.243 12.3288C46.8525 11.9384 46.2195 11.9384 45.829 12.3288C44.2666 13.8912 41.7334 13.8912 40.171 12.3288C38.6086 10.7664 38.6086 8.23316 40.171 6.67078C40.5614 6.28028 40.5614 5.64728 40.171 5.25678L35.707 0.792781C35.3165 0.402406 34.6835 0.402406 34.293 0.792781L9.586 25.4998H1C0.44775 25.4998 0 25.9475 0 26.4998V34.4998C0 35.052 0.44775 35.4998 1 35.4998C3.20913 35.4998 5 37.2907 5 39.4998C5 41.7089 3.20913 43.4998 1 43.4998C0.44775 43.4998 0 43.9475 0 44.4998V52.4998C0 53.052 0.44775 53.4998 1 53.4998H59C59.5522 53.4998 60 53.052 60 52.4998V44.4998C60 43.9475 59.5522 43.4998 59 43.4998C56.7909 43.4998 55 41.7089 55 39.4998C55 37.2907 56.7909 35.4998 59 35.4998ZM35 2.91378L38.108 6.02178C36.1816 8.71803 36.8057 12.4654 39.502 14.3918C41.5884 15.8825 44.3916 15.8825 46.478 14.3918L50.586 18.4998L43.586 25.4998H40.414L42.707 23.2068C43.0974 22.8163 43.0974 22.1833 42.707 21.7928L31.707 10.7928C31.3165 10.4024 30.6835 10.4024 30.293 10.7928L15.586 25.4998H12.414L35 2.91378ZM37.586 25.4998H18.414L31 12.9138L40.586 22.4998L37.586 25.4998ZM53.0775 40.4943C53.5015 43.0165 55.4777 44.9928 58 45.4168V51.4998H50V47.4998H48V51.4998H12V50.4998H10V51.4998H2V45.4168C5.26787 44.8675 7.47175 41.7732 6.9225 38.5053C6.4985 35.983 4.52238 34.0068 2 33.5828V27.4998H10V30.4998H12V27.4998H58V33.5828C54.7321 34.132 52.5282 37.2265 53.0775 40.4943Z" fill="#4A4F64"/>
<path d="M50 29.4998H48V33.4998H50V29.4998Z" fill="#4A4F64"/>
<path d="M50 35.4998H48V39.4998H50V35.4998Z" fill="#4A4F64"/>
<path d="M50 41.4998H48V45.4997H50V41.4998Z" fill="#4A4F64"/>
<path d="M12 32.4998H10V36.4998H12V32.4998Z" fill="#4A4F64"/>
<path d="M12 38.4998H10V42.4998H12V38.4998Z" fill="#4A4F64"/>
<path d="M12 44.4998H10V48.4997H12V44.4998Z" fill="#4A4F64"/>
<path d="M44 32.4998C42.8954 32.4998 42 31.6044 42 30.4998C42 29.9475 41.5522 29.4998 41 29.4998H19C18.4478 29.4998 18 29.9475 18 30.4998C18 31.6044 17.1046 32.4998 16 32.4998C15.4477 32.4998 15 32.9475 15 33.4998V45.4998C15 46.052 15.4477 46.4998 16 46.4998C17.1046 46.4998 18 47.3951 18 48.4998C18 49.052 18.4478 49.4998 19 49.4998H41C41.5522 49.4998 42 49.052 42 48.4998C42 47.3951 42.8954 46.4998 44 46.4998C44.5522 46.4998 45 46.052 45 45.4998V33.4998C45 32.9475 44.5522 32.4998 44 32.4998ZM43 44.6258C41.5921 44.9925 40.4928 46.0919 40.126 47.4998H19.874C19.5073 46.0919 18.4079 44.9925 17 44.6258V34.3738C18.4079 34.007 19.5073 32.9076 19.874 31.4998H40.126C40.4928 32.9076 41.5921 34.007 43 34.3738V44.6258Z" fill="#4A4F64"/>
</svg>
