<svg xmlns="http://www.w3.org/2000/svg" viewBox="0 0 314.81 333.65"><defs><style>.cls-1{fill:#364c73;}</style></defs><title>share</title><g id="Слой_2" data-name="Слой 2"><g id="Слой_1-2" data-name="Слой 1"><path class="cls-1" d="M261,0c4.7,1.21,9.53,2,14.09,3.68,25.73,9.29,42.23,35.41,39.2,61.78-3.23,28.09-23.9,49.69-51.67,53.21-21,2.66-38.62-4.37-52.78-20.1l-2.28-2.51c-.82.4-1.61.72-2.34,1.13Q162,121.3,118.82,145.38c-2.19,1.22-2.76,2.26-2,4.78a57,57,0,0,1,0,33.68c-.64,2.12-.19,3,1.67,4q43.38,24.12,86.66,48.43c2,1.14,3.05.93,4.57-.8,29.21-33.11,80.46-26.1,99.49,13.57,17,35.35-6.48,78.72-45.38,84-36.24,4.9-67.7-21.85-68.32-58.41-.09-5.87,1.43-11.8,2.56-17.64.38-2,.44-3-1.54-4.13q-43.57-24.23-87-48.65c-2-1.12-2.93-.66-4.27.89C76.09,238.82,23.9,231.4,5.21,190.91c-16-34.69,6.64-77,44.53-82.79,22.25-3.39,40.84,3.54,55.68,20.5.49.57,1,1.12,1.73,1.9l91.12-50.88c-.85-4.37-1.94-8.55-2.47-12.81A59.54,59.54,0,0,1,246.24.68,19.91,19.91,0,0,0,248.68,0ZM100.69,166.71a41,41,0,1,0,0,.09Zm195.15-107a40.93,40.93,0,1,0-40.87,41h.2A40.94,40.94,0,0,0,295.83,59.7Zm0,214.31a40.93,40.93,0,1,0-40.94,40.92h.19A40.93,40.93,0,0,0,295.83,274Z"/></g></g></svg>