<svg width="20" height="20" viewBox="0 0 20 20" fill="none" xmlns="http://www.w3.org/2000/svg">
<path d="M11.1953 5.33333H11C10.8159 5.33333 10.6667 5.48257 10.6667 5.66667V6.17031C10.6667 6.27317 10.6192 6.37027 10.538 6.43342L7.75694 8.59645C7.69843 8.64196 7.62642 8.66667 7.5523 8.66667H5.51173C5.40028 8.66667 5.2962 8.72237 5.23438 8.8151L5.14633 8.94718C5.06058 9.0758 5.07451 9.2465 5.17999 9.35952L7.24369 11.5706C7.30129 11.6323 7.33333 11.7136 7.33333 11.7981V11.8619C7.33333 11.9503 7.29822 12.0351 7.2357 12.0976L5.09763 14.2357C5.03512 14.2982 5 14.383 5 14.4714V14.9333C5 14.9702 5.02985 15 5.06667 15H5.5286C5.617 15 5.70179 14.9649 5.7643 14.9024L7.90237 12.7643C7.96488 12.7018 8.04967 12.6667 8.13807 12.6667H8.18848C8.28088 12.6667 8.36913 12.705 8.43217 12.7726L10.5327 15.0231C10.6154 15.1117 10.7396 15.1484 10.8572 15.119L11.0808 15.0631C11.2292 15.026 11.3333 14.8927 11.3333 14.7397V12.4477C11.3333 12.3736 11.358 12.3016 11.4036 12.2431L13.5666 9.46202C13.6297 9.38082 13.7268 9.33333 13.8297 9.33333H14.3333C14.5174 9.33333 14.6667 9.1841 14.6667 9V8.80474C14.6667 8.71633 14.6315 8.63155 14.569 8.56904L11.431 5.43096C11.3685 5.36845 11.2837 5.33333 11.1953 5.33333Z" fill="#A5A7B2"/>
<path d="M20 10C20 15.5228 15.5228 20 10 20C4.47715 20 0 15.5228 0 10C0 4.47715 4.47715 0 10 0C15.5228 0 20 4.47715 20 10ZM1 10C1 14.9706 5.02944 19 10 19C14.9706 19 19 14.9706 19 10C19 5.02944 14.9706 1 10 1C5.02944 1 1 5.02944 1 10Z" fill="#A5A7B2"/>
</svg>
