<!DOCTYPE svg PUBLIC "-//W3C//DTD SVG 20010904//EN" "http://www.w3.org/TR/2001/REC-SVG-20010904/DTD/svg10.dtd">
<svg version="1.0" xmlns="http://www.w3.org/2000/svg" width="520px" height="520px" viewBox="0 0 5200 5200" preserveAspectRatio="xMidYMid meet">
<g id="layer101" fill="#192e51" stroke="none">
 <path d="M3355 5096 c-22 -12 -42 -24 -45 -28 -3 -3 -25 -14 -50 -24 -25 -10 -48 -23 -52 -29 -4 -7 -22 -18 -40 -26 -18 -7 -41 -20 -51 -29 -10 -8 -21 -15 -25 -15 -4 -1 -17 -6 -28 -13 -12 -6 -24 -8 -28 -5 -3 3 -6 1 -6 -6 0 -7 -16 -19 -35 -27 -20 -8 -45 -24 -56 -35 -11 -11 -23 -17 -28 -15 -4 3 -18 -4 -29 -15 -12 -10 -24 -20 -27 -20 -17 0 -81 -34 -88 -45 -4 -8 -16 -14 -26 -14 -9 0 -27 -9 -39 -20 -12 -12 -22 -18 -22 -14 0 3 -7 1 -15 -6 -11 -9 -15 -9 -15 -1 0 7 -4 9 -10 6 -5 -3 -10 -1 -10 4 0 6 -6 11 -14 11 -7 0 -30 11 -50 25 -21 14 -72 43 -114 65 -42 22 -82 43 -87 47 -6 5 -49 28 -95 52 -47 25 -105 55 -129 68 -25 13 -40 23 -35 23 5 1 -13 13 -41 27 -27 14 -53 30 -56 36 -4 5 -28 11 -53 12 -40 2 -51 -1 -72 -24 -14 -14 -30 -37 -36 -51 -11 -27 -11 -246 0 -264 3 -6 8 -20 9 -31 2 -11 8 -21 13 -23 6 -2 10 -8 10 -14 0 -6 20 -36 46 -67 25 -31 50 -63 57 -71 7 -8 32 -44 56 -80 24 -36 48 -66 53 -68 4 -2 8 -10 8 -18 0 -8 4 -14 8 -14 5 0 39 -45 77 -101 l68 -101 0 -131 c-1 -349 -2 -367 -20 -360 -15 6 -38 23 -77 58 -6 6 -23 16 -38 24 -16 8 -28 18 -28 22 0 5 -17 17 -39 28 -21 11 -41 27 -44 36 -4 8 -12 15 -19 15 -7 0 -29 14 -48 30 -19 16 -38 30 -41 30 -5 0 -20 11 -65 49 -7 5 -15 7 -18 4 -3 -4 -6 -1 -6 5 0 7 -16 20 -35 29 -19 9 -35 22 -35 28 0 6 -18 19 -40 29 -22 10 -40 22 -40 26 0 5 -14 17 -32 26 -17 9 -43 27 -57 40 -14 13 -29 24 -34 24 -8 0 -25 12 -62 46 -12 11 -36 26 -53 33 -17 7 -33 19 -36 26 -3 8 -19 21 -37 31 -18 9 -44 27 -58 40 -14 13 -29 24 -33 24 -7 0 -39 25 -72 55 -6 6 -25 17 -43 24 -18 7 -31 18 -30 25 1 6 -15 12 -40 14 -29 2 -43 -1 -43 -9 0 -7 -3 -10 -6 -6 -9 9 -49 -43 -61 -78 -11 -35 -7 -274 7 -337 17 -80 29 -123 46 -163 10 -22 17 -43 16 -47 -1 -5 2 -8 6 -8 4 0 16 -15 26 -32 11 -18 25 -40 33 -48 42 -46 223 -282 223 -290 0 -6 3 -10 8 -10 4 0 18 -17 32 -38 13 -20 36 -51 50 -68 14 -17 43 -55 65 -84 22 -29 46 -58 53 -66 7 -8 10 -14 6 -14 -4 0 1 -8 12 -19 20 -20 36 -39 108 -136 25 -33 50 -65 56 -72 5 -7 10 -15 10 -18 0 -4 19 -30 43 -59 87 -108 102 -129 110 -150 4 -11 11 -23 16 -26 4 -3 38 -48 76 -100 38 -52 74 -98 80 -102 5 -4 6 -8 1 -8 -6 0 2 -12 16 -28 14 -15 38 -47 53 -72 16 -25 31 -47 35 -50 12 -9 70 -101 70 -111 0 -5 5 -9 10 -9 6 0 10 -125 11 -352 0 -460 14 -961 27 -1018 6 -25 16 -72 23 -105 18 -92 67 -243 101 -315 68 -144 90 -186 109 -206 10 -11 19 -23 19 -27 0 -26 110 -94 150 -91 23 1 90 36 90 47 0 5 8 17 18 26 10 9 22 23 26 31 3 8 20 38 36 65 42 71 78 151 101 220 11 33 24 69 29 80 10 24 44 173 61 270 9 51 11 248 10 721 l-2 651 23 29 c27 33 69 94 115 167 17 27 35 53 40 56 5 3 23 29 40 56 31 48 64 94 159 220 24 33 57 78 71 100 14 22 52 72 83 110 53 65 96 124 161 220 15 22 39 53 54 69 24 26 173 212 209 261 8 11 68 88 132 170 159 202 202 287 233 453 15 77 15 280 1 318 -6 15 -25 39 -42 54 -38 33 -49 31 -138 -30 -32 -22 -64 -40 -69 -40 -6 0 -11 -4 -11 -8 0 -5 -31 -30 -70 -57 -38 -27 -70 -52 -70 -57 0 -4 -6 -8 -13 -8 -7 0 -26 -13 -42 -30 -15 -16 -31 -27 -35 -25 -3 2 -19 -10 -34 -26 -16 -16 -31 -27 -34 -25 -3 3 -22 -10 -44 -29 -21 -19 -44 -35 -52 -35 -8 0 -16 -7 -20 -15 -3 -8 -18 -21 -33 -28 -15 -6 -37 -22 -50 -34 -12 -13 -27 -23 -32 -23 -6 0 -26 -16 -46 -35 -19 -20 -35 -33 -35 -31 0 3 -19 -8 -42 -25 -24 -16 -57 -39 -75 -50 -17 -11 -34 -26 -37 -34 -3 -8 -11 -15 -18 -15 -7 0 -24 -12 -37 -25 -13 -14 -29 -25 -37 -25 -7 0 -18 -8 -23 -18 -5 -10 -22 -24 -37 -32 -15 -8 -39 -25 -52 -37 -14 -13 -31 -23 -37 -23 -7 0 -15 -7 -19 -15 -3 -8 -10 -15 -15 -15 -11 0 -13 400 -2 470 8 47 11 52 154 240 40 52 99 133 131 180 33 47 73 103 90 125 41 51 63 120 70 218 7 87 -7 168 -32 190 -36 30 -74 35 -117 13z m2 -241 c-4 -23 -31 -66 -85 -132 -43 -54 -103 -132 -132 -173 -29 -41 -79 -106 -110 -145 -30 -38 -70 -93 -87 -120 l-32 -50 -1 -270 c-1 -149 -2 -279 -3 -290 0 -11 0 -67 2 -125 2 -118 11 -138 61 -145 25 -3 38 2 58 23 14 15 22 20 17 12 -5 -10 -2 -9 11 3 47 44 76 67 83 67 4 0 23 14 41 30 18 17 37 30 41 30 5 0 20 11 35 25 15 14 31 25 35 25 4 0 20 11 35 25 15 14 31 25 36 25 5 0 24 16 43 35 19 19 35 32 35 29 0 -5 8 1 60 46 19 16 39 30 45 30 5 0 21 12 34 25 13 14 29 25 35 25 7 0 23 11 36 25 13 14 28 25 33 25 5 0 25 14 44 30 18 17 38 30 43 30 5 0 25 16 45 35 19 20 35 31 35 26 0 -5 14 4 31 20 17 16 35 26 40 23 5 -3 9 -1 9 5 0 5 28 28 63 52 34 23 66 48 70 56 4 7 14 13 21 13 7 0 23 11 36 25 13 14 29 25 36 25 6 0 26 15 43 33 l32 32 -6 -60 c-12 -111 -39 -208 -78 -270 -6 -11 -99 -129 -204 -262 -106 -134 -193 -245 -193 -249 0 -3 -57 -79 -128 -168 -70 -88 -136 -174 -146 -191 -11 -16 -55 -74 -98 -127 -43 -53 -78 -100 -78 -103 0 -6 -60 -86 -92 -125 -14 -15 -33 -46 -44 -70 -4 -8 -32 -46 -63 -85 -31 -38 -56 -73 -56 -76 0 -3 -15 -25 -33 -50 -117 -159 -112 -149 -113 -219 -1 -36 0 -338 0 -671 l2 -605 -25 -115 c-14 -63 -38 -151 -55 -196 -33 -93 -115 -222 -151 -240 -32 -16 -71 5 -95 49 -35 67 -53 98 -63 110 -20 26 -69 176 -93 288 -24 108 -28 220 -33 805 -2 367 -8 630 -14 645 -6 14 -17 32 -26 39 -9 7 -16 18 -16 23 0 6 -22 38 -50 73 -27 35 -50 68 -50 74 0 6 -3 11 -7 11 -5 0 -21 21 -38 48 -36 57 -117 166 -127 170 -5 2 -8 8 -8 13 0 10 -45 71 -87 119 -13 13 -23 30 -23 37 0 6 -3 13 -7 15 -13 5 -73 86 -73 97 0 5 -4 11 -8 13 -4 2 -35 39 -67 83 -32 44 -67 89 -78 100 -10 11 -26 32 -35 48 -9 15 -20 27 -24 27 -4 0 -8 5 -8 10 0 10 -7 19 -50 68 -11 12 -18 22 -15 22 3 0 -33 47 -80 105 -47 57 -85 106 -85 109 0 2 -16 21 -35 42 -19 21 -35 42 -35 47 0 5 -11 18 -25 29 -14 11 -25 24 -25 29 0 6 -10 21 -23 34 -33 36 -47 53 -47 60 0 3 -8 14 -17 25 -18 18 -59 96 -82 153 -6 16 -14 69 -18 119 l-6 90 21 -13 c12 -8 22 -17 22 -20 0 -4 14 -12 30 -19 17 -7 30 -16 30 -21 0 -5 18 -18 40 -29 22 -11 40 -25 40 -31 0 -5 16 -17 35 -25 19 -8 35 -18 35 -23 0 -4 16 -16 35 -27 19 -10 35 -22 35 -26 0 -5 6 -8 13 -8 8 0 22 -9 33 -21 10 -12 36 -30 57 -40 20 -11 37 -24 37 -29 0 -5 16 -16 35 -24 19 -8 35 -19 35 -23 0 -5 15 -17 33 -28 17 -10 37 -23 42 -27 6 -4 24 -19 41 -33 17 -13 43 -29 58 -34 14 -6 26 -16 26 -24 0 -7 15 -19 34 -25 19 -7 37 -19 40 -27 3 -8 20 -22 38 -31 18 -9 40 -24 48 -33 8 -9 39 -32 67 -51 29 -19 53 -38 53 -42 0 -5 6 -8 13 -8 8 0 22 -9 33 -21 10 -12 36 -30 57 -40 20 -11 37 -23 37 -27 0 -13 65 -41 86 -38 11 2 29 18 42 36 21 32 22 41 25 304 1 149 2 326 1 393 l0 122 -64 83 c-35 46 -68 85 -72 86 -4 2 -8 8 -8 14 0 6 -13 27 -30 48 -16 21 -30 42 -30 47 0 5 -9 15 -20 23 -11 8 -20 20 -20 27 0 7 -4 13 -9 13 -6 0 -16 11 -23 25 -7 13 -41 63 -76 110 -58 81 -85 136 -66 135 5 -1 25 -10 44 -20 19 -11 56 -29 83 -41 26 -12 47 -25 47 -29 0 -4 18 -13 40 -20 22 -7 47 -21 56 -32 10 -10 23 -18 30 -18 7 0 19 -6 27 -14 15 -16 87 -50 100 -48 4 1 7 -4 8 -11 0 -6 41 -32 92 -57 51 -24 95 -49 99 -54 10 -15 68 -9 89 10 10 9 19 14 19 10 0 -3 29 12 64 34 35 22 68 40 75 40 6 0 11 4 11 8 0 9 70 42 88 42 7 0 12 4 12 8 0 5 17 17 38 28 20 10 39 21 42 25 12 13 89 47 94 42 3 -4 6 -1 6 5 0 7 17 20 38 30 20 9 39 19 42 23 11 12 90 48 90 41 0 -4 5 1 11 11 17 30 32 20 26 -18z"/>
 </g>

</svg>