<!DOCTYPE svg PUBLIC "-//W3C//DTD SVG 20010904//EN" "http://www.w3.org/TR/2001/REC-SVG-20010904/DTD/svg10.dtd">
<svg version="1.0" xmlns="http://www.w3.org/2000/svg" width="520px" height="520px" viewBox="0 0 5200 5200" preserveAspectRatio="xMidYMid meet">
<g id="layer101" fill="#192e51" stroke="none">
 <path d="M2516 5129 c-49 -58 -30 -136 61 -239 17 -19 59 -78 94 -130 35 -52 85 -124 112 -160 27 -36 52 -72 55 -80 6 -18 59 -96 79 -119 8 -9 43 -63 78 -121 35 -58 69 -111 76 -118 6 -8 43 -68 82 -135 38 -67 73 -124 76 -127 8 -6 56 -90 114 -200 21 -41 43 -77 48 -80 4 -3 41 -72 81 -152 40 -81 87 -176 105 -210 18 -35 54 -112 80 -173 26 -60 50 -112 54 -115 8 -5 92 -223 130 -335 13 -38 27 -72 30 -75 24 -18 132 -479 145 -618 4 -40 11 -75 15 -78 13 -7 11 -311 -1 -319 -5 -3 -10 -21 -10 -38 0 -49 -45 -232 -80 -329 -29 -81 -80 -174 -168 -308 -45 -68 -193 -230 -247 -269 -22 -16 -53 -41 -70 -57 -34 -32 -188 -121 -255 -148 -25 -10 -47 -21 -50 -26 -8 -13 -156 -58 -265 -82 -82 -18 -133 -22 -285 -22 -152 0 -203 4 -285 22 -110 24 -257 69 -265 82 -3 5 -28 17 -55 28 -61 24 -228 119 -237 136 -3 6 -33 30 -65 54 -69 50 -214 205 -265 282 -88 134 -139 227 -168 308 -35 97 -80 280 -80 329 0 17 -4 35 -10 38 -13 8 -13 299 -1 323 5 9 14 58 20 107 20 156 119 561 141 575 4 3 11 16 14 30 20 69 136 373 145 380 3 3 16 28 28 55 72 165 118 264 136 295 12 19 50 93 85 165 35 71 67 132 72 135 4 3 25 37 45 75 60 113 108 200 115 205 7 6 37 56 80 135 18 33 45 77 59 99 55 81 81 132 81 161 0 39 -33 93 -66 105 -35 14 -87 12 -105 -2 -42 -36 -107 -134 -213 -323 -6 -10 -16 -25 -23 -33 -7 -7 -33 -52 -59 -100 -26 -48 -67 -121 -91 -162 -24 -41 -69 -127 -100 -190 -30 -63 -59 -117 -63 -120 -4 -3 -33 -61 -64 -130 -32 -69 -75 -161 -96 -205 -21 -44 -47 -102 -58 -130 -52 -129 -80 -204 -87 -233 -3 -18 -10 -32 -15 -32 -11 0 -73 -198 -115 -370 -20 -80 -40 -154 -45 -165 -16 -35 -40 -196 -52 -354 -9 -119 -9 -184 0 -288 12 -130 39 -283 52 -293 3 -3 17 -41 29 -85 31 -104 106 -276 137 -312 13 -15 24 -32 24 -36 0 -19 113 -172 186 -251 78 -86 224 -212 312 -272 87 -57 284 -154 377 -183 179 -58 273 -73 493 -78 218 -6 297 2 469 42 100 24 293 90 303 105 3 4 46 28 95 53 123 64 249 161 377 291 92 93 228 267 228 293 0 4 11 21 24 36 31 36 106 208 137 312 12 44 26 82 29 85 12 9 41 174 52 302 9 97 9 165 0 282 -13 172 -41 356 -54 356 -4 0 -8 8 -8 18 0 52 -116 467 -146 522 -7 14 -27 63 -44 110 -50 138 -80 210 -126 305 -24 50 -66 142 -95 205 -28 63 -55 117 -59 120 -4 3 -39 70 -79 150 -41 80 -77 147 -81 150 -4 3 -31 50 -60 105 -29 55 -72 129 -95 165 -23 36 -54 88 -70 115 -46 82 -89 150 -98 153 -4 2 -17 21 -27 43 -24 46 -114 188 -133 209 -20 22 -77 107 -77 115 0 10 -55 86 -89 124 -17 19 -31 39 -31 44 0 11 -163 233 -203 275 -28 29 -37 32 -88 32 -52 0 -60 -3 -83 -31z"/>
 <path d="M2430 2420 c-127 -27 -223 -75 -320 -160 -45 -40 -98 -98 -118 -129 -20 -31 -41 -62 -48 -68 -17 -17 -52 -112 -71 -192 -21 -91 -20 -267 2 -356 19 -79 63 -185 76 -185 5 0 9 -6 9 -12 0 -25 103 -150 164 -199 33 -27 90 -63 126 -80 36 -16 78 -36 94 -45 70 -36 272 -58 317 -34 28 15 49 63 49 110 0 33 -7 48 -32 74 -29 30 -41 34 -107 40 -91 9 -184 37 -233 71 -20 14 -41 25 -46 25 -12 0 -90 92 -128 150 -16 25 -32 48 -36 51 -5 3 -18 43 -29 89 -17 66 -20 101 -16 161 6 72 31 168 47 179 4 3 15 23 26 45 24 51 125 154 188 190 147 85 365 85 512 0 63 -36 164 -139 188 -190 11 -22 22 -42 26 -45 4 -3 16 -30 26 -60 26 -76 26 -234 0 -310 -10 -30 -22 -57 -25 -60 -3 -3 -23 -33 -44 -67 -46 -76 -50 -127 -12 -171 51 -61 145 -50 195 23 17 24 30 48 30 54 0 6 4 11 9 11 13 0 57 107 76 185 22 90 23 266 2 356 -19 80 -54 175 -71 192 -7 6 -28 37 -48 68 -52 81 -184 194 -277 236 -151 69 -335 89 -501 53z"/>
 </g>

</svg>