<svg xmlns="http://www.w3.org/2000/svg" viewBox="0 0 409.66 409.66"><defs><style>.cls-1{fill:#364c73;}</style></defs><title>Ресурс 1</title><g id="Слой_2" data-name="Слой 2"><g id="Слой_1-2" data-name="Слой 1"><g id="Слой_2-2" data-name="Слой 2"><g id="Слой_1-2-2" data-name="Слой 1-2"><g id="Слой_2-2-2" data-name="Слой 2-2"><g id="Слой_1-2-2-2" data-name="Слой 1-2-2"><path class="cls-1" d="M93.29,272.08c17.31-6,34.44-11,51.25-18.13A49.92,49.92,0,0,1,126,238.13c-5-7-7.33-15.11-9.93-23.27l2.23-.27c-11.64-12.55-15.92-27.17-13-44.05l2.2.81c.73.26,1.45.48,2.69.89-5.54-11.35-6.92-22.72-4.2-34.54,1.78-7.75,5.67-14.54,9.75-21.64,13.21,17.36,28.77,31.52,48.79,40.22,10,4.34,23.8,8.14,30.63,8.4,0-4.19-.47-8.45.08-12.57,2-15.26,10.52-26.24,24.11-32.85,18.34-8.92,36.4-7.93,53.59,3.5a2.27,2.27,0,0,1,.53.38c2.46,3,5.27,2.73,8.63,1.46,8.22-3.1,16.56-5.87,24.85-8.77.73-.25,1.47-.48,2.71-.88l-8.12,23.29h14.85c-.36.53-.75,1.15-1.19,1.74-6.06,8.27-12,16.64-18.25,24.76a26.2,26.2,0,0,0-5.43,18.12,124.45,124.45,0,0,1-5.37,44.36C278.37,251.68,263,269.93,240.4,282c-16.52,8.79-34.33,12.83-52.89,14a168.46,168.46,0,0,1-46.21-3.13c-12.52-2.69-24.13-7.88-35.38-13.87C101.83,276.79,97.78,274.53,93.29,272.08ZM119,139.94a34.87,34.87,0,0,0-.3,17.48,37,37,0,0,0,12.49,20.23c5.69,4.75,11.6,9.24,17.41,13.85.57.45,1.11.95,1.67,1.42l-.22.36-31.22-3.35a15.77,15.77,0,0,0,.4,1.6c4.15,11.57,12,19.54,23.75,23.08,8.06,2.42,16.32,4.16,24.49,6.21.49.12,1,.34,2.07.74l-33,8.73a32.57,32.57,0,0,0,8.76,9c7,5,15.09,6.49,23.49,6.88,6.65.32,13.29.82,19.94,1.24-20,9.9-39.87,19.94-61.68,27.15,2.35.9,4,1.56,5.68,2.19,11.44,4.29,23.4,5.73,35.48,6.32,21.48,1,42.41-1.46,62.1-10.71,22.92-10.77,37.85-28.4,44.51-52.9a120.42,120.42,0,0,0,3.69-36.52,57.11,57.11,0,0,1,.48-9.78c.92-6.85,4.45-12.51,8.69-17.79.68-.85,1.26-1.79,2.12-3h-7.07l5.51-15.9c-2.73.81-5.06,1.52-7.39,2.2a12.27,12.27,0,0,1-11.71-2.17,54.89,54.89,0,0,0-6.5-4.75c-11.4-6.54-23.26-6.76-35.22-1.82-8.25,3.41-14.43,9.16-17.75,17.64-2.5,6.41-2.08,12.92-.69,19.52.84,4,1.21,8.09,1.8,12.19C174.83,178.26,144.22,165.75,119,139.94Z"/><path class="cls-1" d="M204.83,19c102.63,0,185.83,83.2,185.83,185.83a185.83,185.83,0,0,1-54.43,131.4c-72.21,72.93-189.87,73.53-262.8,1.32S-.1,147.68,72.11,74.75l1.32-1.32A184.61,184.61,0,0,1,204.83,19m0-19C91.7,0,0,91.7,0,204.83S91.7,409.66,204.83,409.66,409.66,318,409.66,204.83,318,0,205,0Z"/></g></g></g></g></g></g></svg>