<svg width="24" height="24" viewBox="0 0 24 24" fill="none" xmlns="http://www.w3.org/2000/svg">
<path d="M21.6562 2.0625H19.4219V1.40625C19.4219 0.630844 18.791 0 18.0156 0C17.2402 0 16.6094 0.630844 16.6094 1.40625V2.0625H8.73436V1.40625C8.73436 0.630844 8.10352 0 7.32811 0C6.5527 0 5.92186 0.630844 5.92186 1.40625V2.07984C5.88202 2.06883 5.84025 2.0625 5.79689 2.0625H3.9292C2.63686 2.0625 1.58545 3.11391 1.58545 4.40625V12.3906C1.58545 12.6495 1.79536 12.8594 2.0542 12.8594C2.31305 12.8594 2.52295 12.6495 2.52295 12.3906V6.89062H19.4219C19.6807 6.89062 19.8906 6.68077 19.8906 6.42188C19.8906 6.16298 19.6807 5.95312 19.4219 5.95312H2.52295V4.40625C2.52295 3.63084 3.1538 3 3.9292 3H5.79689C5.84025 3 5.88202 2.99363 5.92186 2.98266V3.58594C5.92186 4.36134 6.5527 4.99219 7.32811 4.99219C8.10352 4.99219 8.73436 4.36134 8.73436 3.58594V3H16.6094V3.58594C16.6094 4.36134 17.2402 4.99219 18.0156 4.99219C18.791 4.99219 19.4219 4.36134 19.4219 3.58594V3H21.6562C22.4317 3 23.0625 3.63084 23.0625 4.40625V22.2185C23.0625 22.6838 22.6839 23.0625 22.2185 23.0625C21.753 23.0625 21.3744 22.6838 21.3744 22.2185V21.0059C21.3744 20.747 21.1645 20.5371 20.9057 20.5371H15.4531C15.1943 20.5371 14.9844 20.747 14.9844 21.0059C14.9844 21.2647 15.1943 21.4746 15.4531 21.4746H20.4369V22.2185C20.4369 22.5237 20.5142 22.8111 20.65 23.0625H1.78125C1.31602 23.0625 0.9375 22.684 0.9375 22.2188V21.4746H11.4293C11.6881 21.4746 11.898 21.2647 11.898 21.0059C11.898 20.747 11.6881 20.5371 11.4293 20.5371H6.74573C7.56483 19.8317 8.08495 18.7882 8.08495 17.625C8.08495 15.5055 6.36066 13.7812 4.2412 13.7812C2.12175 13.7812 0.397453 15.5055 0.397453 17.625C0.397453 18.7882 0.917578 19.8317 1.73667 20.5371H0.46875C0.209906 20.5371 0 20.747 0 21.0059V22.2188C0 23.2009 0.799078 24 1.78125 24H22.2185C23.2008 24 24 23.2008 24 22.2185V4.40625C24 3.11391 22.9486 2.0625 21.6562 2.0625ZM7.79686 3.58594C7.79686 3.84441 7.58658 4.05469 7.32811 4.05469C7.06964 4.05469 6.85936 3.84441 6.85936 3.58594V1.40625C6.85936 1.14778 7.06964 0.9375 7.32811 0.9375C7.58658 0.9375 7.79686 1.14778 7.79686 1.40625V3.58594ZM18.4844 3.58594C18.4844 3.84441 18.2741 4.05469 18.0156 4.05469C17.7571 4.05469 17.5469 3.84441 17.5469 3.58594V1.40625C17.5469 1.14778 17.7571 0.9375 18.0156 0.9375C18.2741 0.9375 18.4844 1.14778 18.4844 1.40625V3.58594ZM1.33495 17.625C1.33495 16.0225 2.63869 14.7188 4.2412 14.7188C5.84372 14.7188 7.14745 16.0225 7.14745 17.625C7.14745 19.2275 5.84372 20.5312 4.2412 20.5312C2.63869 20.5312 1.33495 19.2275 1.33495 17.625Z" fill="#344A71"/>
<path d="M21.952 6.09047C21.8648 6.00328 21.7439 5.95312 21.6206 5.95312C21.4973 5.95312 21.3764 6.00328 21.2892 6.09047C21.202 6.17766 21.1519 6.29859 21.1519 6.42188C21.1519 6.54516 21.202 6.66609 21.2892 6.75328C21.3764 6.84047 21.4973 6.89062 21.6206 6.89062C21.7439 6.89062 21.8648 6.84047 21.952 6.75328C22.0392 6.66609 22.0894 6.54516 22.0894 6.42188C22.0894 6.29859 22.0392 6.17766 21.952 6.09047Z" fill="#344A71"/>
<path d="M13.9992 20.6742C13.9121 20.587 13.7911 20.5373 13.6678 20.5373C13.5446 20.5373 13.4236 20.587 13.3364 20.6742C13.2493 20.7619 13.1991 20.8823 13.1991 21.0056C13.1991 21.1294 13.2492 21.2498 13.3364 21.3375C13.4236 21.4247 13.5446 21.4744 13.6678 21.4744C13.7911 21.4744 13.9121 21.4247 13.9992 21.3375C14.0864 21.2498 14.1366 21.1289 14.1366 21.0056C14.1366 20.8823 14.0864 20.7619 13.9992 20.6742Z" fill="#344A71"/>
<path d="M10.6052 14.25C9.62305 14.25 8.82397 15.0491 8.82397 16.0312C8.82397 17.0134 9.62305 17.8125 10.6052 17.8125C11.5874 17.8125 12.3865 17.0134 12.3865 16.0312C12.3865 15.0491 11.5874 14.25 10.6052 14.25ZM10.6052 16.875C10.14 16.875 9.76147 16.4965 9.76147 16.0312C9.76147 15.566 10.14 15.1875 10.6052 15.1875C11.0705 15.1875 11.449 15.566 11.449 16.0312C11.449 16.4965 11.0705 16.875 10.6052 16.875Z" fill="#344A71"/>
<path d="M14.9802 14.25C13.9981 14.25 13.199 15.0491 13.199 16.0312C13.199 17.0134 13.9981 17.8125 14.9802 17.8125C15.9624 17.8125 16.7615 17.0134 16.7615 16.0312C16.7615 15.0491 15.9624 14.25 14.9802 14.25ZM14.9802 16.875C14.515 16.875 14.1365 16.4965 14.1365 16.0312C14.1365 15.566 14.515 15.1875 14.9802 15.1875C15.4455 15.1875 15.824 15.566 15.824 16.0312C15.824 16.4965 15.4455 16.875 14.9802 16.875Z" fill="#344A71"/>
<path d="M19.3552 14.25C18.3731 14.25 17.574 15.0491 17.574 16.0312C17.574 17.0134 18.3731 17.8125 19.3552 17.8125C20.3374 17.8125 21.1365 17.0134 21.1365 16.0312C21.1365 15.0491 20.3374 14.25 19.3552 14.25ZM19.3552 16.875C18.89 16.875 18.5115 16.4965 18.5115 16.0312C18.5115 15.566 18.89 15.1875 19.3552 15.1875C19.8205 15.1875 20.199 15.566 20.199 16.0312C20.199 16.4965 19.8205 16.875 19.3552 16.875Z" fill="#344A71"/>
<path d="M6.23029 9.375C5.24811 9.375 4.44904 10.1741 4.44904 11.1562C4.44904 12.1384 5.24811 12.9375 6.23029 12.9375C7.21246 12.9375 8.01154 12.1384 8.01154 11.1562C8.01154 10.1741 7.21246 9.375 6.23029 9.375ZM6.23029 12C5.76505 12 5.38654 11.6215 5.38654 11.1562C5.38654 10.691 5.76505 10.3125 6.23029 10.3125C6.69552 10.3125 7.07404 10.691 7.07404 11.1562C7.07404 11.6215 6.69552 12 6.23029 12Z" fill="#344A71"/>
<path d="M14.9802 9.375C13.9981 9.375 13.199 10.1741 13.199 11.1562C13.199 12.1384 13.9981 12.9375 14.9802 12.9375C15.9624 12.9375 16.7615 12.1384 16.7615 11.1562C16.7615 10.1741 15.9624 9.375 14.9802 9.375ZM14.9802 12C14.515 12 14.1365 11.6215 14.1365 11.1562C14.1365 10.691 14.515 10.3125 14.9802 10.3125C15.4455 10.3125 15.824 10.691 15.824 11.1562C15.824 11.6215 15.4455 12 14.9802 12Z" fill="#344A71"/>
<path d="M19.3552 9.375C18.3731 9.375 17.574 10.1741 17.574 11.1562C17.574 12.1384 18.3731 12.9375 19.3552 12.9375C20.3374 12.9375 21.1365 12.1384 21.1365 11.1562C21.1365 10.1741 20.3374 9.375 19.3552 9.375ZM19.3552 12C18.89 12 18.5115 11.6215 18.5115 11.1562C18.5115 10.691 18.89 10.3125 19.3552 10.3125C19.8205 10.3125 20.199 10.691 20.199 11.1562C20.199 11.6215 19.8205 12 19.3552 12Z" fill="#344A71"/>
<path d="M10.6052 9.375C9.62305 9.375 8.82397 10.1741 8.82397 11.1562C8.82397 12.1384 9.62305 12.9375 10.6052 12.9375C11.5874 12.9375 12.3865 12.1384 12.3865 11.1562C12.3865 10.1741 11.5874 9.375 10.6052 9.375ZM10.6052 12C10.14 12 9.76147 11.6215 9.76147 11.1562C9.76147 10.691 10.14 10.3125 10.6052 10.3125C11.0705 10.3125 11.449 10.691 11.449 11.1562C11.449 11.6215 11.0705 12 10.6052 12Z" fill="#344A71"/>
<path d="M5.91111 16.4826C5.72801 16.2996 5.4313 16.2996 5.24815 16.4826L3.72163 18.0092L3.19996 17.4875C3.01686 17.3045 2.72014 17.3045 2.537 17.4875C2.35396 17.6706 2.35396 17.9674 2.537 18.1505L3.39017 19.0036C3.47811 19.0914 3.59731 19.1408 3.72163 19.1408C3.84594 19.1408 3.96514 19.0914 4.05308 19.0036L5.91111 17.1455C6.09415 16.9625 6.09415 16.6657 5.91111 16.4826Z" fill="#344A71"/>
</svg>
