<svg width="20" height="14" viewBox="0 0 20 14" fill="none" xmlns="http://www.w3.org/2000/svg">
<line x1="0.5" y1="2.04546" x2="19.5" y2="2.04546" stroke="#38547E" stroke-linecap="round"/>
<line x1="0.5" y1="7.13637" x2="19.5" y2="7.13637" stroke="#38547E" stroke-linecap="round"/>
<line x1="0.5" y1="12.2273" x2="19.5" y2="12.2273" stroke="#38547E" stroke-linecap="round"/>
<path d="M16 1.90909C16 2.82965 15.2682 3.56818 14.375 3.56818C13.4818 3.56818 12.75 2.82965 12.75 1.90909C12.75 0.988534 13.4818 0.25 14.375 0.25C15.2682 0.25 16 0.988534 16 1.90909Z" fill="white" stroke="#38547E" stroke-width="0.5"/>
<path d="M7.25 7C7.25 7.92056 6.51824 8.65909 5.625 8.65909C4.73176 8.65909 4 7.92056 4 7C4 6.07945 4.73176 5.34091 5.625 5.34091C6.51824 5.34091 7.25 6.07945 7.25 7Z" fill="white" stroke="#38547E" stroke-width="0.5"/>
<path d="M13.5 12.0909C13.5 13.0115 12.7682 13.75 11.875 13.75C10.9818 13.75 10.25 13.0115 10.25 12.0909C10.25 11.1704 10.9818 10.4318 11.875 10.4318C12.7682 10.4318 13.5 11.1704 13.5 12.0909Z" fill="white" stroke="#38547E" stroke-width="0.5"/>
</svg>
