<svg width="25" height="25" viewBox="0 0 25 25" fill="none" xmlns="http://www.w3.org/2000/svg">
<g clip-path="url(#clip0)">
<path d="M24.6704 0.122087C24.5075 -0.040838 24.2441 -0.040838 24.0812 0.122087L22.5361 1.66675H12.8348L0.638374 13.9636C0.360444 14.2411 0.20752 14.6107 0.20752 15.0032C0.20752 15.3958 0.360444 15.7654 0.638374 16.0429L9.1663 24.5708C9.45257 24.8571 9.828 25 10.2043 25C10.5818 25 10.9601 24.8558 11.2493 24.5666L23.1253 12.3698V2.25594L24.67 0.711283C24.8329 0.548358 24.8329 0.285012 24.6704 0.122087ZM22.2924 12.0314L10.6564 23.9816C10.4084 24.23 10.0043 24.23 9.7555 23.9816L1.22757 15.4537C1.10715 15.3333 1.04089 15.1733 1.04089 15.0032C1.04089 14.8332 1.10715 14.6732 1.22882 14.5516L13.1819 2.50012H21.7032L19.6893 4.51397C19.3597 4.29563 18.966 4.16687 18.5422 4.16687C17.3934 4.16687 16.4587 5.1015 16.4587 6.25031C16.4587 7.39912 17.3934 8.33375 18.5422 8.33375C19.691 8.33375 20.6256 7.39912 20.6256 6.25031C20.6256 5.82654 20.4969 5.43277 20.2785 5.10317L22.2924 3.08932V12.0314ZM19.7922 6.25031C19.7922 6.93951 19.2314 7.50037 18.5422 7.50037C17.853 7.50037 17.2921 6.93951 17.2921 6.25031C17.2921 5.56111 17.853 5.00025 18.5422 5.00025C18.7347 5.00025 18.9147 5.04775 19.0776 5.12567L18.2476 5.95571C18.0847 6.11864 18.0847 6.38198 18.2476 6.54491C18.3288 6.62616 18.4355 6.667 18.5422 6.667C18.6489 6.667 18.7555 6.62616 18.8368 6.54491L19.6668 5.71487C19.7447 5.87779 19.7922 6.0578 19.7922 6.25031Z" fill="#344A71"/>
<path d="M16.8392 8.80504C17.0021 8.64211 17.0021 8.37876 16.8392 8.21584C16.6763 8.05291 16.4129 8.05291 16.25 8.21584L15.9392 8.52669C15.1945 7.93083 14.2495 7.63789 13.2849 7.71956C12.6127 7.77582 12.0044 8.10042 11.5719 8.63336C11.1268 9.18214 10.9214 9.89967 11.0093 10.6018L11.3264 13.1394L7.59833 16.8675C6.74412 15.7258 6.83246 14.0978 7.86918 13.0607C8.0321 12.8977 8.0321 12.6344 7.86918 12.4715C7.70625 12.3085 7.44291 12.3085 7.27998 12.4715C5.91741 13.834 5.82574 15.9921 7.00288 17.463L6.52703 17.9388C6.3641 18.1018 6.3641 18.3651 6.52703 18.528C6.60828 18.6093 6.71495 18.6501 6.82162 18.6501C6.9283 18.6501 7.03497 18.6093 7.11622 18.528L7.5925 18.0517C8.25628 18.5822 9.0784 18.8735 9.93053 18.8735C10.0351 18.8735 10.1401 18.8689 10.2455 18.8601C10.9177 18.8043 11.526 18.4801 11.9585 17.9467C12.404 17.398 12.6094 16.68 12.5215 15.9779L12.2044 13.4403L15.9325 9.71216C16.7863 10.8539 16.6984 12.4823 15.6612 13.5194C15.4983 13.6824 15.4983 13.9457 15.6612 14.1086C15.8242 14.2716 16.0875 14.2716 16.2504 14.1086C17.613 12.7457 17.7043 10.5876 16.5275 9.11672L16.8392 8.80504ZM11.6935 16.0817C11.7535 16.5596 11.6139 17.0479 11.3106 17.4221C11.0223 17.7776 10.6193 17.9934 10.1755 18.0305C9.45967 18.0868 8.75547 17.8809 8.18753 17.4571L11.4569 14.1874L11.6935 16.0817ZM11.8356 10.4985C11.7756 10.0209 11.9152 9.53216 12.2181 9.15839C12.5065 8.80295 12.9098 8.58711 13.3536 8.54961C14.0695 8.49085 14.7741 8.69878 15.3421 9.12297L12.0723 12.3927L11.8356 10.4985Z" fill="#344A71"/>
</g>
<defs>
<clipPath id="clip0">
<rect width="25" height="25" fill="white"/>
</clipPath>
</defs>
</svg>
