<svg width="22" height="22" viewBox="0 0 22 22" fill="none" xmlns="http://www.w3.org/2000/svg">
<path d="M8.35799 7.65414L11 1.30198L13.642 7.65414C13.7572 7.93112 14.0177 8.12038 14.3167 8.14435L21.1744 8.69413L15.9496 13.1698L16.2749 13.5495L15.9496 13.1698C15.7218 13.3649 15.6223 13.6711 15.6919 13.9629L17.2881 20.6549L11.417 17.0688C11.161 16.9124 10.839 16.9124 10.583 17.0688L4.71186 20.6549L6.30813 13.9629C6.37774 13.6711 6.27824 13.3649 6.05041 13.1698L5.72513 13.5495L6.05041 13.1698L0.825579 8.69413L7.68326 8.14435C7.9823 8.12038 8.24278 7.93112 8.35799 7.65414L7.89633 7.46212L8.35799 7.65414ZM21.5396 8.3813L21.5392 8.38167L21.5396 8.3813ZM4.3015 20.9055C4.30163 20.9054 4.30176 20.9054 4.3019 20.9053L4.3015 20.9055Z" stroke="#344A71"/>
</svg>
