<svg width="20" height="20" viewBox="0 0 20 20" fill="none" xmlns="http://www.w3.org/2000/svg">
<g clip-path="url(#clip0)">
<path d="M12.5688 4.97448V3.79737C12.5688 2.91522 11.8511 2.19753 10.9689 2.19753H9.03144C8.1493 2.19753 7.43156 2.91522 7.43156 3.79737V4.97448H5.58289V17.8026H14.4174V4.97448H12.5688ZM11.3854 4.97444H8.61508V3.79733H8.61504C8.61504 3.56772 8.80187 3.38088 9.03152 3.38088H10.9689C11.1986 3.38088 11.3854 3.56772 11.3854 3.79733V4.97444Z" fill="#4DC74B"/>
<path d="M17.2301 4.97462H15.6009V17.8028H17.2301C18.7575 17.8028 20.0001 16.5602 20.0001 15.0328V7.74463C20.0001 6.21724 18.7575 4.97462 17.2301 4.97462Z" fill="#4DC74B"/>
<path d="M4.39945 4.97462H2.77004C1.24262 4.97462 0 6.21724 0 7.74463V15.0328C0 16.5601 1.24262 17.8028 2.77004 17.8028H4.39949L4.39945 4.97462Z" fill="#4DC74B"/>
</g>
<defs>
<clipPath id="clip0">
<rect width="20" height="20" fill="white"/>
</clipPath>
</defs>
</svg>
