<svg width="26" height="26" viewBox="0 0 26 26" fill="none" xmlns="http://www.w3.org/2000/svg">
<path d="M20.2 8.5351C19.6645 8.77 19.0939 8.9257 18.499 9.0013C19.111 8.6359 19.5781 8.0617 19.7977 7.3696C19.2271 7.7098 18.5971 7.9501 17.9257 8.0842C17.3839 7.5073 16.6117 7.15 15.7693 7.15C14.1349 7.15 12.8191 8.4766 12.8191 10.1029C12.8191 10.3369 12.8389 10.5619 12.8875 10.7761C10.4332 10.6564 8.26149 9.4801 6.80259 7.6882C6.54789 8.1301 6.39849 8.6359 6.39849 9.1804C6.39849 10.2028 6.92499 11.1091 7.70979 11.6338C7.23549 11.6248 6.77019 11.4871 6.37599 11.2702C6.37599 11.2792 6.37599 11.2909 6.37599 11.3026C6.37599 12.7372 7.39929 13.9288 8.74119 14.2033C8.50089 14.269 8.23899 14.3005 7.96719 14.3005C7.77819 14.3005 7.58739 14.2897 7.40829 14.2501C7.79079 15.4192 8.87619 16.2787 10.1668 16.3066C9.16239 17.0923 7.88709 17.5657 6.50649 17.5657C6.26439 17.5657 6.03219 17.5549 5.79999 17.5252C7.10769 18.3685 8.65749 18.85 10.3288 18.85C15.7612 18.85 18.7312 14.35 18.7312 10.4494C18.7312 10.3189 18.7267 10.1929 18.7204 10.0678C19.3063 9.652 19.7986 9.1327 20.2 8.5351Z" fill="#4A4F64"/>
<circle cx="13" cy="13" r="12" stroke="#4A4F64"/>
</svg>
