<svg width="35" height="35" viewBox="0 0 35 35" fill="none" xmlns="http://www.w3.org/2000/svg">
<path d="M4.11924 22.3058C4.15289 22.2789 4.16635 22.2318 4.15289 22.1846C4.1327 22.1375 4.17981 22.0298 4.24712 21.9356C4.31443 21.8481 4.37501 21.7404 4.37501 21.7C4.37501 21.6596 4.46924 21.451 4.57693 21.2423C4.69135 21.0337 4.76539 20.8654 4.7452 20.8654C4.72501 20.8654 4.75193 20.7981 4.80577 20.7173C4.85962 20.6298 4.90674 20.5423 4.90674 20.5087C4.90674 20.4818 5.00097 20.2798 5.10866 20.0577C5.22308 19.8356 5.29712 19.6539 5.27693 19.6539C5.26347 19.6539 5.29712 19.5798 5.3577 19.4856C5.41827 19.3914 5.4452 19.3173 5.41827 19.3173C5.39808 19.3173 5.43847 19.2231 5.51924 19.1154C5.60001 19.001 5.67404 18.8731 5.68077 18.826C5.68751 18.7789 5.73462 18.6779 5.775 18.5971C5.82212 18.5096 5.84231 18.4423 5.82212 18.4423C5.80193 18.4423 5.83558 18.3683 5.89616 18.2741C5.95674 18.1798 5.98366 18.1058 5.96347 18.1058C5.93654 18.1058 5.9702 18.025 6.03751 17.9241C6.09808 17.8298 6.16539 17.702 6.17885 17.6414C6.2327 17.3991 6.23943 17.2645 6.19231 17.2308C6.17212 17.2106 6.09135 17.0491 6.01058 16.8606C5.39808 15.3866 4.81251 14.027 4.77885 14C4.73173 13.9664 4.53654 13.5558 4.32789 13.0577C4.16635 12.6741 4.2202 12.3779 4.49616 12.0952C4.69808 11.8933 4.71154 11.8933 5.3577 11.9068C5.75481 11.9135 6.07789 11.9539 6.18558 12.0145C6.27981 12.0616 6.57597 12.3106 6.83847 12.5664C7.10097 12.8154 7.50481 13.1923 7.73366 13.3943C7.96251 13.5962 8.27885 13.8856 8.44039 14.0337C9.23462 14.7673 9.10673 14.7068 9.89424 14.7C10.2846 14.6933 10.8971 14.6866 11.2539 14.6798L11.9135 14.6731L11.8394 14.4914C11.8058 14.3837 11.7317 14.276 11.6914 14.2356C11.6442 14.202 11.5635 14.0673 11.5164 13.9529C11.4692 13.8318 11.4019 13.7308 11.375 13.7308C11.3481 13.7308 11.274 13.6096 11.2135 13.4616C11.1529 13.3135 11.0789 13.1923 11.0385 13.1923C11.0048 13.1923 10.9779 13.1721 10.9846 13.1452C10.9981 13.0846 10.776 12.6404 10.7087 12.5866C10.6817 12.5664 10.601 12.4318 10.5202 12.2837C10.2173 11.6846 10.0625 11.4087 10.0154 11.3885C9.98847 11.375 9.90097 11.2404 9.82693 11.0856C9.74616 10.9308 9.59808 10.6548 9.49039 10.4664C9.3827 10.2846 9.23462 10.002 9.15385 9.84715C9.07981 9.69234 8.99231 9.55772 8.96539 9.54426C8.91827 9.52407 8.74327 9.21445 8.46058 8.64907C8.38654 8.50099 8.30577 8.36638 8.27212 8.34618C8.2452 8.32599 8.1577 8.17118 8.07693 8.00965C7.91539 7.65965 7.65289 7.20868 7.53847 7.0808C7.4577 6.9933 7.43077 6.68368 7.48462 6.45484C7.52501 6.27311 7.68654 6.11157 7.90866 6.02407C8.11058 5.9433 9.16058 5.9433 9.63173 6.02407C9.85385 6.06445 9.96828 6.09811 10.5471 6.32022C10.6683 6.36734 10.7692 6.44138 10.7692 6.48176C10.7692 6.52215 10.7894 6.53561 10.8096 6.50868C10.8635 6.46157 11.0183 6.60292 12.1154 7.67311C12.6269 8.17118 13.3337 8.85772 13.6971 9.18753C14.0539 9.52407 14.6125 10.0491 14.9423 10.3654C15.6289 11.0318 16.6452 11.9808 17.1231 12.3981C17.3048 12.5596 17.5471 12.7818 17.6683 12.8895C17.7827 13.0039 18.0587 13.2462 18.274 13.4279C18.4827 13.6164 18.725 13.825 18.8058 13.8991C18.8798 13.9798 19.1087 14.1683 19.3038 14.3231L19.6673 14.6058L21.4577 14.6125C23.9615 14.6125 26.6337 14.7068 26.9904 14.8077C27.1587 14.8481 27.4144 14.9221 27.5625 14.9625C28.0135 15.0904 29.2048 15.5818 29.2788 15.676C29.326 15.7298 30.0192 16.1539 30.0663 16.1539C30.1 16.1539 30.6721 16.7462 30.7933 16.9077C30.8673 17.0087 30.8808 17.0491 30.9144 17.3923C30.9346 17.5337 30.901 17.6885 30.8471 17.7693C30.7933 17.8433 30.7731 17.9039 30.7933 17.9039C30.9077 17.9039 30.2952 18.5029 30.0529 18.6241C29.9385 18.6846 29.7904 18.7789 29.7163 18.8462C29.5615 18.9741 29.1779 19.1827 28.774 19.351C28.626 19.4183 28.4442 19.4923 28.3702 19.526C28.101 19.6404 27.5558 19.802 27.0981 19.9029C26.6942 19.9904 26.0817 20.0039 23.1 19.9971L19.5798 19.9837L18.7721 20.7106C18.3279 21.1077 17.8702 21.5048 17.7558 21.5923C17.3788 21.8616 15.1106 24.002 12.9029 26.1693C11.725 27.3202 10.7289 28.2693 10.7019 28.2693C10.6683 28.2693 10.5135 28.3568 10.3519 28.4645C10.1904 28.5654 10.0019 28.6731 9.92789 28.6933C9.85385 28.7135 9.625 28.7808 9.42308 28.8414C8.89808 28.9895 7.80097 28.9827 7.53847 28.8279C7.32981 28.7068 7.1952 28.4241 7.23558 28.2087C7.2625 28.0539 7.44424 27.6904 7.61924 27.4481C7.69327 27.3404 7.73366 27.2596 7.70673 27.2596C7.68654 27.2596 7.74712 27.152 7.84808 27.0241C7.94231 26.8962 8.00289 26.7885 7.9827 26.7885C7.95577 26.7885 8.02308 26.6741 8.12404 26.5395C8.225 26.4048 8.30577 26.277 8.30577 26.2568C8.29904 26.2366 8.37308 26.0952 8.47404 25.9471C8.76347 25.4962 8.81731 25.4154 8.89808 25.2404C8.9452 25.1462 9.0327 24.9914 9.10673 24.8904C9.17404 24.7827 9.21443 24.702 9.1875 24.702C9.16731 24.702 9.22789 24.5943 9.32885 24.4664C9.42308 24.3385 9.48366 24.2308 9.45673 24.2308C9.42308 24.2308 9.45 24.177 9.50385 24.1164C9.61827 23.9885 10.1635 23.0933 10.1635 23.0395C10.1635 23.0193 10.224 22.9183 10.3048 22.8106C10.3789 22.7029 10.426 22.6154 10.399 22.6154C10.3789 22.6154 10.4394 22.5077 10.5404 22.3798C10.6346 22.252 10.6952 22.1443 10.675 22.1443C10.6481 22.1443 10.7356 22.0029 10.8702 21.8346C10.9981 21.6596 11.1058 21.4846 11.1058 21.4375C11.1058 21.3971 11.1664 21.3029 11.2404 21.2356C11.3144 21.1683 11.3952 21.0539 11.4154 20.9731C11.4423 20.8991 11.5365 20.7308 11.6308 20.6164C11.7183 20.4952 11.7721 20.3943 11.7519 20.3943C11.725 20.3943 11.7587 20.3202 11.8192 20.226L11.9269 20.0577L10.5538 20.0779L9.17404 20.0914L7.70673 21.4712C6.90577 22.225 6.15193 22.8914 6.03077 22.9385C5.91635 22.9923 5.60001 23.0596 5.32404 23.0933C4.79231 23.1673 4.45577 23.1 4.24039 22.8846C4.1125 22.7568 4.025 22.3596 4.11924 22.3058ZM5.46539 22.1173C5.62693 22.0837 5.91635 21.8481 6.56251 21.2154C7.04039 20.7375 7.73366 20.0779 8.09039 19.7346L8.75001 19.1221L10.2442 19.1154C12.8827 19.0952 13.0106 19.102 13.1385 19.2568C13.2865 19.4318 13.2933 19.6471 13.1519 19.8423C13.0981 19.9231 13.0712 19.9904 13.0913 19.9904C13.1183 19.9904 13.0375 20.1116 12.9231 20.2596C12.8087 20.4077 12.7279 20.5289 12.7548 20.5289C12.7817 20.5289 12.7346 20.6298 12.6404 20.751C12.5529 20.8654 12.4452 21.0404 12.3981 21.1346C12.3577 21.2289 12.2433 21.4241 12.149 21.5721C12.0548 21.7202 11.9471 21.9154 11.9 22.0096C11.8529 22.1039 11.7317 22.2923 11.624 22.4337C11.5164 22.5683 11.449 22.6827 11.476 22.6827C11.5029 22.6827 11.4423 22.7904 11.3481 22.9183C11.2471 23.0462 11.1798 23.1539 11.2067 23.1539C11.2269 23.1539 11.1529 23.2818 11.0385 23.4366C10.9308 23.5846 10.8365 23.7395 10.8365 23.7731C10.8365 23.8135 10.776 23.9279 10.6952 24.0356C10.6212 24.1433 10.574 24.2308 10.601 24.2308C10.6212 24.2308 10.5606 24.3385 10.4596 24.4664C10.3654 24.5943 10.3048 24.702 10.325 24.702C10.3519 24.702 10.2981 24.8029 10.2039 24.9241C10.1029 25.052 10.0288 25.1798 10.0288 25.2135C10.0288 25.2471 9.93462 25.3952 9.82693 25.5366C9.7125 25.6846 9.625 25.8327 9.625 25.8664C9.625 25.9 9.56443 26.0145 9.48366 26.1221C9.40962 26.2298 9.3625 26.3173 9.38943 26.3173C9.40962 26.3173 9.34904 26.425 9.24808 26.5529C9.15385 26.6808 9.09327 26.7885 9.1202 26.7885C9.14712 26.7885 9.09327 26.8895 8.99231 27.0173C8.89808 27.1452 8.81731 27.2798 8.81731 27.3068C8.81731 27.3404 8.72308 27.4952 8.61539 27.6433C8.3327 28.027 8.40674 28.0471 9.24135 27.8587C9.84712 27.7173 10.1702 27.4616 12.0144 25.6443C14.2894 23.4164 16.975 20.8721 17.2173 20.7173C17.3183 20.6568 17.5135 20.4683 17.6548 20.3C17.7962 20.125 17.9442 19.9904 17.9779 19.9904C18.0183 19.9904 18.2875 19.775 18.5837 19.5058L19.1154 19.0279L22.7029 19.0346C26.2567 19.0481 26.2904 19.0481 26.8894 18.8866C28.0673 18.5837 29.2788 17.8096 29.2587 17.3789C29.2452 17.1904 29.0096 16.827 28.9019 16.827C28.8683 16.827 28.7337 16.7327 28.6058 16.625C28.276 16.3289 27.7106 16.0866 26.6538 15.7635C26.2567 15.6423 25.5971 15.6154 22.326 15.5885C18.7317 15.5548 19.1019 15.6221 18.3212 14.875C18.1462 14.7068 17.8567 14.451 17.6683 14.3029C17.4865 14.1548 17.2039 13.8991 17.0289 13.7308C16.8606 13.5625 16.4971 13.2327 16.2279 12.9904C15.9587 12.7481 15.5683 12.3914 15.3596 12.1962C14.0202 10.9308 13.226 10.1702 11.9808 8.95195C10.4933 7.49138 10.251 7.26926 10.1096 7.26926C10.0692 7.26926 10.0289 7.24234 10.0289 7.21542C10.0289 7.12118 9.59135 7.00003 9.12693 6.95292L8.6827 6.91253L8.75001 7.07407C8.79039 7.16157 8.83751 7.28945 8.8577 7.35676C8.88462 7.41734 8.925 7.47118 8.95193 7.47118C8.97885 7.47118 9.03943 7.57215 9.08654 7.6933C9.13366 7.80772 9.2077 7.94234 9.25481 7.97599C9.30193 8.01638 9.40289 8.17792 9.48366 8.34618C9.61827 8.62888 9.74616 8.85772 10.1635 9.55772C10.2577 9.71926 10.4058 9.98176 10.4933 10.1568C10.5808 10.325 10.6683 10.4798 10.7019 10.5C10.7289 10.5202 10.8164 10.6683 10.8971 10.8366C11.1798 11.4154 11.3212 11.6443 11.3817 11.6443C11.4221 11.6443 11.4288 11.6712 11.4087 11.7116C11.3885 11.7452 11.4019 11.8125 11.4423 11.8596C11.5702 12.0145 11.8462 12.4587 11.8462 12.5125C11.8462 12.5395 11.9 12.6202 11.9673 12.6943C12.0346 12.7616 12.149 12.9635 12.2231 13.1385C12.2904 13.3202 12.3712 13.4616 12.4048 13.4616C12.4317 13.4616 12.499 13.5827 12.5596 13.7308C12.6202 13.8789 12.6942 14 12.7212 14C12.7481 14 12.8087 14.101 12.8625 14.2221C12.9096 14.3366 13.024 14.552 13.1183 14.7C13.3606 15.0702 13.3606 15.3058 13.1115 15.5145C12.9164 15.6827 12.9029 15.6827 11.4558 15.7029C10.6548 15.7096 9.70577 15.7164 9.35577 15.7096L8.71635 15.7096L8.23847 15.2385C7.9827 14.9827 7.6327 14.6664 7.46443 14.5318C7.30289 14.3971 7.00001 14.1279 6.79135 13.926C6.08462 13.2395 5.62693 12.8558 5.50578 12.8558C5.39135 12.8558 5.39135 12.8693 5.49231 13.1116C5.54616 13.2462 5.68751 13.5895 5.7952 13.8654C5.90962 14.1414 6.03751 14.4039 6.08462 14.4375C6.13174 14.4779 6.15866 14.5385 6.1452 14.5789C6.13174 14.626 6.16539 14.7068 6.22597 14.7673C6.28654 14.8279 6.31347 14.875 6.28654 14.875C6.26635 14.875 6.27308 14.9154 6.31347 14.9625C6.41443 15.0837 7.33654 17.2981 7.33654 17.4193C7.33654 17.4731 7.2625 17.6616 7.16827 17.8433C7.08077 18.025 7.0202 18.1731 7.04039 18.1731C7.05385 18.1731 7.0202 18.2471 6.95962 18.3414C6.89904 18.4356 6.87212 18.5096 6.89904 18.5096C6.91923 18.5096 6.87885 18.6039 6.79808 18.7116C6.71731 18.826 6.64327 18.9539 6.63654 19.001C6.62981 19.0481 6.5827 19.1491 6.54231 19.2366C6.4952 19.3173 6.47501 19.3846 6.4952 19.3846C6.51539 19.3846 6.48173 19.4587 6.42116 19.5529C6.36058 19.6471 6.33366 19.7212 6.36058 19.7212C6.38077 19.7212 6.34039 19.8154 6.25962 19.9231C6.17885 20.0375 6.10481 20.1654 6.09808 20.2125C6.09135 20.2596 6.01058 20.4481 5.91635 20.6298C5.82212 20.8183 5.74135 20.9798 5.74135 21C5.72789 21.0606 5.38462 21.8414 5.32404 21.9423C5.20962 22.1173 5.24327 22.1645 5.46539 22.1173Z" fill="#FF7A1B"/>
</svg>
