<svg width="50" height="50" viewBox="0 0 50 50" fill="none" xmlns="http://www.w3.org/2000/svg">
<path d="M29.1636 16.651H31.4459V12.676C31.0522 12.6219 29.698 12.5 28.1209 12.5C24.8303 12.5 22.5761 14.5698 22.5761 18.3739V21.875H18.9449V26.3187H22.5761V37.5H27.0282V26.3198H30.5126L31.0657 21.876H27.0272V18.8146C27.0282 17.5302 27.374 16.651 29.1636 16.651Z" fill="white"/>
<path d="M50 25C50 38.8071 38.8071 50 25 50C11.1929 50 0 38.8071 0 25C0 11.1929 11.1929 0 25 0C38.8071 0 50 11.1929 50 25ZM1.25 25C1.25 38.1168 11.8832 48.75 25 48.75C38.1168 48.75 48.75 38.1168 48.75 25C48.75 11.8832 38.1168 1.25 25 1.25C11.8832 1.25 1.25 11.8832 1.25 25Z" fill="white"/>
</svg>
