<svg width="50" height="50" viewBox="0 0 50 50" fill="none" xmlns="http://www.w3.org/2000/svg">
<path d="M22.3095 28.3135L21.896 34.1302C22.4876 34.1302 22.7439 33.876 23.0512 33.5708L25.8251 30.9198L31.573 35.1292C32.6272 35.7167 33.3699 35.4073 33.6543 34.1594L37.4272 16.4802L37.4282 16.4792C37.7626 14.9208 36.8647 14.3114 35.8376 14.6937L13.6605 23.1844C12.147 23.7719 12.1699 24.6156 13.4032 24.9979L19.073 26.7614L32.2428 18.5208C32.8626 18.1104 33.4262 18.3375 32.9626 18.7479L22.3095 28.3135Z" fill="white"/>
<path d="M50 25C50 38.8071 38.8071 50 25 50C11.1929 50 0 38.8071 0 25C0 11.1929 11.1929 0 25 0C38.8071 0 50 11.1929 50 25ZM1.25 25C1.25 38.1168 11.8832 48.75 25 48.75C38.1168 48.75 48.75 38.1168 48.75 25C48.75 11.8832 38.1168 1.25 25 1.25C11.8832 1.25 1.25 11.8832 1.25 25Z" fill="white"/>
</svg>
