<svg width="50" height="50" viewBox="0 0 50 50" fill="none" xmlns="http://www.w3.org/2000/svg">
<path d="M37.5 17.2484C36.5703 17.6562 35.5797 17.9266 34.5469 18.0578C35.6094 17.4234 36.4203 16.4266 36.8016 15.225C35.8109 15.8156 34.7172 16.2328 33.5516 16.4656C32.6109 15.4641 31.2703 14.8438 29.8078 14.8438C26.9703 14.8438 24.6859 17.1469 24.6859 19.9703C24.6859 20.3766 24.7203 20.7672 24.8047 21.1391C20.5438 20.9312 16.7734 18.8891 14.2406 15.7781C13.7984 16.5453 13.5391 17.4234 13.5391 18.3687C13.5391 20.1437 14.4531 21.7172 15.8156 22.6281C14.9922 22.6125 14.1844 22.3734 13.5 21.9969C13.5 22.0125 13.5 22.0328 13.5 22.0531C13.5 24.5438 15.2766 26.6125 17.6063 27.0891C17.1891 27.2031 16.7344 27.2578 16.2625 27.2578C15.9344 27.2578 15.6031 27.2391 15.2922 27.1703C15.9563 29.2 17.8406 30.6922 20.0813 30.7406C18.3375 32.1047 16.1234 32.9266 13.7266 32.9266C13.3062 32.9266 12.9031 32.9078 12.5 32.8563C14.7703 34.3203 17.4609 35.1562 20.3625 35.1562C29.7938 35.1562 34.95 27.3438 34.95 20.5719C34.95 20.3453 34.9422 20.1266 34.9313 19.9094C35.9484 19.1875 36.8031 18.2859 37.5 17.2484Z" fill="white"/>
<path d="M50 25C50 38.8071 38.8071 50 25 50C11.1929 50 0 38.8071 0 25C0 11.1929 11.1929 0 25 0C38.8071 0 50 11.1929 50 25ZM1.25 25C1.25 38.1168 11.8832 48.75 25 48.75C38.1168 48.75 48.75 38.1168 48.75 25C48.75 11.8832 38.1168 1.25 25 1.25C11.8832 1.25 1.25 11.8832 1.25 25Z" fill="white"/>
</svg>
