<!DOCTYPE svg PUBLIC "-//W3C//DTD SVG 20010904//EN" "http://www.w3.org/TR/2001/REC-SVG-20010904/DTD/svg10.dtd">
<svg version="1.0" xmlns="http://www.w3.org/2000/svg" width="520px" height="520px" viewBox="0 0 5200 5200" preserveAspectRatio="xMidYMid meet">
<g id="layer101" fill="#ff7a1b" stroke="none">
 <path d="M3314 4588 c-4 -5 -11 -7 -18 -5 -7 3 -23 -4 -37 -14 -13 -10 -29 -19 -35 -19 -6 0 -37 -14 -68 -30 -31 -17 -56 -28 -56 -25 0 3 -10 -1 -22 -9 -13 -8 -26 -15 -31 -15 -4 0 -34 -14 -67 -30 -33 -17 -60 -28 -60 -25 0 2 -11 -3 -25 -12 -14 -9 -25 -13 -25 -9 0 3 -14 -3 -30 -15 -17 -12 -36 -23 -43 -24 -7 -1 -22 -8 -34 -14 -13 -7 -23 -10 -23 -7 0 3 -11 -2 -25 -11 -14 -9 -25 -13 -25 -10 0 4 -12 -1 -27 -11 -14 -9 -33 -19 -42 -21 -36 -8 -56 -9 -61 -2 -3 3 -27 15 -55 27 -219 91 -421 178 -425 183 -5 7 -66 36 -140 67 -57 24 -101 16 -143 -25 -30 -30 -30 -32 -28 -128 1 -59 7 -107 16 -123 7 -14 44 -58 82 -97 37 -39 93 -99 123 -133 30 -34 73 -81 95 -105 109 -118 100 -99 99 -216 -1 -58 -2 -149 -3 -202 l-1 -98 -27 11 c-16 5 -32 16 -38 22 -5 7 -25 19 -42 26 -18 7 -33 17 -33 21 0 4 -18 15 -40 24 -22 9 -40 20 -40 26 0 5 -3 9 -7 8 -9 -2 -75 31 -83 41 -3 4 -23 16 -45 28 -89 45 -130 68 -133 75 -2 4 -22 17 -45 28 -23 12 -64 34 -92 50 -27 16 -69 38 -92 50 -23 11 -43 24 -45 28 -3 7 -49 33 -133 75 -22 11 -42 23 -45 28 -3 4 -26 17 -50 29 -52 24 -119 63 -138 80 -13 12 -59 16 -93 8 -27 -6 -51 -30 -64 -63 -12 -30 -12 -186 0 -256 6 -33 11 -50 44 -136 7 -18 18 -33 24 -33 6 0 8 -3 4 -6 -7 -8 14 -31 173 -194 74 -76 176 -181 225 -235 50 -53 128 -136 175 -185 99 -102 240 -253 302 -324 24 -27 57 -63 73 -81 17 -17 53 -58 80 -90 28 -31 59 -67 70 -79 12 -11 40 -45 63 -74 l42 -54 1 -266 c0 -372 14 -769 29 -822 6 -25 17 -63 23 -85 19 -67 92 -244 106 -255 8 -7 71 -110 71 -117 0 -5 88 -90 112 -108 15 -11 21 -13 72 -18 21 -3 44 2 56 10 11 8 20 11 20 8 0 -17 89 74 107 110 9 17 23 39 33 50 19 23 50 80 75 140 10 22 21 49 26 60 17 40 41 121 56 189 13 60 15 151 14 594 l-2 523 108 120 c59 66 118 134 131 151 40 56 358 393 680 721 171 175 312 323 312 327 0 5 13 28 29 52 15 24 31 52 34 63 3 11 13 45 22 75 22 78 21 241 -2 280 -18 31 -60 51 -92 45 -23 -4 -77 -31 -113 -57 -16 -11 -28 -17 -28 -13 0 3 -16 -6 -35 -21 -19 -14 -35 -23 -35 -20 0 4 -17 -6 -37 -21 -20 -15 -39 -27 -42 -27 -3 1 -24 -10 -46 -25 -67 -43 -79 -51 -105 -63 -14 -7 -37 -20 -52 -31 -16 -10 -28 -16 -28 -12 0 3 -16 -6 -35 -21 -19 -14 -35 -23 -35 -19 0 5 -8 1 -17 -7 -19 -17 -152 -98 -160 -98 -3 0 -18 -9 -34 -21 -16 -11 -29 -18 -29 -14 0 3 -16 -6 -35 -21 -19 -14 -35 -23 -35 -20 0 4 -21 -9 -46 -29 -26 -19 -52 -35 -59 -35 -6 0 -20 -9 -30 -20 -10 -11 -27 -23 -39 -26 -11 -4 -36 -18 -53 -32 -18 -13 -33 -21 -33 -18 0 4 -11 -1 -25 -10 l-25 -16 3 204 2 205 205 218 c112 119 211 231 218 249 8 17 18 64 23 105 11 79 1 129 -31 161 -19 19 -78 32 -86 18z m-28 -200 c-5 -24 -40 -67 -134 -163 -71 -71 -169 -174 -220 -227 l-91 -98 -1 -222 c-3 -392 -2 -411 21 -430 26 -22 58 -23 87 -2 12 8 22 12 22 9 0 -4 18 8 40 25 22 17 40 29 40 25 0 -4 15 3 33 17 17 13 43 29 57 36 14 6 43 23 65 37 22 14 51 30 65 37 14 7 42 25 63 41 20 16 37 26 37 22 0 -4 16 5 35 19 19 15 35 25 35 21 0 -3 19 8 42 25 22 16 45 30 50 30 6 0 23 9 39 21 16 11 29 18 29 14 0 -3 16 6 35 21 19 14 35 23 35 20 0 -4 15 4 33 18 19 15 38 26 43 26 5 0 27 14 48 30 22 17 44 30 49 30 5 0 22 9 38 21 16 11 29 18 29 14 0 -3 16 6 35 21 19 14 35 23 35 19 0 -4 15 4 34 19 19 14 39 26 43 26 5 0 28 14 50 30 57 42 60 31 32 -93 -21 -90 -59 -138 -329 -412 -331 -338 -709 -737 -732 -773 -9 -15 -37 -44 -62 -65 -26 -21 -46 -43 -46 -48 0 -6 -32 -46 -72 -90 l-71 -79 1 -533 c2 -528 2 -533 -22 -622 -45 -175 -160 -355 -224 -352 -28 2 -82 37 -82 53 0 5 -14 25 -30 44 -44 49 -80 133 -128 290 -18 59 -22 157 -26 643 -5 534 5 479 -106 595 -25 26 -63 69 -85 97 -22 27 -60 69 -85 95 -25 25 -74 79 -110 119 -36 40 -89 98 -118 129 -188 199 -301 317 -482 502 -217 221 -250 257 -250 278 0 6 -4 12 -8 12 -14 0 -32 65 -39 134 l-6 66 24 -10 c13 -6 32 -13 42 -16 9 -4 17 -10 17 -14 0 -4 15 -13 33 -20 17 -7 37 -18 42 -25 6 -7 30 -22 55 -34 42 -20 76 -39 180 -101 24 -14 63 -36 89 -49 25 -13 48 -26 51 -31 3 -4 25 -17 50 -29 86 -42 120 -63 120 -72 0 -6 4 -7 10 -4 5 3 15 1 22 -5 23 -19 89 -60 97 -60 4 0 16 -8 27 -18 10 -10 40 -27 66 -38 27 -10 48 -22 48 -27 0 -4 18 -14 40 -23 22 -9 40 -20 40 -24 0 -4 15 -13 33 -21 17 -7 49 -24 71 -38 55 -36 90 -36 121 1 25 29 25 31 28 246 1 119 2 260 1 312 l0 95 -70 71 c-38 38 -85 90 -105 115 -20 24 -60 69 -90 100 -102 105 -159 173 -159 191 0 17 2 17 38 2 20 -8 71 -29 112 -45 41 -17 80 -36 85 -43 6 -7 15 -11 21 -9 7 2 19 -3 28 -12 9 -9 16 -13 16 -9 0 3 6 2 13 -4 18 -15 347 -152 365 -152 8 0 36 11 63 25 27 13 49 22 49 19 0 -2 11 3 25 12 14 9 25 13 25 9 0 -3 14 3 30 15 17 12 36 23 43 24 7 1 22 8 35 14 12 7 22 10 22 7 0 -3 11 2 25 11 14 9 25 13 25 9 0 -3 14 3 30 15 17 12 36 23 43 24 7 1 35 13 62 27 28 14 52 26 55 26 9 2 125 53 140 62 26 17 33 12 26 -21z"/>
 </g>

</svg>