<svg width="104" height="104" viewBox="0 0 104 104" fill="none" xmlns="http://www.w3.org/2000/svg">
<path d="M81.1001 47.9243C81.0267 47.5702 80.7797 47.2752 80.4432 47.1418C77.4747 45.961 74.3271 45.3625 71.0879 45.3625C66.0387 45.3625 62.1425 46.8027 60.6378 47.4529L44.5883 33.8267C45.1492 28.9098 42.4914 25.5471 42.3727 25.4007C42.1796 25.1628 41.8959 25.0175 41.5907 25.0003C41.2865 24.9938 40.9855 25.0982 40.7698 25.3146L24.3158 41.7339C24.0979 41.9503 23.9836 42.2495 24.0019 42.5574C24.0192 42.8631 24.1669 43.1483 24.4075 43.3389C26.7601 45.201 29.6315 45.5928 31.6248 45.5928C32.0693 45.5928 32.449 45.5724 32.7391 45.5498L46.4619 61.6462C45.5256 64.0466 42.665 72.7009 46.1308 81.3842C46.2645 81.7211 46.559 81.9665 46.915 82.0397C46.9872 82.0548 47.0606 82.0623 47.1329 82.0623C47.4165 82.0623 47.6916 81.9503 47.8955 81.7469L63.6117 66.0638L78.2492 80.6705C78.4595 80.8804 78.7357 80.9859 79.0118 80.9859C79.2879 80.9859 79.5641 80.8804 79.7744 80.6705C80.1962 80.2496 80.1962 79.5693 79.7744 79.1485L65.1369 64.5418L80.8067 48.9038C81.0634 48.6477 81.1734 48.2795 81.1001 47.9243V47.9243Z" fill="#49A1F8"/>
<path d="M101.887 52.0033C101.887 79.5806 79.5555 101.933 52.0124 101.933C24.4693 101.933 2.13759 79.5806 2.13759 52.0033C2.13759 24.426 24.4693 2.07385 52.0124 2.07385C79.5555 2.07385 101.887 24.426 101.887 52.0033Z" stroke="#49A1F8" stroke-width="4"/>
</svg>
