<svg width="112" height="112" viewBox="0 0 112 112" fill="none" xmlns="http://www.w3.org/2000/svg">
<g filter="url(#filter0_d)">
<path d="M105.887 52.0033C105.887 79.5806 83.5555 101.933 56.0124 101.933C28.4693 101.933 6.13759 79.5806 6.13759 52.0033C6.13759 24.426 28.4693 2.07385 56.0124 2.07385C83.5555 2.07385 105.887 24.426 105.887 52.0033Z" stroke="#49A1F8" stroke-width="4"/>
</g>
<path d="M85.1001 45.9243C85.0267 45.5702 84.7797 45.2752 84.4432 45.1418C81.4747 43.961 78.3271 43.3625 75.0879 43.3625C70.0387 43.3625 66.1425 44.8027 64.6378 45.4529L48.5883 31.8267C49.1492 26.9098 46.4914 23.5471 46.3727 23.4007C46.1796 23.1628 45.8959 23.0175 45.5907 23.0003C45.2865 22.9938 44.9855 23.0982 44.7698 23.3146L28.3158 39.7339C28.0979 39.9503 27.9836 40.2495 28.0019 40.5574C28.0192 40.8631 28.1669 41.1483 28.4075 41.3389C30.7601 43.201 33.6315 43.5928 35.6248 43.5928C36.0693 43.5928 36.449 43.5724 36.7391 43.5498L50.4619 59.6462C49.5256 62.0466 46.665 70.7009 50.1308 79.3842C50.2645 79.7211 50.559 79.9665 50.915 80.0397C50.9872 80.0548 51.0606 80.0623 51.1329 80.0623C51.4165 80.0623 51.6916 79.9503 51.8955 79.7469L67.6117 64.0638L82.2492 78.6705C82.4595 78.8804 82.7357 78.9859 83.0118 78.9859C83.2879 78.9859 83.5641 78.8804 83.7744 78.6705C84.1962 78.2496 84.1962 77.5693 83.7744 77.1485L69.1369 62.5418L84.8067 46.9038C85.0634 46.6477 85.1734 46.2795 85.1001 45.9243V45.9243Z" fill="#49A1F8"/>
<defs>
<filter id="filter0_d" x="0.137589" y="0.0738525" width="111.75" height="111.859" filterUnits="userSpaceOnUse" color-interpolation-filters="sRGB">
<feFlood flood-opacity="0" result="BackgroundImageFix"/>
<feColorMatrix in="SourceAlpha" type="matrix" values="0 0 0 0 0 0 0 0 0 0 0 0 0 0 0 0 0 0 127 0"/>
<feOffset dy="4"/>
<feGaussianBlur stdDeviation="2"/>
<feColorMatrix type="matrix" values="0 0 0 0 0 0 0 0 0 0 0 0 0 0 0 0 0 0 0.25 0"/>
<feBlend mode="normal" in2="BackgroundImageFix" result="effect1_dropShadow"/>
<feBlend mode="normal" in="SourceGraphic" in2="effect1_dropShadow" result="shape"/>
</filter>
</defs>
</svg>
