<?xml version="1.0"?>
<svg xmlns="http://www.w3.org/2000/svg" id="OutLine" viewBox="0 0 512 512" width="512px" height="512px"><g><path d="M56,488H456a40.045,40.045,0,0,0,40-40V336A184.06,184.06,0,0,0,360,158.337V128a104,104,0,0,0-208,0v30.337A184.06,184.06,0,0,0,16,336V448A40.045,40.045,0,0,0,56,488Zm400-16H56a24.028,24.028,0,0,1-24-24v-8H480v8A24.028,24.028,0,0,1,456,472ZM351.259,252.213,336,262.385l-15.259-10.172L326.777,216h18.446Zm-160,0L176,262.385l-15.259-10.172L166.777,216h18.446ZM312,152H200V128a56,56,0,0,1,112,0ZM168,128a88,88,0,0,1,176,0v72H328V128a72,72,0,0,0-144,0v72H168ZM69.01,230.8A168.952,168.952,0,0,1,152,174.963v32.372l-7.892,47.35a8,8,0,0,0,3.454,7.971l24,16a8,8,0,0,0,8.876,0l24-16a8,8,0,0,0,3.454-7.971L200,207.335V168H312v39.335l-7.892,47.35a8,8,0,0,0,3.454,7.971l24,16a8,8,0,0,0,8.876,0l24-16a8,8,0,0,0,3.454-7.971L360,207.335V174.963A168.952,168.952,0,0,1,442.99,230.8,166.147,166.147,0,0,1,480,336v88H32V336A166.147,166.147,0,0,1,69.01,230.8Z" data-original="#000000" class="active-path" data-old_color="#000000" fill="#21622A"/></g> </svg>
