<!DOCTYPE svg PUBLIC "-//W3C//DTD SVG 20010904//EN" "http://www.w3.org/TR/2001/REC-SVG-20010904/DTD/svg10.dtd">
<svg version="1.0" xmlns="http://www.w3.org/2000/svg" width="520px" height="520px" viewBox="0 0 5200 5200" preserveAspectRatio="xMidYMid meet">
<g id="layer101" fill="#192e51" stroke="none">
 <path d="M1453 4998 c4 -66 7 -613 7 -1215 l0 -1093 140 0 140 0 0 -245 0 -245 70 0 70 0 0 -160 0 -160 105 0 105 0 2 -202 3 -203 75 0 75 0 3 203 2 202 105 0 105 0 0 160 0 160 70 0 70 0 0 245 0 245 60 0 60 0 0 -570 0 -570 70 0 70 0 0 -320 0 -320 70 0 70 0 2 -163 3 -162 173 -3 172 -2 0 -235 0 -235 80 0 80 0 0 235 0 235 175 0 175 0 0 165 0 165 70 0 70 0 0 320 0 320 70 0 70 0 0 1785 0 1785 -1347 0 -1346 0 6 -122z m287 -1018 l0 -970 80 0 80 0 -2 970 -3 970 98 0 97 0 0 -970 0 -970 80 0 80 0 0 970 0 970 95 0 95 0 0 -970 0 -970 80 0 80 0 0 970 0 970 60 0 60 0 0 -1045 0 -1045 -555 0 -555 0 0 1045 0 1045 65 0 65 0 0 -970z m1330 565 l0 -405 360 0 360 0 0 405 0 405 100 0 100 0 0 -1610 0 -1610 -555 0 -555 0 0 1610 0 1610 95 0 95 0 0 -405z m562 90 l-3 -315 -199 0 -200 0 0 315 0 315 203 0 202 0 -3 -315z m-1542 -2030 l0 -85 80 0 80 0 0 85 0 85 95 0 95 0 0 -152 0 -153 -270 0 -269 0 -3 153 -3 152 98 0 97 0 0 -85z m210 -475 l0 -70 -130 0 -130 0 0 70 0 70 130 0 130 0 0 -70z m842 -737 l3 -158 78 -3 77 -3 0 161 0 160 130 0 129 0 3 -157 3 -158 78 -3 77 -3 0 161 0 160 65 0 65 0 0 -230 0 -230 -415 -2 -415 -3 0 233 0 232 60 0 59 0 3 -157z m568 -558 l0 -75 -275 0 -275 0 0 75 0 75 275 0 275 0 0 -75z"/>
 <path d="M3000 3910 l0 -90 80 0 80 0 0 90 0 90 -80 0 -80 0 0 -90z"/>
 <path d="M3350 3910 l0 -90 80 0 80 0 0 90 0 90 -80 0 -80 0 0 -90z"/>
 <path d="M3710 3910 l0 -90 75 0 75 0 0 90 0 90 -75 0 -75 0 0 -90z"/>
 <path d="M3000 3420 l0 -90 80 0 80 0 0 90 0 90 -80 0 -80 0 0 -90z"/>
 <path d="M3350 3420 l0 -90 80 0 80 0 0 90 0 90 -80 0 -80 0 0 -90z"/>
 <path d="M3710 3420 l0 -90 75 0 75 0 0 90 0 90 -75 0 -75 0 0 -90z"/>
 <path d="M3002 2938 l3 -93 75 0 75 0 3 93 3 92 -81 0 -81 0 3 -92z"/>
 <path d="M3352 2938 l3 -93 75 0 75 0 3 93 3 92 -81 0 -81 0 3 -92z"/>
 <path d="M3710 2935 l0 -96 73 3 72 3 3 93 3 92 -76 0 -75 0 0 -95z"/>
 <path d="M3000 2455 l0 -85 80 0 80 0 0 85 0 85 -80 0 -80 0 0 -85z"/>
 <path d="M3350 2455 l0 -85 80 0 80 0 0 85 0 85 -80 0 -80 0 0 -85z"/>
 <path d="M3710 2455 l0 -85 75 0 75 0 0 85 0 85 -75 0 -75 0 0 -85z"/>
 <path d="M3000 1970 l0 -90 80 0 80 0 0 90 0 90 -80 0 -80 0 0 -90z"/>
 <path d="M3350 1970 l0 -90 80 0 80 0 0 90 0 90 -80 0 -80 0 0 -90z"/>
 <path d="M3710 1970 l0 -90 75 0 75 0 0 90 0 90 -75 0 -75 0 0 -90z"/>
 </g>

</svg>