<svg width="123" height="120" viewBox="0 0 123 120" fill="none" xmlns="http://www.w3.org/2000/svg">
<path d="M120 60C120 71.8669 116.481 83.4673 109.888 93.3342C103.295 103.201 93.9246 110.892 82.961 115.433C71.9974 119.974 59.9334 121.162 48.2946 118.847C36.6557 116.532 25.9647 110.818 17.5736 102.426C9.18244 94.0353 3.468 83.3443 1.15288 71.7054C-1.16223 60.0666 0.0259702 48.0026 4.56723 37.039C9.10849 26.0754 16.7988 16.7047 26.6658 10.1118C36.5327 3.51894 48.1331 -1.41511e-07 60 0V0.886433C48.3084 0.886433 36.8794 4.35338 27.1583 10.8489C17.4371 17.3443 9.86035 26.5766 5.38619 37.3782C0.912019 48.1798 -0.258627 60.0656 2.02228 71.5325C4.30319 82.9994 9.93321 93.5324 18.2004 101.8C26.4676 110.067 37.0006 115.697 48.4675 117.978C59.9344 120.259 71.8202 119.088 82.6218 114.614C93.4234 110.14 102.656 102.563 109.151 92.8417C115.647 83.1206 119.114 71.6916 119.114 60H120Z" fill="#A5A7B2"/>
<circle cx="119" cy="57.5" r="3.5" fill="url(#paint0_linear)"/>
<defs>
<linearGradient id="paint0_linear" x1="115.5" y1="54" x2="122.521" y2="54.0214" gradientUnits="userSpaceOnUse">
<stop stop-color="#1FD53C"/>
<stop offset="1" stop-color="#1ED9A1"/>
</linearGradient>
</defs>
</svg>
