<svg width="22" height="22" viewBox="0 0 22 22" fill="none" xmlns="http://www.w3.org/2000/svg">
<path d="M20.1013 18.5561L18.5274 15.9326C17.8005 14.7217 17.4164 13.3348 17.4164 11.9231V9.625C17.4164 6.72375 15.4804 4.26985 12.8331 3.47875V1.83335C12.8331 0.82225 12.0108 0 10.9997 0C9.98861 0 9.16636 0.82225 9.16636 1.83335V3.47875C6.51906 4.26985 4.58306 6.72375 4.58306 9.625V11.9231C4.58306 13.3348 4.19896 14.7207 3.47296 15.9317L1.89906 18.5552C1.81381 18.6973 1.81196 18.8733 1.89356 19.0172C1.97516 19.1611 2.12641 19.25 2.29141 19.25H19.7081C19.8731 19.25 20.0252 19.1611 20.1068 19.0181C20.1884 18.8751 20.1857 18.6973 20.1013 18.5561Z" fill="white"/>
<path d="M8.11319 20.1667C8.63019 21.2466 9.72469 22.0001 10.9997 22.0001C12.2748 22.0001 13.3693 21.2466 13.8863 20.1667H8.11319Z" fill="white"/>
</svg>
