<svg width="513" height="513" viewBox="0 0 513 513" fill="none" xmlns="http://www.w3.org/2000/svg">
<path d="M38.0177 194.952C43.8997 199.726 62.9087 209.322 114.562 234.562C132.334 243.245 150.711 252.225 164.622 259.291C165.196 259.582 165.804 259.803 166.431 259.947C195.697 266.705 225.484 273.816 254.289 280.694C311.903 294.45 371.48 308.676 430.014 320.801C430.14 320.827 430.265 320.848 430.393 320.868C433.996 321.434 437.854 321.704 441.819 321.704C463.34 321.704 487.883 313.759 490.34 302.125C494.879 280.642 455.808 250.631 408.289 239.145C383.901 233.511 338.497 223.143 315.774 218.048C302.078 209.773 210.71 103.398 190.47 78.9151C189.346 77.5561 187.803 76.6111 186.084 76.2261C180.017 74.8741 175.401 73.7851 170.776 72.6941C166.144 71.6011 161.503 70.5061 155.424 69.1491C152.327 68.4481 149.142 69.6661 147.282 72.2221C145.424 74.7781 145.258 78.1911 146.861 80.9141C156.861 97.8901 186.258 149.025 212.201 194.985C210.483 194.604 208.846 194.242 207.265 193.892C193.301 190.805 183.795 188.701 163.454 184.01L124.866 160.524L77.0037 80.1711C75.8777 78.2821 74.0197 76.9451 71.8707 76.4791L50.5317 71.8491C48.1587 71.3411 45.6777 71.9361 43.8017 73.4831C41.9277 75.0291 40.8677 77.3501 40.9217 79.7801L42.6797 156.567C32.2277 155.49 25.9747 159.988 23.3997 165.545C18.9157 175.218 25.0557 187.48 38.0177 194.952ZM48.0217 174.154C50.4857 175.09 53.2587 174.744 55.4207 173.22C57.5777 171.697 58.8337 169.2 58.7737 166.561L57.0087 89.4851L65.1397 91.2501L112.247 170.335C112.91 171.446 113.834 172.379 114.937 173.051L156.299 198.228C157.024 198.669 157.813 198.991 158.64 199.181C179.913 204.092 189.547 206.223 203.838 209.383C209.971 210.74 216.962 212.286 226.106 214.325C229.166 215.001 232.33 213.826 234.195 211.316C236.062 208.804 236.279 205.429 234.745 202.7C212.51 163.101 185.419 115.76 169.787 88.7601C172.925 89.4981 176.186 90.2591 179.995 91.1191C187.66 100.246 214.538 131.909 241.361 162.392C301.909 231.199 307.754 232.508 311.623 233.375C333.712 238.324 380.612 249.033 404.639 254.581C450.511 265.67 474.01 290.275 474.848 297.898C470.216 301.709 451.012 307.994 433.034 305.228C374.795 293.161 315.408 278.98 257.971 265.266C229.446 258.455 199.96 251.415 170.94 244.71C157.031 237.661 138.986 228.843 121.525 220.311C92.7487 206.249 53.4137 187.031 48.3077 182.929C47.7557 182.355 47.1197 181.867 46.4207 181.483C40.0637 177.978 38.0747 173.922 37.8547 172.452C39.0067 172.103 42.2287 171.946 48.0217 174.154Z" fill="#39496E"/>
</svg>
