<svg width="1920" height="285" viewBox="0 0 1920 285" fill="none" xmlns="http://www.w3.org/2000/svg">
<path d="M0 270C89.2819 217 244.069 332.32 366.832 231C489.595 129.68 575.889 93.0001 686.036 99.5C796.183 106 871.181 210 1041.31 210C1211.45 210 1242.64 136.5 1382.41 99.5C1522.19 62.4999 1822.95 200.78 1920 196.5" stroke="#4A4F64" stroke-opacity="0.11" stroke-dasharray="5 5"/>
<path d="M0 15.5638C89.2819 68.5639 244.069 -46.756 366.832 54.5639C489.595 155.884 575.889 192.564 686.036 186.064C796.183 179.564 871.181 75.5639 1041.31 75.5639C1211.45 75.5639 1242.64 149.064 1382.41 186.064C1522.19 223.064 1822.95 84.7838 1920 89.0639" stroke="#4A4F64" stroke-opacity="0.11" stroke-dasharray="5 5"/>
<path d="M0 284.564C89.2819 231.564 235.5 186.267 422.5 202.766C609.5 219.265 692 146.602 775 151.5C858 156.398 960.867 230 1131 230C1301.13 230 1317.72 122.767 1457.5 85.7666C1597.28 48.7664 1855.5 225.203 1920 184" stroke="#4A4F64" stroke-opacity="0.11" stroke-dasharray="5 5"/>
<path d="M0 1C89.2819 54.0001 235.5 99.2969 422.5 82.7977C609.5 66.2985 692 138.962 775 134.064C858 129.166 960.867 55.5638 1131 55.5638C1301.13 55.5638 1317.72 162.797 1457.5 199.797C1597.28 236.797 1855.5 60.3607 1920 101.564" stroke="#4A4F64" stroke-opacity="0.11" stroke-dasharray="5 5"/>
</svg>
