<svg xmlns="http://www.w3.org/2000/svg" viewBox="0 0 409.66 409.65"><defs><style>.cls-1{fill:#344a71;}</style></defs><title>сheck_in_yellow</title><g id="Слой_2" data-name="Слой 2"><g id="Слой_1-2" data-name="Слой 1"><g id="Слой_2-2" data-name="Слой 2"><g id="Слой_1-2-2" data-name="Слой 1-2"><path class="cls-1" d="M204.83,19c102.63,0,185.83,83.2,185.83,185.83a185.83,185.83,0,0,1-54.43,131.4c-72.21,72.93-189.87,73.53-262.8,1.32S-.1,147.68,72.11,74.75l1.32-1.32A184.61,184.61,0,0,1,204.83,19m0-19C91.7,0,0,91.7,0,204.83S91.7,409.65,204.83,409.65,409.66,318,409.66,204.83,318,0,205,0Z"/><path class="cls-1" d="M164.69,220.88a8.11,8.11,0,1,0,11.47,11.47L198,210.56a8.12,8.12,0,0,0,0-11.47L176.16,177.3a8.11,8.11,0,1,0-11.47,11.47l7.95,7.94H105.47a8.11,8.11,0,0,0,0,16.22h67.17Z"/><path class="cls-1" d="M284.66,101H152.49a8.11,8.11,0,0,0-8.11,8.11h0V140a8.11,8.11,0,0,0,16.22,0V117.3H276.55V292.39H160.6v-22.7a8.11,8.11,0,1,0-16.22,0h0V300.5a8.11,8.11,0,0,0,8.11,8.11H284.66a8.11,8.11,0,0,0,8.11-8.11V109.15A8.11,8.11,0,0,0,284.7,101Z"/></g></g></g></g></svg>
