<svg width="20" height="20" viewBox="0 0 20 20" fill="none" xmlns="http://www.w3.org/2000/svg">
<path d="M10.5328 11.4181L9.59491 10.6895C9.3094 10.4528 8.91838 10.14 8.91838 9.5677C8.91838 8.99296 9.3092 8.62758 9.64809 8.28911C10.7403 7.42906 11.8322 6.51377 11.8322 4.58513C11.8322 2.60187 10.5845 1.55851 9.98615 1.06342H11.5989L13.2914 0H8.16364C6.75657 0 4.72862 0.332682 3.24396 1.55851C2.12509 2.52387 1.57931 3.8548 1.57931 5.05333C1.57931 7.08728 3.14093 9.14937 5.89921 9.14937C6.15969 9.14937 6.44458 9.12371 6.73133 9.09723C6.60243 9.41067 6.4723 9.67177 6.4723 10.1145C6.4723 10.9224 6.88732 11.4177 7.25311 11.887C6.08148 11.9676 3.89381 12.0976 2.28088 13.0888C0.744919 14.0022 0.277344 15.3315 0.277344 16.2702C0.277344 18.2013 2.09799 20 5.87273 20C10.349 20 12.7186 17.5233 12.7186 15.0712C12.719 13.2698 11.6783 12.3833 10.5328 11.4181ZM7.12339 8.41863C4.88399 8.41863 3.8696 5.5238 3.8696 3.77722C3.8696 3.09696 3.9985 2.39477 4.44124 1.8463C4.85896 1.32411 5.58598 0.985218 6.26479 0.985218C8.42349 0.985218 9.54319 3.90611 9.54319 5.78448C9.54319 6.25433 9.49126 7.08707 8.89273 7.68933C8.47418 8.10746 7.77365 8.41863 7.12339 8.41863ZM7.14904 18.9072C4.36428 18.9072 2.56867 17.5752 2.56867 15.7227C2.56867 13.8713 4.23373 13.2446 4.80641 13.0375C5.899 12.6698 7.30483 12.6187 7.53945 12.6187C7.79972 12.6187 7.92985 12.6187 8.13716 12.6448C10.1167 14.0537 10.9759 14.7557 10.9759 16.0895C10.9761 17.7043 9.64829 18.9072 7.14904 18.9072Z" fill="white"/>
<path d="M17.1055 8.37883V5.77097H15.8178V8.37883H13.2139V9.68101H15.8178V12.3052H17.1055V9.68101H19.7225V8.37883H17.1055Z" fill="white"/>
</svg>
