<svg width="14" height="14" viewBox="0 0 14 14" fill="none" xmlns="http://www.w3.org/2000/svg">
<path d="M13.6706 5.40594L12.5946 5.17203C12.501 4.88556 12.3851 4.60614 12.2483 4.33698L12.844 3.41039C12.9504 3.24483 12.927 3.02747 12.7879 2.8884L11.1116 1.2121C10.9725 1.07303 10.7552 1.04964 10.5896 1.15602L9.66302 1.75171C9.39386 1.61488 9.11444 1.49899 8.82797 1.40543L8.59406 0.329407C8.55229 0.137146 8.38203 0 8.18529 0H5.81471C5.61797 0 5.44771 0.137146 5.40594 0.329407L5.17203 1.40543C4.88556 1.49899 4.60614 1.61488 4.33698 1.75171L3.41039 1.15602C3.24483 1.04964 3.02747 1.07303 2.8884 1.2121L1.2121 2.8884C1.07303 3.02747 1.04964 3.24483 1.15602 3.41039L1.75171 4.33698C1.61488 4.60614 1.49899 4.88556 1.40543 5.17203L0.329407 5.40594C0.137146 5.44781 0 5.61797 0 5.81471V8.18529C0 8.38203 0.137146 8.55219 0.329407 8.59406L1.40543 8.82797C1.49899 9.11444 1.61488 9.39386 1.75171 9.66302L1.15602 10.5896C1.04964 10.7552 1.07303 10.9725 1.2121 11.1116L2.8884 12.7879C3.02747 12.927 3.24483 12.9504 3.41039 12.844L4.33698 12.2483C4.60614 12.3851 4.88556 12.501 5.17203 12.5946L5.40594 13.6706C5.44771 13.8629 5.61797 14 5.81471 14H8.18529C8.38203 14 8.55229 13.8629 8.59406 13.6706L8.82797 12.5946C9.11444 12.501 9.39386 12.3851 9.66302 12.2483L10.5896 12.844C10.7552 12.9504 10.9725 12.9271 11.1116 12.7879L12.7879 11.1116C12.927 10.9725 12.9504 10.7552 12.844 10.5896L12.2483 9.66302C12.3851 9.39386 12.501 9.11444 12.5946 8.82797L13.6706 8.59406C13.8629 8.55219 14 8.38203 14 8.18529V5.81471C14 5.61797 13.8629 5.44781 13.6706 5.40594ZM9.50996 7C9.50996 8.38396 8.38396 9.50996 7 9.50996C5.61604 9.50996 4.49004 8.38396 4.49004 7C4.49004 5.61604 5.61604 4.49004 7 4.49004C8.38396 4.49004 9.50996 5.61604 9.50996 7Z" fill="#2095D7"/>
</svg>
