<svg width="14" height="14" viewBox="0 0 14 14" fill="none" xmlns="http://www.w3.org/2000/svg">
<path d="M12.7918 11.8084L11.7903 10.1389C11.3277 9.36835 11.0833 8.48575 11.0833 7.58743V6.125C11.0833 4.27875 9.85125 2.71718 8.16658 2.21375V1.16668C8.16658 0.52325 7.64333 0 6.9999 0C6.35648 0 5.83323 0.52325 5.83323 1.16668V2.21375C4.14858 2.71718 2.91658 4.27875 2.91658 6.125V7.58743C2.91658 8.48575 2.67215 9.36775 2.21015 10.1384L1.20858 11.8079C1.15433 11.8983 1.15315 12.0103 1.20508 12.1019C1.257 12.1934 1.35325 12.25 1.45825 12.25H12.5416C12.6466 12.25 12.7434 12.1935 12.7953 12.1025C12.8473 12.0114 12.8455 11.8983 12.7918 11.8084Z" fill="#0C91F1"/>
<path d="M5.16309 12.8333C5.49209 13.5204 6.18859 13.9999 6.99998 13.9999C7.81138 13.9999 8.50791 13.5204 8.83691 12.8333H5.16309Z" fill="#0C91F1"/>
</svg>
