<svg width="58" height="60" viewBox="0 0 58 60" fill="none" xmlns="http://www.w3.org/2000/svg">
<path d="M30.6338 37.9891C31.6748 37.9081 32.6238 37.3771 33.2398 36.5301L42.6028 23.5861C42.8898 23.1891 42.8468 22.6411 42.4988 22.2931C42.1508 21.9461 41.6028 21.9031 41.2058 22.1891L28.2598 31.5551C27.4158 32.1691 26.8848 33.1181 26.8038 34.1591C26.7228 35.2001 27.0998 36.2191 27.8368 36.9561C28.5078 37.6281 29.4128 38.0001 30.3538 38.0001C30.4468 38.0001 30.5398 37.9961 30.6338 37.9891ZM28.7978 34.3151C28.8328 33.8581 29.0668 33.4411 29.4348 33.1731L37.3318 27.4601L31.6208 35.3551C31.3508 35.7261 30.9338 35.9591 30.4768 35.9951C30.0218 36.0251 29.5748 35.8671 29.2498 35.5421C28.9278 35.2191 28.7618 34.7711 28.7978 34.3151Z" fill="#39496E"/>
<path d="M53.0342 19.564C53.0242 19.543 53.0242 19.521 53.0132 19.5C53.0012 19.48 52.9822 19.469 52.9692 19.45C51.9582 17.716 50.7622 16.103 49.4042 14.641L51.5522 12.494L52.9662 13.908L57.2082 9.665L52.9662 5.423L48.7232 9.665L50.1382 11.08L47.9902 13.227C46.5282 11.869 44.9162 10.672 43.1812 9.661C43.1622 9.648 43.1512 9.629 43.1312 9.617C43.1102 9.605 43.0882 9.606 43.0672 9.595C39.9742 7.813 36.4992 6.626 32.7942 6.191V5H34.2942C35.6732 5 36.7942 3.879 36.7942 2.5C36.7942 1.121 35.6722 0 34.2932 0H25.2932C23.9142 0 22.7932 1.121 22.7932 2.5C22.7932 3.879 23.9142 5 25.2932 5H26.7932V6.156C25.7132 6.271 24.6352 6.447 23.5692 6.691C23.0312 6.814 22.6942 7.351 22.8182 7.889C22.9412 8.427 23.4782 8.765 24.0162 8.64C24.9362 8.429 25.8652 8.27 26.7962 8.163L27.8692 8.08C28.1972 8.055 28.4992 8.037 28.7932 8.023V10C28.7932 10.553 29.2402 11 29.7932 11C30.3462 11 30.7932 10.553 30.7932 10V8.03C34.5542 8.203 38.0982 9.213 41.2492 10.875L40.2632 12.582C39.9872 13.061 40.1512 13.672 40.6292 13.948C40.7862 14.039 40.9582 14.082 41.1282 14.082C41.4742 14.082 41.8102 13.903 41.9952 13.582L42.9782 11.879C46.1072 13.864 48.7652 16.522 50.7502 19.651L49.0472 20.634C48.5702 20.91 48.4062 21.521 48.6832 22C48.8692 22.321 49.2042 22.5 49.5502 22.5C49.7202 22.5 49.8922 22.457 50.0492 22.366L51.7562 21.38C53.4412 24.576 54.4542 28.178 54.6052 31.999H52.6302C52.0772 31.999 51.6302 32.446 51.6302 32.999C51.6302 33.552 52.0772 33.999 52.6302 33.999H54.6052C54.4542 37.82 53.4412 41.422 51.7562 44.618L50.0492 43.632C49.5712 43.356 48.9592 43.518 48.6832 43.998C48.4072 44.477 48.5712 45.088 49.0492 45.364L50.7522 46.347C48.7672 49.476 46.1092 52.134 42.9802 54.119L41.9972 52.416C41.7202 51.936 41.1072 51.773 40.6312 52.05C40.1522 52.326 39.9882 52.938 40.2652 53.416L41.2512 55.123C38.1002 56.785 34.5562 57.795 30.7952 57.968V56C30.7952 55.447 30.3482 55 29.7952 55C29.2422 55 28.7952 55.447 28.7952 56V57.976C27.1982 57.921 25.5962 57.721 24.0192 57.359C23.4812 57.23 22.9442 57.572 22.8212 58.11C22.6972 58.648 23.0342 59.185 23.5722 59.308C25.5682 59.768 27.6072 60 29.6302 60C29.6792 60 29.7262 59.997 29.7752 59.996C29.7822 59.996 29.7872 60 29.7932 60C29.8012 60 29.8082 59.995 29.8162 59.995C34.6232 59.962 39.1332 58.664 43.0352 56.422C43.0662 56.408 43.0992 56.401 43.1292 56.383C43.1492 56.371 43.1602 56.352 43.1792 56.339C47.2182 53.985 50.5932 50.614 52.9522 46.578C52.9712 46.551 52.9952 46.53 53.0122 46.5C53.0242 46.479 53.0232 46.457 53.0332 46.436C55.3172 42.476 56.6302 37.89 56.6302 33C56.6302 28.11 55.3172 23.524 53.0342 19.564ZM52.9652 8.251L54.3792 9.665L52.9652 11.08L51.5502 9.665L52.9652 8.251ZM28.7932 6.021V3H25.2932C25.0182 3 24.7932 2.775 24.7932 2.5C24.7932 2.225 25.0182 2 25.2932 2H34.2932C34.5682 2 34.7932 2.225 34.7932 2.5C34.7932 2.775 34.5682 3 34.2932 3H30.7932V6.021C30.4452 6.007 30.1132 6 29.7932 6C29.7652 6 29.7332 6.002 29.7052 6.002C29.6802 6.002 29.6552 6 29.6302 6C29.4662 6 29.3022 6.011 29.1382 6.014C29.0222 6.017 28.9132 6.016 28.7932 6.021Z" fill="#39496E"/>
<path d="M20.793 14H15.793C15.24 14 14.793 14.447 14.793 15C14.793 15.553 15.24 16 15.793 16H20.793C21.346 16 21.793 15.553 21.793 15C21.793 14.447 21.346 14 20.793 14Z" fill="#39496E"/>
<path d="M20.793 21H10.793C10.24 21 9.79297 21.447 9.79297 22C9.79297 22.553 10.24 23 10.793 23H20.793C21.346 23 21.793 22.553 21.793 22C21.793 21.447 21.346 21 20.793 21Z" fill="#39496E"/>
<path d="M20.793 28H5.79297C5.23997 28 4.79297 28.447 4.79297 29C4.79297 29.553 5.23997 30 5.79297 30H20.793C21.346 30 21.793 29.553 21.793 29C21.793 28.447 21.346 28 20.793 28Z" fill="#39496E"/>
<path d="M20.793 35H1.79297C1.23997 35 0.792969 35.447 0.792969 36C0.792969 36.553 1.23997 37 1.79297 37H20.793C21.346 37 21.793 36.553 21.793 36C21.793 35.447 21.346 35 20.793 35Z" fill="#39496E"/>
<path d="M20.793 42H7.79297C7.23997 42 6.79297 42.447 6.79297 43C6.79297 43.553 7.23997 44 7.79297 44H20.793C21.346 44 21.793 43.553 21.793 43C21.793 42.447 21.346 42 20.793 42Z" fill="#39496E"/>
<path d="M20.793 49H13.793C13.24 49 12.793 49.447 12.793 50C12.793 50.553 13.24 51 13.793 51H20.793C21.346 51 21.793 50.553 21.793 50C21.793 49.447 21.346 49 20.793 49Z" fill="#39496E"/>
</svg>
