<svg width="183" height="26" viewBox="0 0 183 26" fill="none" xmlns="http://www.w3.org/2000/svg">
<path d="M26.128 2.272C26.128 2.48533 26.0907 2.672 26.016 2.832L20.704 16.944H20.688L20.672 17.024C20.6507 17.0453 20.6347 17.0667 20.624 17.088C20.6133 17.1093 20.6027 17.1307 20.592 17.152C20.528 17.3013 20.4373 17.424 20.32 17.52C20.32 17.52 20.2773 17.5627 20.192 17.648L20.048 17.744H20.032C20 17.776 19.9573 17.8027 19.904 17.824C19.8613 17.8453 19.808 17.8667 19.744 17.888V17.904H19.728H19.712L19.568 17.952H19.552C19.5413 17.9627 19.5147 17.968 19.472 17.968C19.4507 17.9787 19.4187 17.984 19.376 17.984C19.3333 17.9947 19.2693 18 19.184 18H19.088H19.072L18.992 17.984C18.9493 17.984 18.9173 17.9787 18.896 17.968H18.88C18.8587 17.968 18.8053 17.9573 18.72 17.936L18.672 17.92L18.608 17.888L18.544 17.872L18.4 17.808C18.3253 17.7547 18.2827 17.728 18.272 17.728L18.144 17.632L18.016 17.52L17.904 17.392V17.376L17.808 17.248V17.232C17.776 17.1893 17.7493 17.1467 17.728 17.104C17.7067 17.072 17.6853 17.024 17.664 16.96L17.648 16.928V16.912L13.952 6.656L9.44 17.024C9.33333 17.2587 9.2 17.44 9.04 17.568V17.584L8.928 17.68H8.912L8.8 17.76H8.784C8.77333 17.7707 8.736 17.792 8.672 17.824L8.544 17.888H8.528L8.496 17.904L8.416 17.936H8.4C8.38933 17.936 8.352 17.9467 8.288 17.968L8.192 17.984H8.176C8.12267 17.9947 8.048 18 7.952 18H7.92H7.904C7.43467 17.9787 7.056 17.808 6.768 17.488L6.656 17.36V17.344C6.61333 17.3013 6.58667 17.264 6.576 17.232L6.56 17.2C6.53867 17.168 6.51733 17.1307 6.496 17.088C6.47467 17.056 6.45333 17.008 6.432 16.944C6.432 16.944 6.42667 16.944 6.416 16.944C6.416 16.9333 6.416 16.928 6.416 16.928L1.344 2.816C1.28 2.63467 1.248 2.45333 1.248 2.272C1.248 1.824 1.40267 1.44 1.712 1.12C2.032 0.799999 2.416 0.639999 2.864 0.639999C3.216 0.639999 3.52533 0.741332 3.792 0.943998C4.06933 1.136 4.26667 1.392 4.384 1.712L8.096 11.984L12.592 1.632L12.608 1.616C12.608 1.59467 12.6133 1.584 12.624 1.584L12.64 1.536L12.672 1.472L12.72 1.408L12.752 1.344L12.816 1.264C12.816 1.25333 12.8267 1.23733 12.848 1.216L12.912 1.152L12.96 1.104L12.976 1.088C12.9973 1.06667 13.008 1.056 13.008 1.056C13.008 1.056 13.0293 1.03467 13.072 0.991999L13.136 0.943998L13.216 0.896L13.28 0.863998L13.36 0.816L13.424 0.783998L13.52 0.751999L13.552 0.736H13.568C13.5787 0.725333 13.584 0.719999 13.584 0.719999C13.616 0.719999 13.6373 0.714666 13.648 0.703999L13.728 0.688L13.792 0.671999L13.888 0.655998H13.936C13.968 0.645332 14.0213 0.639999 14.096 0.639999H14.144C14.176 0.639999 14.1973 0.645332 14.208 0.655998H14.272C14.3147 0.655998 14.3467 0.661332 14.368 0.671999C14.4 0.671999 14.4267 0.677333 14.448 0.688L14.512 0.703999L14.608 0.719999L14.656 0.751999C14.6773 0.751999 14.7093 0.762665 14.752 0.783998L14.8 0.816L14.896 0.863998C14.9067 0.863998 14.9227 0.874666 14.944 0.896L15.024 0.943998L15.088 0.991999L15.136 1.04L15.2 1.088L15.264 1.136L15.28 1.168C15.3013 1.18933 15.312 1.20533 15.312 1.216L15.36 1.264L15.408 1.328L15.456 1.376C15.456 1.38667 15.4667 1.41333 15.488 1.456C15.5093 1.47733 15.52 1.49867 15.52 1.52C15.5413 1.54133 15.552 1.56267 15.552 1.584L15.6 1.664V1.68L15.616 1.712V1.728L19.216 11.696L22.992 1.696C23.1093 1.38667 23.3013 1.136 23.568 0.943998C23.8453 0.741332 24.1547 0.639999 24.496 0.639999C24.944 0.639999 25.328 0.799999 25.648 1.12C25.968 1.44 26.128 1.824 26.128 2.272ZM32.863 11.552C32.863 11.104 33.0177 10.72 33.327 10.4C33.647 10.08 34.031 9.92 34.479 9.92H38.143C37.887 9.32267 37.4923 8.85867 36.959 8.528C36.4363 8.18667 35.823 8.016 35.119 8.016C34.543 8.016 34.0043 8.176 33.503 8.496C33.0017 8.80533 32.6017 9.232 32.303 9.776C32.0043 10.32 31.855 10.912 31.855 11.552C31.855 12.128 31.9563 12.6613 32.159 13.152C32.3723 13.6213 32.6497 14 32.991 14.288C33.2577 14.5013 33.535 14.6667 33.823 14.784C34.3137 14.976 34.8577 15.072 35.455 15.072C35.903 15.072 36.335 14.9867 36.751 14.816C37.1563 14.6667 37.5403 14.4373 37.903 14.128C38.2123 13.8507 38.575 13.712 38.991 13.712C39.439 13.712 39.8177 13.872 40.127 14.192C40.447 14.5013 40.607 14.88 40.607 15.328C40.607 15.5627 40.559 15.7867 40.463 16C40.367 16.2027 40.2337 16.3787 40.063 16.528V16.544C40.0417 16.544 40.031 16.5547 40.031 16.576H40.015C39.375 17.1307 38.6763 17.552 37.919 17.84C37.0977 18.16 36.2763 18.32 35.455 18.32C34.6017 18.32 33.791 18.1973 33.023 17.952C32.287 17.696 31.615 17.3333 31.007 16.864C30.6337 16.5547 30.2923 16.2027 29.983 15.808C29.599 15.3173 29.2897 14.752 29.055 14.112C28.767 13.2907 28.623 12.4373 28.623 11.552C28.623 10.3253 28.9163 9.19467 29.503 8.16C30.0897 7.11467 30.879 6.288 31.871 5.68C32.8737 5.072 33.9563 4.768 35.119 4.768H35.135C36.3937 4.768 37.519 5.06667 38.511 5.664C39.5137 6.26133 40.2977 7.07733 40.863 8.112C41.4283 9.14667 41.711 10.2933 41.711 11.552C41.711 12 41.551 12.384 41.231 12.704C40.9217 13.0133 40.543 13.168 40.095 13.168H34.479C34.031 13.168 33.647 13.0133 33.327 12.704C33.0177 12.384 32.863 12 32.863 11.552ZM55.1611 17.408L55.1131 17.456L55.0651 17.52L54.9691 17.6L54.9371 17.632C54.9371 17.632 54.9265 17.6427 54.9051 17.664L54.8251 17.712C54.8038 17.7333 54.7878 17.744 54.7771 17.744L54.6971 17.792L54.6331 17.824L54.5531 17.872C54.5318 17.872 54.5158 17.8773 54.5051 17.888L54.4091 17.92L54.3611 17.936C54.3398 17.9467 54.3078 17.952 54.2651 17.952C54.2545 17.9627 54.2385 17.968 54.2171 17.968C54.1851 17.9787 54.1478 17.984 54.1051 17.984C54.0838 17.984 54.0678 17.9893 54.0571 18H53.9131H53.7531C53.7531 18 53.7478 18 53.7371 18C53.7371 17.9893 53.7371 17.984 53.7371 17.984C53.6731 17.984 53.6251 17.9787 53.5931 17.968H53.5771L53.4491 17.936L53.4171 17.92L53.2891 17.872H53.2571L53.1451 17.808H53.1291C53.0438 17.7653 52.9638 17.7067 52.8891 17.632H52.8731L52.7611 17.536C52.7611 17.5253 52.7558 17.52 52.7451 17.52L52.6651 17.424L52.6491 17.408L49.8651 14.048L47.0651 17.408V17.424L46.9691 17.52C46.9691 17.52 46.9638 17.5253 46.9531 17.536L46.8571 17.632H46.8411C46.7345 17.7173 46.6545 17.776 46.6011 17.808H46.5851L46.4571 17.872H46.4411L46.3131 17.92L46.2811 17.936L46.1531 17.968H46.1211C46.0891 17.9787 46.0465 17.984 45.9931 17.984L45.9771 18H45.8171H45.6571C45.6465 17.9893 45.6305 17.984 45.6091 17.984C45.5665 17.984 45.5345 17.9787 45.5131 17.968L45.4491 17.952C45.4171 17.952 45.3905 17.9467 45.3691 17.936L45.3051 17.92L45.2251 17.888C45.2145 17.8773 45.1931 17.872 45.1611 17.872L45.0811 17.824L45.0331 17.792L44.9531 17.744C44.9425 17.744 44.9265 17.7333 44.9051 17.712C44.8625 17.6907 44.8305 17.6693 44.8091 17.648L44.7771 17.632C44.7558 17.6107 44.7451 17.5947 44.7451 17.584C44.7025 17.5627 44.6758 17.5413 44.6651 17.52L44.6011 17.456L44.5531 17.408L44.5051 17.328L44.4571 17.28C44.4358 17.2373 44.4251 17.2107 44.4251 17.2L44.3771 17.136L44.3451 17.072L44.3131 16.992L44.2971 16.928L44.2651 16.848L44.2491 16.784L44.2171 16.688V16.608C44.2065 16.5973 44.2011 16.5707 44.2011 16.528V16.416V16.384V16.208V16.192L44.2331 16.064C44.2331 16.032 44.2385 16.0107 44.2491 16C44.2491 15.9573 44.2545 15.9253 44.2651 15.904C44.2651 15.8933 44.2758 15.8667 44.2971 15.824L44.3131 15.76L44.3611 15.68C44.3611 15.6587 44.3718 15.6373 44.3931 15.616C44.4145 15.5627 44.4358 15.5253 44.4571 15.504L44.4731 15.472L44.5691 15.344L47.7531 11.52L44.5691 7.68C44.3238 7.40267 44.2011 7.056 44.2011 6.64C44.2011 6.192 44.3558 5.81333 44.6651 5.504C44.9851 5.184 45.3691 5.024 45.8171 5.024C46.0625 5.024 46.2918 5.07733 46.5051 5.184C46.7291 5.29067 46.9158 5.43467 47.0651 5.616L49.8651 8.976L52.6491 5.616H52.6651C52.8145 5.43467 52.9958 5.29067 53.2091 5.184C53.4225 5.07733 53.6571 5.024 53.9131 5.024C54.3611 5.024 54.7398 5.184 55.0491 5.504C55.3691 5.81333 55.5291 6.192 55.5291 6.64C55.5291 7.03467 55.4065 7.38133 55.1611 7.68L51.9771 11.52L55.1611 15.344L55.2571 15.472L55.2731 15.504C55.2838 15.5147 55.2945 15.5307 55.3051 15.552C55.3158 15.5627 55.3265 15.584 55.3371 15.616L55.3691 15.68C55.3798 15.6907 55.3851 15.7067 55.3851 15.728C55.3851 15.7387 55.3905 15.7493 55.4011 15.76L55.4331 15.824C55.4331 15.8347 55.4438 15.8613 55.4651 15.904L55.4811 15.984L55.4971 16.064C55.5078 16.0853 55.5131 16.1227 55.5131 16.176C55.5131 16.1973 55.5185 16.208 55.5291 16.208V16.368V16.384V16.432V16.528C55.5185 16.5493 55.5131 16.5813 55.5131 16.624L55.4971 16.688L55.4811 16.784C55.4705 16.7947 55.4651 16.816 55.4651 16.848L55.4331 16.928L55.4011 16.992C55.4011 17.0027 55.3905 17.0293 55.3691 17.072L55.3371 17.136L55.3051 17.2L55.2571 17.28L55.2091 17.328L55.1611 17.408ZM64.6053 5.312C65.7893 5.312 66.8826 5.60533 67.8853 6.192C68.8986 6.77867 69.6986 7.57867 70.2853 8.592C70.8719 9.59467 71.1653 10.688 71.1653 11.872C71.1653 13.0667 70.8719 14.1653 70.2853 15.168C69.6986 16.1707 68.8986 16.9653 67.8853 17.552C66.8826 18.1387 65.7893 18.432 64.6053 18.432C63.4106 18.432 62.2959 18.128 61.2613 17.52V21.744C61.2613 22.192 61.1013 22.5707 60.7812 22.88C60.4719 23.2 60.0933 23.36 59.6453 23.36C59.1973 23.36 58.8133 23.2 58.4933 22.88C58.1839 22.5707 58.0293 22.192 58.0293 21.744V7.024C58.0293 6.576 58.1839 6.192 58.4933 5.872C58.8133 5.552 59.1973 5.392 59.6453 5.392C59.9653 5.392 60.2533 5.47733 60.5093 5.648C60.7759 5.81867 60.9733 6.04267 61.1013 6.32C62.1786 5.648 63.3466 5.312 64.6053 5.312ZM64.6053 15.216C65.2133 15.216 65.7679 15.0667 66.2693 14.768C66.7813 14.4693 67.1866 14.064 67.4853 13.552C67.7839 13.04 67.9333 12.48 67.9333 11.872C67.9333 11.264 67.7839 10.7093 67.4853 10.208C67.1866 9.696 66.7813 9.29067 66.2693 8.992C65.7679 8.69333 65.2133 8.544 64.6053 8.544C63.9973 8.544 63.4373 8.69333 62.9253 8.992C62.4133 9.29067 62.0079 9.696 61.7093 10.208C61.4106 10.7093 61.2613 11.264 61.2613 11.872C61.2613 12.48 61.4106 13.04 61.7093 13.552C62.0079 14.064 62.4133 14.4693 62.9253 14.768C63.4373 15.0667 63.9973 15.216 64.6053 15.216ZM81.5586 16.48C81.5586 16.8853 81.4253 17.2427 81.1586 17.552C80.892 17.8507 80.556 18.0267 80.1506 18.08H80.1026C79.6973 18.1333 79.34 18.16 79.0306 18.16C77.644 18.16 76.5186 17.7547 75.6546 16.944C75.0893 16.4 74.7213 15.7973 74.5506 15.136C74.3906 14.464 74.3266 13.8933 74.3586 13.424V1.632C74.3586 1.184 74.5186 0.805332 74.8386 0.495998C75.1586 0.175999 75.5426 0.0159988 75.9906 0.0159988C76.4386 0.0159988 76.8173 0.175999 77.1266 0.495998C77.4466 0.805332 77.6066 1.184 77.6066 1.632V13.584L77.5906 13.632C77.5906 13.7813 77.612 13.9573 77.6546 14.16C77.708 14.352 77.7933 14.5013 77.9106 14.608C78.124 14.8107 78.4973 14.912 79.0306 14.912C79.2333 14.912 79.4626 14.896 79.7186 14.864L79.9426 14.848C80.3906 14.848 80.7693 15.008 81.0786 15.328C81.3986 15.648 81.5586 16.032 81.5586 16.48ZM96.6675 8.992C97.0302 9.81333 97.2115 10.6933 97.2115 11.632C97.2115 12.8587 96.9022 13.9947 96.2835 15.04C95.6648 16.0747 94.8275 16.896 93.7715 17.504C92.7155 18.112 91.5635 18.416 90.3155 18.416C89.0675 18.416 87.9155 18.112 86.8595 17.504C85.8142 16.896 84.9822 16.08 84.3635 15.056C83.7448 14.0213 83.4355 12.8907 83.4355 11.664C83.4355 10.9173 83.5368 10.2347 83.7395 9.616C83.9635 8.944 84.2568 8.34667 84.6195 7.824C84.9928 7.29067 85.4355 6.816 85.9475 6.4C86.4702 5.97333 87.0355 5.632 87.6435 5.376C88.5182 5.024 89.4088 4.848 90.3155 4.848C91.0088 4.848 91.6915 4.94933 92.3635 5.152C92.9928 5.35467 93.5955 5.63733 94.1715 6C95.3128 6.768 96.1448 7.76533 96.6675 8.992ZM90.3155 15.168C90.9768 15.168 91.5848 15.0133 92.1395 14.704C92.7048 14.384 93.1528 13.952 93.4835 13.408C93.8142 12.864 93.9795 12.272 93.9795 11.632C93.9795 11.2907 93.9208 10.944 93.8035 10.592C93.7075 10.272 93.5582 9.968 93.3555 9.68C92.9715 9.09333 92.4382 8.66133 91.7555 8.384C91.2862 8.192 90.8062 8.096 90.3155 8.096C89.9635 8.096 89.6008 8.14933 89.2275 8.256C88.8648 8.37333 88.5448 8.52267 88.2675 8.704C87.6702 9.12 87.2328 9.64267 86.9555 10.272C86.7635 10.7307 86.6675 11.184 86.6675 11.632C86.6675 12.272 86.8275 12.864 87.1475 13.408C87.4782 13.952 87.9208 14.384 88.4755 14.704C89.0408 15.0133 89.6542 15.168 90.3155 15.168ZM108.245 5.536C108.565 5.65333 108.826 5.856 109.029 6.144C109.232 6.42133 109.333 6.73067 109.333 7.072C109.333 7.52 109.173 7.904 108.853 8.224C108.533 8.53333 108.149 8.688 107.701 8.688C107.509 8.688 107.328 8.656 107.157 8.592C106.4 8.32533 105.738 8.192 105.173 8.192C104.906 8.192 104.661 8.224 104.437 8.288C104.053 8.40533 103.749 8.62933 103.525 8.96C103.301 9.28 103.146 9.61067 103.061 9.952C102.976 10.2933 102.933 10.5707 102.933 10.784V16.4V16.416C102.933 16.864 102.773 17.248 102.453 17.568C102.144 17.8773 101.765 18.032 101.317 18.032C100.869 18.032 100.485 17.8773 100.165 17.568C99.8558 17.248 99.7011 16.864 99.7011 16.416V16.4V10.784V6.56C99.7011 6.112 99.8558 5.73333 100.165 5.424C100.485 5.104 100.869 4.944 101.317 4.944C101.573 4.944 101.813 5.00267 102.037 5.12C102.261 5.22667 102.448 5.376 102.597 5.568C103.354 5.16267 104.218 4.96 105.189 4.96C106.096 4.96 107.093 5.14667 108.181 5.52H108.197C108.208 5.53067 108.224 5.536 108.245 5.536ZM115.323 9.6C115.473 9.664 115.718 9.728 116.059 9.792C116.945 10.016 117.723 10.2613 118.395 10.528C119.078 10.7947 119.697 11.2267 120.251 11.824C120.806 12.4107 121.083 13.184 121.083 14.144C121.083 14.912 120.891 15.6107 120.507 16.24C120.123 16.8587 119.563 17.3547 118.827 17.728C118.102 18.0907 117.249 18.272 116.267 18.272C115.425 18.272 114.635 18.1547 113.899 17.92C113.163 17.6853 112.427 17.3333 111.691 16.864C111.414 16.7253 111.19 16.528 111.019 16.272C110.859 16.0053 110.779 15.712 110.779 15.392C110.779 14.944 110.934 14.5653 111.243 14.256C111.563 13.936 111.947 13.776 112.395 13.776C112.705 13.776 112.998 13.8613 113.275 14.032H113.291C113.793 14.3627 114.273 14.6133 114.731 14.784C115.201 14.9547 115.713 15.04 116.267 15.04C116.705 15.04 117.073 14.976 117.371 14.848C117.681 14.7093 117.835 14.4747 117.835 14.144C117.835 14.1013 117.83 14.0693 117.819 14.048C117.819 14.0267 117.819 14.0107 117.819 14C117.734 13.776 117.446 13.584 116.955 13.424C116.475 13.2533 115.979 13.1147 115.467 13.008C114.166 12.7093 113.121 12.2347 112.331 11.584C111.553 10.9333 111.163 10.0533 111.163 8.944V8.928V8.912C111.163 8.03733 111.366 7.29067 111.771 6.672C112.177 6.05333 112.726 5.584 113.419 5.264C114.113 4.944 114.886 4.784 115.739 4.784C116.518 4.784 117.313 4.92267 118.123 5.2C118.582 5.36 119.089 5.584 119.643 5.872C119.91 6.01067 120.123 6.208 120.283 6.464C120.443 6.72 120.523 7.00267 120.523 7.312C120.523 7.76 120.363 8.144 120.043 8.464C119.734 8.784 119.355 8.944 118.907 8.944H118.891L118.763 8.928C118.539 8.90667 118.347 8.85333 118.187 8.768C118.102 8.736 118.022 8.704 117.947 8.672C117.883 8.62933 117.825 8.59733 117.771 8.576C117.409 8.40533 117.083 8.27733 116.795 8.192C116.507 8.096 116.166 8.048 115.771 8.048C115.366 8.048 115.062 8.09067 114.859 8.176C114.657 8.25067 114.529 8.352 114.475 8.48C114.422 8.59733 114.395 8.752 114.395 8.944C114.395 8.976 114.395 8.99733 114.395 9.008C114.406 9.01867 114.411 9.02933 114.411 9.04C114.454 9.14667 114.571 9.25333 114.763 9.36C114.966 9.46667 115.153 9.54667 115.323 9.6Z" fill="#43A5FF"/>
<path d="M125.864 18.256C125.416 18.256 125.032 18.096 124.712 17.776C124.403 17.456 124.248 17.072 124.248 16.624C124.248 16.176 124.403 15.7973 124.712 15.488C125.032 15.168 125.416 15.008 125.864 15.008C126.312 15.008 126.691 15.168 127 15.488C127.32 15.7973 127.48 16.176 127.48 16.624C127.48 17.072 127.32 17.456 127 17.776C126.691 18.096 126.312 18.256 125.864 18.256ZM140.462 13.648C140.91 13.648 141.289 13.808 141.598 14.128C141.918 14.448 142.078 14.832 142.078 15.28C142.078 15.5147 142.025 15.7387 141.918 15.952C141.822 16.1653 141.689 16.3467 141.518 16.496C140.942 17.0187 140.244 17.44 139.422 17.76C138.612 18.0587 137.78 18.208 136.926 18.208H136.91C136.238 18.208 135.556 18.1067 134.862 17.904C134.201 17.7013 133.598 17.4187 133.054 17.056C132.5 16.6933 132.004 16.256 131.566 15.744C131.14 15.232 130.793 14.672 130.526 14.064C130.164 13.2213 129.982 12.3307 129.982 11.392C129.982 10.08 130.308 8.90667 130.958 7.872C131.62 6.83733 132.484 6.03733 133.55 5.472C134.628 4.896 135.764 4.608 136.958 4.608C137.801 4.608 138.617 4.75733 139.406 5.056C140.206 5.35467 140.942 5.80267 141.614 6.4C141.774 6.54933 141.902 6.73067 141.998 6.944C142.094 7.14667 142.142 7.36533 142.142 7.6C142.142 8.048 141.982 8.432 141.662 8.752C141.353 9.06133 140.974 9.216 140.526 9.216C140.1 9.216 139.737 9.07733 139.438 8.8C139.076 8.48 138.681 8.24 138.254 8.08C137.838 7.92 137.406 7.84 136.958 7.84C136.318 7.84 135.71 7.98933 135.134 8.288C134.558 8.58667 134.094 9.008 133.742 9.552C133.39 10.096 133.214 10.7147 133.214 11.408C133.214 11.7493 133.268 12.096 133.374 12.448C133.481 12.7573 133.636 13.0667 133.838 13.376C134.244 13.9627 134.788 14.3947 135.47 14.672C135.897 14.864 136.382 14.96 136.926 14.96C137.406 14.96 137.854 14.88 138.27 14.72C138.718 14.5387 139.086 14.32 139.374 14.064C139.684 13.7867 140.046 13.648 140.462 13.648ZM157.871 8.992C158.233 9.81333 158.415 10.6933 158.415 11.632C158.415 12.8587 158.105 13.9947 157.487 15.04C156.868 16.0747 156.031 16.896 154.975 17.504C153.919 18.112 152.767 18.416 151.519 18.416C150.271 18.416 149.119 18.112 148.063 17.504C147.017 16.896 146.185 16.08 145.567 15.056C144.948 14.0213 144.639 12.8907 144.639 11.664C144.639 10.9173 144.74 10.2347 144.943 9.616C145.167 8.944 145.46 8.34667 145.823 7.824C146.196 7.29067 146.639 6.816 147.151 6.4C147.673 5.97333 148.239 5.632 148.847 5.376C149.721 5.024 150.612 4.848 151.519 4.848C152.212 4.848 152.895 4.94933 153.567 5.152C154.196 5.35467 154.799 5.63733 155.375 6C156.516 6.768 157.348 7.76533 157.871 8.992ZM151.519 15.168C152.18 15.168 152.788 15.0133 153.343 14.704C153.908 14.384 154.356 13.952 154.687 13.408C155.017 12.864 155.183 12.272 155.183 11.632C155.183 11.2907 155.124 10.944 155.007 10.592C154.911 10.272 154.761 9.968 154.559 9.68C154.175 9.09333 153.641 8.66133 152.959 8.384C152.489 8.192 152.009 8.096 151.519 8.096C151.167 8.096 150.804 8.14933 150.431 8.256C150.068 8.37333 149.748 8.52267 149.471 8.704C148.873 9.12 148.436 9.64267 148.159 10.272C147.967 10.7307 147.871 11.184 147.871 11.632C147.871 12.272 148.031 12.864 148.351 13.408C148.681 13.952 149.124 14.384 149.679 14.704C150.244 15.0133 150.857 15.168 151.519 15.168ZM181.352 16.384C181.342 16.832 181.176 17.216 180.856 17.536C180.547 17.8453 180.168 18 179.72 18C179.272 18 178.888 17.8453 178.568 17.536C178.259 17.216 178.104 16.832 178.104 16.384V10.576C178.104 10.352 178.067 10.1013 177.992 9.824C177.8 9.23733 177.475 8.78933 177.016 8.48C176.558 8.17067 176.046 8.016 175.48 8.016C175.022 8.016 174.579 8.12267 174.152 8.336C173.736 8.53867 173.395 8.83733 173.128 9.232C172.872 9.616 172.744 10.064 172.744 10.576V16.384C172.744 16.832 172.584 17.216 172.264 17.536C171.944 17.8453 171.566 18 171.128 18C170.68 18 170.296 17.8453 169.976 17.536C169.656 17.216 169.496 16.832 169.496 16.384V10.576C169.496 10.2987 169.459 10.048 169.384 9.824C169.192 9.23733 168.867 8.79467 168.408 8.496C167.95 8.18667 167.438 8.032 166.872 8.032C166.403 8.032 165.96 8.13333 165.544 8.336C165.128 8.53867 164.787 8.832 164.52 9.216C164.264 9.6 164.136 10.0533 164.136 10.576V16.368V16.384C164.136 16.832 163.976 17.216 163.656 17.536C163.347 17.8453 162.968 18 162.52 18C162.072 18 161.688 17.8453 161.368 17.536C161.059 17.216 160.904 16.832 160.904 16.384V16.368V10.576V6.368C160.904 5.92 161.059 5.536 161.368 5.216C161.688 4.896 162.072 4.736 162.52 4.736C162.808 4.736 163.075 4.81067 163.32 4.96C163.566 5.09867 163.763 5.28533 163.912 5.52C164.851 5.01867 165.827 4.768 166.84 4.768C167.662 4.768 168.44 4.928 169.176 5.248C169.923 5.568 170.574 6.016 171.128 6.592C171.683 6.016 172.334 5.568 173.08 5.248C173.827 4.928 174.611 4.768 175.432 4.768C176.51 4.768 177.502 5.02933 178.408 5.552C179.315 6.07467 180.03 6.784 180.552 7.68C181.086 8.56533 181.352 9.53067 181.352 10.576V16.384Z" fill="#F83B95"/>
</svg>
